M48
; DRILL file {KiCad 9.0.2} date 2025-07-09T17:08:13-0400
; FORMAT={-:-/ absolute / metric / decimal}
; #@! TF.CreationDate,2025-07-09T17:08:13-04:00
; #@! TF.GenerationSoftware,Kicad,Pcbnew,9.0.2
; #@! TF.FileFunction,Plated,1,2,PTH
FMAT,2
METRIC
; #@! TA.AperFunction,Plated,PTH,ComponentDrill
T1C0.800
; #@! TA.AperFunction,Plated,PTH,ComponentDrill
T2C1.000
; #@! TA.AperFunction,Plated,PTH,ComponentDrill
T3C1.200
%
G90
G05
T1
X57.19Y-111.0
X57.69Y-92.0
X64.81Y-111.0
X65.31Y-92.0
T2
X41.5Y-106.19
X41.5Y-108.73
X41.5Y-111.27
X41.5Y-113.81
X79.725Y-89.72
X79.725Y-92.26
X79.725Y-94.8
X79.725Y-97.34
X79.725Y-99.88
X79.725Y-102.42
X79.725Y-104.96
X79.725Y-107.5
X79.725Y-110.04
X79.725Y-112.58
X79.725Y-115.12
X79.725Y-117.66
X79.725Y-120.2
X79.725Y-122.74
X79.725Y-125.28
X82.265Y-89.72
X82.265Y-92.26
X82.265Y-94.8
X82.265Y-97.34
X82.265Y-99.88
X82.265Y-102.42
X82.265Y-104.96
X82.265Y-107.5
X82.265Y-110.04
X82.265Y-112.58
X82.265Y-115.12
X82.265Y-117.66
X82.265Y-120.2
X82.265Y-122.74
X82.265Y-125.28
X97.115Y-95.69
X97.115Y-98.23
X97.115Y-100.77
X97.115Y-103.31
T3
X111.5Y-133.0
X111.5Y-145.5
X116.5Y-133.0
X116.5Y-145.5
M30
