G04 #@! TF.GenerationSoftware,KiCad,Pcbnew,9.0.2*
G04 #@! TF.CreationDate,2025-07-09T17:10:01-04:00*
G04 #@! TF.ProjectId,Temperature Sensor PCB,54656d70-6572-4617-9475-72652053656e,rev?*
G04 #@! TF.SameCoordinates,Original*
G04 #@! TF.FileFunction,Copper,L2,Bot*
G04 #@! TF.FilePolarity,Positive*
%FSLAX46Y46*%
G04 Gerber Fmt 4.6, Leading zero omitted, Abs format (unit mm)*
G04 Created by KiCad (PCBNEW 9.0.2) date 2025-07-09 17:10:01*
%MOMM*%
%LPD*%
G01*
G04 APERTURE LIST*
G04 #@! TA.AperFunction,ComponentPad*
%ADD10R,1.700000X1.700000*%
G04 #@! TD*
G04 #@! TA.AperFunction,ComponentPad*
%ADD11C,1.700000*%
G04 #@! TD*
G04 #@! TA.AperFunction,ComponentPad*
%ADD12C,1.600000*%
G04 #@! TD*
G04 #@! TA.AperFunction,ComponentPad*
%ADD13O,1.700000X2.900000*%
G04 #@! TD*
G04 APERTURE END LIST*
D10*
X97115000Y-95690000D03*
D11*
X97115000Y-98230000D03*
X97115000Y-100770000D03*
X97115000Y-103310000D03*
D10*
X79725000Y-89720000D03*
D11*
X82265000Y-89720000D03*
X79725000Y-92260000D03*
X82265000Y-92260000D03*
X79725000Y-94800000D03*
X82265000Y-94800000D03*
X79725000Y-97340000D03*
X82265000Y-97340000D03*
X79725000Y-99880000D03*
X82265000Y-99880000D03*
X79725000Y-102420000D03*
X82265000Y-102420000D03*
X79725000Y-104960000D03*
X82265000Y-104960000D03*
X79725000Y-107500000D03*
X82265000Y-107500000D03*
X79725000Y-110040000D03*
X82265000Y-110040000D03*
X79725000Y-112580000D03*
X82265000Y-112580000D03*
X79725000Y-115120000D03*
X82265000Y-115120000D03*
X79725000Y-117660000D03*
X82265000Y-117660000D03*
X79725000Y-120200000D03*
X82265000Y-120200000D03*
X79725000Y-122740000D03*
X82265000Y-122740000D03*
X79725000Y-125280000D03*
X82265000Y-125280000D03*
D12*
X57190000Y-111000000D03*
X64810000Y-111000000D03*
D10*
X41500000Y-113810000D03*
D11*
X41500000Y-111270000D03*
X41500000Y-108730000D03*
X41500000Y-106190000D03*
D13*
X111500000Y-145500000D03*
X111500000Y-133000000D03*
X116500000Y-145500000D03*
X116500000Y-133000000D03*
D12*
X57690000Y-92000000D03*
X65310000Y-92000000D03*
M02*
