G04 #@! TF.GenerationSoftware,KiCad,Pcbnew,9.0.2*
G04 #@! TF.CreationDate,2025-07-09T17:10:01-04:00*
G04 #@! TF.ProjectId,Temperature Sensor PCB,54656d70-6572-4617-9475-72652053656e,rev?*
G04 #@! TF.SameCoordinates,Original*
G04 #@! TF.FileFunction,Copper,L1,Top*
G04 #@! TF.FilePolarity,Positive*
%FSLAX46Y46*%
G04 Gerber Fmt 4.6, Leading zero omitted, Abs format (unit mm)*
G04 Created by KiCad (PCBNEW 9.0.2) date 2025-07-09 17:10:01*
%MOMM*%
%LPD*%
G01*
G04 APERTURE LIST*
G04 #@! TA.AperFunction,ComponentPad*
%ADD10R,1.700000X1.700000*%
G04 #@! TD*
G04 #@! TA.AperFunction,ComponentPad*
%ADD11C,1.700000*%
G04 #@! TD*
G04 #@! TA.AperFunction,ComponentPad*
%ADD12C,1.600000*%
G04 #@! TD*
G04 #@! TA.AperFunction,ComponentPad*
%ADD13O,1.700000X2.900000*%
G04 #@! TD*
G04 #@! TA.AperFunction,Conductor*
%ADD14C,0.200000*%
G04 #@! TD*
G04 APERTURE END LIST*
D10*
X97115000Y-95690000D03*
D11*
X97115000Y-98230000D03*
X97115000Y-100770000D03*
X97115000Y-103310000D03*
D10*
X79725000Y-89720000D03*
D11*
X82265000Y-89720000D03*
X79725000Y-92260000D03*
X82265000Y-92260000D03*
X79725000Y-94800000D03*
X82265000Y-94800000D03*
X79725000Y-97340000D03*
X82265000Y-97340000D03*
X79725000Y-99880000D03*
X82265000Y-99880000D03*
X79725000Y-102420000D03*
X82265000Y-102420000D03*
X79725000Y-104960000D03*
X82265000Y-104960000D03*
X79725000Y-107500000D03*
X82265000Y-107500000D03*
X79725000Y-110040000D03*
X82265000Y-110040000D03*
X79725000Y-112580000D03*
X82265000Y-112580000D03*
X79725000Y-115120000D03*
X82265000Y-115120000D03*
X79725000Y-117660000D03*
X82265000Y-117660000D03*
X79725000Y-120200000D03*
X82265000Y-120200000D03*
X79725000Y-122740000D03*
X82265000Y-122740000D03*
X79725000Y-125280000D03*
X82265000Y-125280000D03*
D12*
X57190000Y-111000000D03*
X64810000Y-111000000D03*
D10*
X41500000Y-113810000D03*
D11*
X41500000Y-111270000D03*
X41500000Y-108730000D03*
X41500000Y-106190000D03*
D13*
X111500000Y-145500000D03*
X111500000Y-133000000D03*
X116500000Y-145500000D03*
X116500000Y-133000000D03*
D12*
X57690000Y-92000000D03*
X65310000Y-92000000D03*
D14*
X82265000Y-97340000D02*
X83155000Y-98230000D01*
X83155000Y-98230000D02*
X97115000Y-98230000D01*
X77310000Y-98500000D02*
X80430760Y-98500000D01*
X81114000Y-97816760D02*
X81114000Y-95951000D01*
X81114000Y-95951000D02*
X82265000Y-94800000D01*
X80430760Y-98500000D02*
X81114000Y-97816760D01*
X64810000Y-111000000D02*
X77310000Y-98500000D01*
X68255000Y-113810000D02*
X79725000Y-125280000D01*
X85695000Y-95690000D02*
X97115000Y-95690000D01*
X41500000Y-113810000D02*
X68255000Y-113810000D01*
X82265000Y-92260000D02*
X85695000Y-95690000D01*
X80876000Y-101031000D02*
X96854000Y-101031000D01*
X79725000Y-99880000D02*
X80876000Y-101031000D01*
X96854000Y-101031000D02*
X97115000Y-100770000D01*
X65310000Y-92000000D02*
X74385000Y-92000000D01*
X74385000Y-92000000D02*
X79725000Y-97340000D01*
X79725000Y-122740000D02*
X81114000Y-124129000D01*
X111500000Y-129750000D02*
X111500000Y-133000000D01*
X111500000Y-133000000D02*
X111500000Y-145500000D01*
X81114000Y-124129000D02*
X105879000Y-124129000D01*
X105879000Y-124129000D02*
X111500000Y-129750000D01*
X41500000Y-111270000D02*
X56920000Y-111270000D01*
X56920000Y-111270000D02*
X57190000Y-111000000D01*
X57690000Y-92540000D02*
X57690000Y-92000000D01*
X41500000Y-108730000D02*
X57690000Y-92540000D01*
X116500000Y-133000000D02*
X116500000Y-145500000D01*
X97115000Y-103310000D02*
X116500000Y-122695000D01*
X116500000Y-122695000D02*
X116500000Y-133000000D01*
G04 #@! TA.AperFunction,Conductor*
G36*
X81799075Y-92452993D02*
G01*
X81864901Y-92567007D01*
X81957993Y-92660099D01*
X82072007Y-92725925D01*
X82135590Y-92742962D01*
X81503282Y-93375269D01*
X81503282Y-93375270D01*
X81557452Y-93414626D01*
X81557451Y-93414626D01*
X81566495Y-93419234D01*
X81617292Y-93467208D01*
X81634087Y-93535029D01*
X81611550Y-93601164D01*
X81566499Y-93640202D01*
X81557182Y-93644949D01*
X81385213Y-93769890D01*
X81234890Y-93920213D01*
X81109949Y-94092182D01*
X81105484Y-94100946D01*
X81057509Y-94151742D01*
X80989688Y-94168536D01*
X80923553Y-94145998D01*
X80884516Y-94100946D01*
X80880050Y-94092182D01*
X80755109Y-93920213D01*
X80604786Y-93769890D01*
X80432820Y-93644951D01*
X80432115Y-93644591D01*
X80424054Y-93640485D01*
X80373259Y-93592512D01*
X80356463Y-93524692D01*
X80378999Y-93458556D01*
X80424054Y-93419515D01*
X80432816Y-93415051D01*
X80547745Y-93331551D01*
X80604786Y-93290109D01*
X80604788Y-93290106D01*
X80604792Y-93290104D01*
X80755104Y-93139792D01*
X80755106Y-93139788D01*
X80755109Y-93139786D01*
X80840890Y-93021717D01*
X80880051Y-92967816D01*
X80884793Y-92958508D01*
X80932763Y-92907711D01*
X81000583Y-92890911D01*
X81066719Y-92913445D01*
X81105763Y-92958500D01*
X81110373Y-92967547D01*
X81149728Y-93021716D01*
X81782037Y-92389408D01*
X81799075Y-92452993D01*
G37*
G04 #@! TD.AperFunction*
G04 #@! TA.AperFunction,Conductor*
G36*
X81243418Y-90615417D02*
G01*
X81271673Y-90636569D01*
X81385213Y-90750109D01*
X81557179Y-90875048D01*
X81557181Y-90875049D01*
X81557184Y-90875051D01*
X81566493Y-90879794D01*
X81617290Y-90927766D01*
X81634087Y-90995587D01*
X81611552Y-91061722D01*
X81566505Y-91100760D01*
X81557446Y-91105376D01*
X81557440Y-91105380D01*
X81503282Y-91144727D01*
X81503282Y-91144728D01*
X82135591Y-91777037D01*
X82072007Y-91794075D01*
X81957993Y-91859901D01*
X81864901Y-91952993D01*
X81799075Y-92067007D01*
X81782037Y-92130591D01*
X81149728Y-91498282D01*
X81149727Y-91498282D01*
X81110380Y-91552440D01*
X81110376Y-91552446D01*
X81105760Y-91561505D01*
X81057781Y-91612297D01*
X80989959Y-91629087D01*
X80923826Y-91606543D01*
X80884794Y-91561493D01*
X80880051Y-91552184D01*
X80880049Y-91552181D01*
X80880048Y-91552179D01*
X80755109Y-91380213D01*
X80641569Y-91266673D01*
X80608084Y-91205350D01*
X80613068Y-91135658D01*
X80654940Y-91079725D01*
X80685915Y-91062810D01*
X80817331Y-91013796D01*
X80932546Y-90927546D01*
X81018796Y-90812331D01*
X81067810Y-90680916D01*
X81109681Y-90624984D01*
X81175145Y-90600566D01*
X81243418Y-90615417D01*
G37*
G04 #@! TD.AperFunction*
G04 #@! TA.AperFunction,Conductor*
G36*
X125942539Y-68020185D02*
G01*
X125988294Y-68072989D01*
X125999500Y-68124500D01*
X125999500Y-160375314D01*
X125979815Y-160442353D01*
X125927011Y-160488108D01*
X125874819Y-160499312D01*
X35123819Y-160000679D01*
X35056888Y-159980627D01*
X35011424Y-159927572D01*
X35000500Y-159876681D01*
X35000500Y-155878711D01*
X36149500Y-155878711D01*
X36149500Y-156121288D01*
X36181161Y-156361785D01*
X36243947Y-156596104D01*
X36336773Y-156820205D01*
X36336776Y-156820212D01*
X36458064Y-157030289D01*
X36458066Y-157030292D01*
X36458067Y-157030293D01*
X36605733Y-157222736D01*
X36605739Y-157222743D01*
X36777256Y-157394260D01*
X36777262Y-157394265D01*
X36969711Y-157541936D01*
X37179788Y-157663224D01*
X37403900Y-157756054D01*
X37638211Y-157818838D01*
X37818586Y-157842584D01*
X37878711Y-157850500D01*
X37878712Y-157850500D01*
X38121289Y-157850500D01*
X38169388Y-157844167D01*
X38361789Y-157818838D01*
X38596100Y-157756054D01*
X38820212Y-157663224D01*
X39030289Y-157541936D01*
X39222738Y-157394265D01*
X39394265Y-157222738D01*
X39541936Y-157030289D01*
X39663224Y-156820212D01*
X39756054Y-156596100D01*
X39818838Y-156361789D01*
X39850500Y-156121288D01*
X39850500Y-155878712D01*
X39850500Y-155878711D01*
X120649500Y-155878711D01*
X120649500Y-156121288D01*
X120681161Y-156361785D01*
X120743947Y-156596104D01*
X120836773Y-156820205D01*
X120836776Y-156820212D01*
X120958064Y-157030289D01*
X120958066Y-157030292D01*
X120958067Y-157030293D01*
X121105733Y-157222736D01*
X121105739Y-157222743D01*
X121277256Y-157394260D01*
X121277262Y-157394265D01*
X121469711Y-157541936D01*
X121679788Y-157663224D01*
X121903900Y-157756054D01*
X122138211Y-157818838D01*
X122318586Y-157842584D01*
X122378711Y-157850500D01*
X122378712Y-157850500D01*
X122621289Y-157850500D01*
X122669388Y-157844167D01*
X122861789Y-157818838D01*
X123096100Y-157756054D01*
X123320212Y-157663224D01*
X123530289Y-157541936D01*
X123722738Y-157394265D01*
X123894265Y-157222738D01*
X124041936Y-157030289D01*
X124163224Y-156820212D01*
X124256054Y-156596100D01*
X124318838Y-156361789D01*
X124350500Y-156121288D01*
X124350500Y-155878712D01*
X124318838Y-155638211D01*
X124256054Y-155403900D01*
X124163224Y-155179788D01*
X124041936Y-154969711D01*
X123894265Y-154777262D01*
X123894260Y-154777256D01*
X123722743Y-154605739D01*
X123722736Y-154605733D01*
X123530293Y-154458067D01*
X123530292Y-154458066D01*
X123530289Y-154458064D01*
X123320212Y-154336776D01*
X123320205Y-154336773D01*
X123096104Y-154243947D01*
X122861785Y-154181161D01*
X122621289Y-154149500D01*
X122621288Y-154149500D01*
X122378712Y-154149500D01*
X122378711Y-154149500D01*
X122138214Y-154181161D01*
X121903895Y-154243947D01*
X121679794Y-154336773D01*
X121679785Y-154336777D01*
X121469706Y-154458067D01*
X121277263Y-154605733D01*
X121277256Y-154605739D01*
X121105739Y-154777256D01*
X121105733Y-154777263D01*
X120958067Y-154969706D01*
X120836777Y-155179785D01*
X120836773Y-155179794D01*
X120743947Y-155403895D01*
X120681161Y-155638214D01*
X120649500Y-155878711D01*
X39850500Y-155878711D01*
X39818838Y-155638211D01*
X39756054Y-155403900D01*
X39663224Y-155179788D01*
X39541936Y-154969711D01*
X39394265Y-154777262D01*
X39394260Y-154777256D01*
X39222743Y-154605739D01*
X39222736Y-154605733D01*
X39030293Y-154458067D01*
X39030292Y-154458066D01*
X39030289Y-154458064D01*
X38820212Y-154336776D01*
X38820205Y-154336773D01*
X38596104Y-154243947D01*
X38361785Y-154181161D01*
X38121289Y-154149500D01*
X38121288Y-154149500D01*
X37878712Y-154149500D01*
X37878711Y-154149500D01*
X37638214Y-154181161D01*
X37403895Y-154243947D01*
X37179794Y-154336773D01*
X37179785Y-154336777D01*
X36969706Y-154458067D01*
X36777263Y-154605733D01*
X36777256Y-154605739D01*
X36605739Y-154777256D01*
X36605733Y-154777263D01*
X36458067Y-154969706D01*
X36336777Y-155179785D01*
X36336773Y-155179794D01*
X36243947Y-155403895D01*
X36181161Y-155638214D01*
X36149500Y-155878711D01*
X35000500Y-155878711D01*
X35000500Y-139159448D01*
X108349500Y-139159448D01*
X108349500Y-139340551D01*
X108377829Y-139519410D01*
X108433787Y-139691636D01*
X108433788Y-139691639D01*
X108516006Y-139852997D01*
X108622441Y-139999494D01*
X108622445Y-139999499D01*
X108750500Y-140127554D01*
X108750505Y-140127558D01*
X108878287Y-140220396D01*
X108897006Y-140233996D01*
X109002484Y-140287740D01*
X109058360Y-140316211D01*
X109058363Y-140316212D01*
X109144476Y-140344191D01*
X109230591Y-140372171D01*
X109313429Y-140385291D01*
X109409449Y-140400500D01*
X109409454Y-140400500D01*
X109590551Y-140400500D01*
X109677259Y-140386765D01*
X109769409Y-140372171D01*
X109941639Y-140316211D01*
X110102994Y-140233996D01*
X110249501Y-140127553D01*
X110377553Y-139999501D01*
X110483996Y-139852994D01*
X110566211Y-139691639D01*
X110622171Y-139519409D01*
X110636765Y-139427259D01*
X110650500Y-139340551D01*
X110650500Y-139159448D01*
X110634019Y-139055397D01*
X110622171Y-138980591D01*
X110566211Y-138808361D01*
X110566211Y-138808360D01*
X110537740Y-138752484D01*
X110483996Y-138647006D01*
X110470396Y-138628287D01*
X110377558Y-138500505D01*
X110377554Y-138500500D01*
X110249499Y-138372445D01*
X110249494Y-138372441D01*
X110102997Y-138266006D01*
X110102996Y-138266005D01*
X110102994Y-138266004D01*
X110051300Y-138239664D01*
X109941639Y-138183788D01*
X109941636Y-138183787D01*
X109769410Y-138127829D01*
X109590551Y-138099500D01*
X109590546Y-138099500D01*
X109409454Y-138099500D01*
X109409449Y-138099500D01*
X109230589Y-138127829D01*
X109058363Y-138183787D01*
X109058360Y-138183788D01*
X108897002Y-138266006D01*
X108750505Y-138372441D01*
X108750500Y-138372445D01*
X108622445Y-138500500D01*
X108622441Y-138500505D01*
X108516006Y-138647002D01*
X108433788Y-138808360D01*
X108433787Y-138808363D01*
X108377829Y-138980589D01*
X108349500Y-139159448D01*
X35000500Y-139159448D01*
X35000500Y-106083713D01*
X40149500Y-106083713D01*
X40149500Y-106296287D01*
X40182754Y-106506243D01*
X40219785Y-106620213D01*
X40248444Y-106708414D01*
X40344951Y-106897820D01*
X40469890Y-107069786D01*
X40620213Y-107220109D01*
X40792182Y-107345050D01*
X40800946Y-107349516D01*
X40851742Y-107397491D01*
X40868536Y-107465312D01*
X40845998Y-107531447D01*
X40800946Y-107570484D01*
X40792182Y-107574949D01*
X40620213Y-107699890D01*
X40469890Y-107850213D01*
X40344951Y-108022179D01*
X40248444Y-108211585D01*
X40182753Y-108413760D01*
X40149500Y-108623713D01*
X40149500Y-108836287D01*
X40182754Y-109046243D01*
X40219785Y-109160213D01*
X40248444Y-109248414D01*
X40344951Y-109437820D01*
X40469890Y-109609786D01*
X40620213Y-109760109D01*
X40792182Y-109885050D01*
X40800946Y-109889516D01*
X40851742Y-109937491D01*
X40868536Y-110005312D01*
X40845998Y-110071447D01*
X40800946Y-110110484D01*
X40792182Y-110114949D01*
X40620213Y-110239890D01*
X40469890Y-110390213D01*
X40344951Y-110562179D01*
X40248444Y-110751585D01*
X40182753Y-110953760D01*
X40159219Y-111102351D01*
X40149500Y-111163713D01*
X40149500Y-111376287D01*
X40182754Y-111586243D01*
X40219785Y-111700213D01*
X40248444Y-111788414D01*
X40344951Y-111977820D01*
X40469890Y-112149786D01*
X40583818Y-112263714D01*
X40617303Y-112325037D01*
X40612319Y-112394729D01*
X40570447Y-112450662D01*
X40539471Y-112467577D01*
X40407912Y-112516646D01*
X40407906Y-112516649D01*
X40292812Y-112602809D01*
X40292809Y-112602812D01*
X40206649Y-112717906D01*
X40206645Y-112717913D01*
X40156403Y-112852620D01*
X40156401Y-112852627D01*
X40150000Y-112912155D01*
X40150000Y-113560000D01*
X41066988Y-113560000D01*
X41034075Y-113617007D01*
X41000000Y-113744174D01*
X41000000Y-113875826D01*
X41034075Y-114002993D01*
X41066988Y-114060000D01*
X40150000Y-114060000D01*
X40150000Y-114707844D01*
X40156401Y-114767372D01*
X40156403Y-114767379D01*
X40206645Y-114902086D01*
X40206649Y-114902093D01*
X40292809Y-115017187D01*
X40292812Y-115017190D01*
X40407906Y-115103350D01*
X40407913Y-115103354D01*
X40542620Y-115153596D01*
X40542627Y-115153598D01*
X40602155Y-115159999D01*
X40602172Y-115160000D01*
X41250000Y-115160000D01*
X41250000Y-114243012D01*
X41307007Y-114275925D01*
X41434174Y-114310000D01*
X41565826Y-114310000D01*
X41692993Y-114275925D01*
X41750000Y-114243012D01*
X41750000Y-115160000D01*
X42397828Y-115160000D01*
X42397844Y-115159999D01*
X42457372Y-115153598D01*
X42457379Y-115153596D01*
X42592086Y-115103354D01*
X42592093Y-115103350D01*
X42707187Y-115017190D01*
X42707190Y-115017187D01*
X42793350Y-114902093D01*
X42793354Y-114902086D01*
X42843596Y-114767379D01*
X42843598Y-114767372D01*
X42849999Y-114707844D01*
X42850000Y-114707827D01*
X42850000Y-114060000D01*
X41933012Y-114060000D01*
X41965925Y-114002993D01*
X42000000Y-113875826D01*
X42000000Y-113744174D01*
X41965925Y-113617007D01*
X41933012Y-113560000D01*
X42850000Y-113560000D01*
X42850000Y-112912172D01*
X42849999Y-112912155D01*
X42843598Y-112852627D01*
X42843596Y-112852620D01*
X42793354Y-112717913D01*
X42793350Y-112717906D01*
X42707190Y-112602812D01*
X42707187Y-112602809D01*
X42592093Y-112516649D01*
X42592088Y-112516646D01*
X42460528Y-112467577D01*
X42404595Y-112425705D01*
X42380178Y-112360241D01*
X42395030Y-112291968D01*
X42416175Y-112263720D01*
X42530104Y-112149792D01*
X42655051Y-111977816D01*
X42655349Y-111977230D01*
X42675235Y-111938205D01*
X42723209Y-111887409D01*
X42785719Y-111870500D01*
X56169953Y-111870500D01*
X56236992Y-111890185D01*
X56257634Y-111906819D01*
X56342786Y-111991971D01*
X56438608Y-112061588D01*
X56508390Y-112112287D01*
X56581998Y-112149792D01*
X56690776Y-112205218D01*
X56690778Y-112205218D01*
X56690781Y-112205220D01*
X56795137Y-112239127D01*
X56885465Y-112268477D01*
X56986557Y-112284488D01*
X57087648Y-112300500D01*
X57087649Y-112300500D01*
X57292351Y-112300500D01*
X57292352Y-112300500D01*
X57494534Y-112268477D01*
X57689219Y-112205220D01*
X57871610Y-112112287D01*
X57964590Y-112044732D01*
X58037213Y-111991971D01*
X58037215Y-111991968D01*
X58037219Y-111991966D01*
X58181966Y-111847219D01*
X58181968Y-111847215D01*
X58181971Y-111847213D01*
X58288771Y-111700213D01*
X58302287Y-111681610D01*
X58395220Y-111499219D01*
X58458477Y-111304534D01*
X58490500Y-111102352D01*
X58490500Y-110897648D01*
X63509500Y-110897648D01*
X63509500Y-111102351D01*
X63541522Y-111304534D01*
X63604781Y-111499223D01*
X63697715Y-111681613D01*
X63818028Y-111847213D01*
X63962786Y-111991971D01*
X64058608Y-112061588D01*
X64128390Y-112112287D01*
X64201998Y-112149792D01*
X64310776Y-112205218D01*
X64310778Y-112205218D01*
X64310781Y-112205220D01*
X64415137Y-112239127D01*
X64505465Y-112268477D01*
X64606557Y-112284488D01*
X64707648Y-112300500D01*
X64707649Y-112300500D01*
X64912351Y-112300500D01*
X64912352Y-112300500D01*
X65114534Y-112268477D01*
X65309219Y-112205220D01*
X65491610Y-112112287D01*
X65584590Y-112044732D01*
X65657213Y-111991971D01*
X65657215Y-111991968D01*
X65657219Y-111991966D01*
X65801966Y-111847219D01*
X65801968Y-111847215D01*
X65801971Y-111847213D01*
X65908771Y-111700213D01*
X65922287Y-111681610D01*
X66015220Y-111499219D01*
X66078477Y-111304534D01*
X66110500Y-111102352D01*
X66110500Y-110897648D01*
X66078477Y-110695466D01*
X66073825Y-110681151D01*
X66071832Y-110611312D01*
X66104075Y-110555158D01*
X77522417Y-99136819D01*
X77583740Y-99103334D01*
X77610098Y-99100500D01*
X78404124Y-99100500D01*
X78471163Y-99120185D01*
X78516918Y-99172989D01*
X78526862Y-99242147D01*
X78514609Y-99280795D01*
X78473444Y-99361585D01*
X78407753Y-99563760D01*
X78379857Y-99739890D01*
X78374500Y-99773713D01*
X78374500Y-99986287D01*
X78407754Y-100196243D01*
X78456029Y-100344818D01*
X78473444Y-100398414D01*
X78569951Y-100587820D01*
X78694890Y-100759786D01*
X78845213Y-100910109D01*
X79017182Y-101035050D01*
X79025946Y-101039516D01*
X79076742Y-101087491D01*
X79093536Y-101155312D01*
X79070998Y-101221447D01*
X79025946Y-101260484D01*
X79017182Y-101264949D01*
X78845213Y-101389890D01*
X78694890Y-101540213D01*
X78569951Y-101712179D01*
X78473444Y-101901585D01*
X78407753Y-102103760D01*
X78374500Y-102313713D01*
X78374500Y-102526286D01*
X78407753Y-102736239D01*
X78473444Y-102938414D01*
X78569951Y-103127820D01*
X78694890Y-103299786D01*
X78845213Y-103450109D01*
X79017182Y-103575050D01*
X79025946Y-103579516D01*
X79076742Y-103627491D01*
X79093536Y-103695312D01*
X79070998Y-103761447D01*
X79025946Y-103800484D01*
X79017182Y-103804949D01*
X78845213Y-103929890D01*
X78694890Y-104080213D01*
X78569951Y-104252179D01*
X78473444Y-104441585D01*
X78407754Y-104643757D01*
X78374500Y-104853713D01*
X78374500Y-105066286D01*
X78407753Y-105276239D01*
X78473444Y-105478414D01*
X78569951Y-105667820D01*
X78694890Y-105839786D01*
X78845213Y-105990109D01*
X79017182Y-106115050D01*
X79025946Y-106119516D01*
X79076742Y-106167491D01*
X79093536Y-106235312D01*
X79070998Y-106301447D01*
X79025946Y-106340484D01*
X79017182Y-106344949D01*
X78845213Y-106469890D01*
X78694890Y-106620213D01*
X78569951Y-106792179D01*
X78473444Y-106981585D01*
X78407753Y-107183760D01*
X78374500Y-107393713D01*
X78374500Y-107606286D01*
X78407753Y-107816239D01*
X78473444Y-108018414D01*
X78569951Y-108207820D01*
X78694890Y-108379786D01*
X78845213Y-108530109D01*
X79017182Y-108655050D01*
X79025946Y-108659516D01*
X79076742Y-108707491D01*
X79093536Y-108775312D01*
X79070998Y-108841447D01*
X79025946Y-108880484D01*
X79017182Y-108884949D01*
X78845213Y-109009890D01*
X78694890Y-109160213D01*
X78569951Y-109332179D01*
X78473444Y-109521585D01*
X78407753Y-109723760D01*
X78374500Y-109933713D01*
X78374500Y-110146286D01*
X78401758Y-110318390D01*
X78407754Y-110356243D01*
X78454717Y-110500781D01*
X78473444Y-110558414D01*
X78569951Y-110747820D01*
X78694890Y-110919786D01*
X78845213Y-111070109D01*
X79017182Y-111195050D01*
X79025946Y-111199516D01*
X79076742Y-111247491D01*
X79093536Y-111315312D01*
X79070998Y-111381447D01*
X79025946Y-111420484D01*
X79017182Y-111424949D01*
X78845213Y-111549890D01*
X78694890Y-111700213D01*
X78569951Y-111872179D01*
X78473444Y-112061585D01*
X78407753Y-112263760D01*
X78374500Y-112473713D01*
X78374500Y-112686286D01*
X78407753Y-112896239D01*
X78473444Y-113098414D01*
X78569951Y-113287820D01*
X78694890Y-113459786D01*
X78845213Y-113610109D01*
X79017182Y-113735050D01*
X79025946Y-113739516D01*
X79076742Y-113787491D01*
X79093536Y-113855312D01*
X79070998Y-113921447D01*
X79025946Y-113960484D01*
X79017182Y-113964949D01*
X78845213Y-114089890D01*
X78694890Y-114240213D01*
X78569951Y-114412179D01*
X78473444Y-114601585D01*
X78407753Y-114803760D01*
X78374500Y-115013713D01*
X78374500Y-115226286D01*
X78407753Y-115436239D01*
X78473444Y-115638414D01*
X78569951Y-115827820D01*
X78694890Y-115999786D01*
X78845213Y-116150109D01*
X79017182Y-116275050D01*
X79025946Y-116279516D01*
X79076742Y-116327491D01*
X79093536Y-116395312D01*
X79070998Y-116461447D01*
X79025946Y-116500484D01*
X79017182Y-116504949D01*
X78845213Y-116629890D01*
X78694890Y-116780213D01*
X78569951Y-116952179D01*
X78473444Y-117141585D01*
X78407753Y-117343760D01*
X78374500Y-117553713D01*
X78374500Y-117766286D01*
X78407753Y-117976239D01*
X78473444Y-118178414D01*
X78569951Y-118367820D01*
X78694890Y-118539786D01*
X78845213Y-118690109D01*
X79017182Y-118815050D01*
X79025946Y-118819516D01*
X79076742Y-118867491D01*
X79093536Y-118935312D01*
X79070998Y-119001447D01*
X79025946Y-119040484D01*
X79017182Y-119044949D01*
X78845213Y-119169890D01*
X78694890Y-119320213D01*
X78569951Y-119492179D01*
X78473444Y-119681585D01*
X78407753Y-119883760D01*
X78374500Y-120093713D01*
X78374500Y-120306286D01*
X78407753Y-120516239D01*
X78473444Y-120718414D01*
X78569951Y-120907820D01*
X78694890Y-121079786D01*
X78845213Y-121230109D01*
X79017182Y-121355050D01*
X79025946Y-121359516D01*
X79076742Y-121407491D01*
X79093536Y-121475312D01*
X79070998Y-121541447D01*
X79025946Y-121580484D01*
X79017182Y-121584949D01*
X78845213Y-121709890D01*
X78694890Y-121860213D01*
X78569951Y-122032179D01*
X78473444Y-122221585D01*
X78407753Y-122423760D01*
X78374500Y-122633713D01*
X78374500Y-122846286D01*
X78407753Y-123056239D01*
X78473444Y-123258414D01*
X78569951Y-123447820D01*
X78694890Y-123619786D01*
X78845213Y-123770109D01*
X79017179Y-123895048D01*
X79017181Y-123895049D01*
X79017184Y-123895051D01*
X79026493Y-123899794D01*
X79077290Y-123947766D01*
X79094087Y-124015587D01*
X79071552Y-124081722D01*
X79026505Y-124120760D01*
X79017446Y-124125376D01*
X79017440Y-124125380D01*
X78963282Y-124164727D01*
X78963282Y-124164728D01*
X79595591Y-124797037D01*
X79532007Y-124814075D01*
X79417993Y-124879901D01*
X79324901Y-124972993D01*
X79259075Y-125087007D01*
X79242037Y-125150591D01*
X78609728Y-124518282D01*
X78609727Y-124518282D01*
X78570380Y-124572439D01*
X78473904Y-124761782D01*
X78408242Y-124963869D01*
X78408242Y-124963872D01*
X78375000Y-125173753D01*
X78375000Y-125386246D01*
X78408242Y-125596127D01*
X78408242Y-125596130D01*
X78473904Y-125798217D01*
X78570375Y-125987550D01*
X78609728Y-126041716D01*
X79242037Y-125409408D01*
X79259075Y-125472993D01*
X79324901Y-125587007D01*
X79417993Y-125680099D01*
X79532007Y-125745925D01*
X79595590Y-125762962D01*
X78963282Y-126395269D01*
X78963282Y-126395270D01*
X79017449Y-126434624D01*
X79206782Y-126531095D01*
X79408870Y-126596757D01*
X79618754Y-126630000D01*
X79831246Y-126630000D01*
X80041127Y-126596757D01*
X80041130Y-126596757D01*
X80243217Y-126531095D01*
X80432554Y-126434622D01*
X80486716Y-126395270D01*
X80486717Y-126395270D01*
X79854408Y-125762962D01*
X79917993Y-125745925D01*
X80032007Y-125680099D01*
X80125099Y-125587007D01*
X80190925Y-125472993D01*
X80207962Y-125409408D01*
X80840270Y-126041717D01*
X80840270Y-126041716D01*
X80879622Y-125987555D01*
X80884232Y-125978507D01*
X80932205Y-125927709D01*
X81000025Y-125910912D01*
X81066161Y-125933447D01*
X81105204Y-125978504D01*
X81109949Y-125987817D01*
X81234890Y-126159786D01*
X81385213Y-126310109D01*
X81557179Y-126435048D01*
X81557181Y-126435049D01*
X81557184Y-126435051D01*
X81746588Y-126531557D01*
X81948757Y-126597246D01*
X82158713Y-126630500D01*
X82158714Y-126630500D01*
X82371286Y-126630500D01*
X82371287Y-126630500D01*
X82581243Y-126597246D01*
X82783412Y-126531557D01*
X82972816Y-126435051D01*
X83027572Y-126395269D01*
X83144786Y-126310109D01*
X83144788Y-126310106D01*
X83144792Y-126310104D01*
X83295104Y-126159792D01*
X83295106Y-126159788D01*
X83295109Y-126159786D01*
X83420048Y-125987820D01*
X83420050Y-125987817D01*
X83420051Y-125987816D01*
X83516557Y-125798412D01*
X83582246Y-125596243D01*
X83615500Y-125386287D01*
X83615500Y-125173713D01*
X83582246Y-124963757D01*
X83558870Y-124891816D01*
X83556876Y-124821977D01*
X83592956Y-124762144D01*
X83655657Y-124731316D01*
X83676802Y-124729500D01*
X105578903Y-124729500D01*
X105645942Y-124749185D01*
X105666584Y-124765819D01*
X110863181Y-129962416D01*
X110896666Y-130023739D01*
X110899500Y-130050097D01*
X110899500Y-131114281D01*
X110879815Y-131181320D01*
X110831795Y-131224765D01*
X110792185Y-131244947D01*
X110792184Y-131244948D01*
X110620213Y-131369890D01*
X110469890Y-131520213D01*
X110344951Y-131692179D01*
X110248444Y-131881585D01*
X110182753Y-132083760D01*
X110149500Y-132293713D01*
X110149500Y-133706286D01*
X110182753Y-133916239D01*
X110248444Y-134118414D01*
X110344951Y-134307820D01*
X110469890Y-134479786D01*
X110620213Y-134630109D01*
X110792184Y-134755051D01*
X110792184Y-134755052D01*
X110831793Y-134775233D01*
X110882590Y-134823206D01*
X110899500Y-134885718D01*
X110899500Y-143614281D01*
X110879815Y-143681320D01*
X110831795Y-143724765D01*
X110792185Y-143744947D01*
X110792184Y-143744948D01*
X110620213Y-143869890D01*
X110469890Y-144020213D01*
X110344951Y-144192179D01*
X110248444Y-144381585D01*
X110182753Y-144583760D01*
X110149500Y-144793713D01*
X110149500Y-146206286D01*
X110182753Y-146416239D01*
X110248444Y-146618414D01*
X110344951Y-146807820D01*
X110469890Y-146979786D01*
X110620213Y-147130109D01*
X110792179Y-147255048D01*
X110792181Y-147255049D01*
X110792184Y-147255051D01*
X110981588Y-147351557D01*
X111183757Y-147417246D01*
X111393713Y-147450500D01*
X111393714Y-147450500D01*
X111606286Y-147450500D01*
X111606287Y-147450500D01*
X111816243Y-147417246D01*
X112018412Y-147351557D01*
X112207816Y-147255051D01*
X112229789Y-147239086D01*
X112379786Y-147130109D01*
X112379788Y-147130106D01*
X112379792Y-147130104D01*
X112530104Y-146979792D01*
X112530106Y-146979788D01*
X112530109Y-146979786D01*
X112655048Y-146807820D01*
X112655047Y-146807820D01*
X112655051Y-146807816D01*
X112751557Y-146618412D01*
X112817246Y-146416243D01*
X112850500Y-146206287D01*
X112850500Y-144793713D01*
X112817246Y-144583757D01*
X112751557Y-144381588D01*
X112655051Y-144192184D01*
X112655049Y-144192181D01*
X112655048Y-144192179D01*
X112530109Y-144020213D01*
X112379786Y-143869890D01*
X112207815Y-143744948D01*
X112207814Y-143744947D01*
X112168205Y-143724765D01*
X112117409Y-143676791D01*
X112100500Y-143614281D01*
X112100500Y-134885718D01*
X112120185Y-134818679D01*
X112168207Y-134775233D01*
X112207815Y-134755052D01*
X112207815Y-134755051D01*
X112207816Y-134755051D01*
X112299193Y-134688661D01*
X112379786Y-134630109D01*
X112379788Y-134630106D01*
X112379792Y-134630104D01*
X112530104Y-134479792D01*
X112530106Y-134479788D01*
X112530109Y-134479786D01*
X112655048Y-134307820D01*
X112655047Y-134307820D01*
X112655051Y-134307816D01*
X112751557Y-134118412D01*
X112817246Y-133916243D01*
X112850500Y-133706287D01*
X112850500Y-132293713D01*
X112817246Y-132083757D01*
X112751557Y-131881588D01*
X112655051Y-131692184D01*
X112655049Y-131692181D01*
X112655048Y-131692179D01*
X112530109Y-131520213D01*
X112379786Y-131369890D01*
X112207815Y-131244948D01*
X112207814Y-131244947D01*
X112168205Y-131224765D01*
X112117409Y-131176791D01*
X112100500Y-131114281D01*
X112100500Y-129670945D01*
X112100500Y-129670943D01*
X112059577Y-129518216D01*
X112059573Y-129518209D01*
X111980524Y-129381290D01*
X111980521Y-129381286D01*
X111980520Y-129381284D01*
X111868716Y-129269480D01*
X111868715Y-129269479D01*
X111864385Y-129265149D01*
X111864374Y-129265139D01*
X106366590Y-123767355D01*
X106366588Y-123767352D01*
X106247717Y-123648481D01*
X106247716Y-123648480D01*
X106160904Y-123598360D01*
X106160904Y-123598359D01*
X106160900Y-123598358D01*
X106110785Y-123569423D01*
X105958057Y-123528499D01*
X105799943Y-123528499D01*
X105792347Y-123528499D01*
X105792331Y-123528500D01*
X83581290Y-123528500D01*
X83514251Y-123508815D01*
X83468496Y-123456011D01*
X83458552Y-123386853D01*
X83470805Y-123348205D01*
X83516557Y-123258412D01*
X83582246Y-123056243D01*
X83615500Y-122846287D01*
X83615500Y-122633713D01*
X83582246Y-122423757D01*
X83516557Y-122221588D01*
X83420051Y-122032184D01*
X83420049Y-122032181D01*
X83420048Y-122032179D01*
X83295109Y-121860213D01*
X83144786Y-121709890D01*
X82972820Y-121584951D01*
X82972115Y-121584591D01*
X82964054Y-121580485D01*
X82913259Y-121532512D01*
X82896463Y-121464692D01*
X82918999Y-121398556D01*
X82964054Y-121359515D01*
X82972816Y-121355051D01*
X82994789Y-121339086D01*
X83144786Y-121230109D01*
X83144788Y-121230106D01*
X83144792Y-121230104D01*
X83295104Y-121079792D01*
X83295106Y-121079788D01*
X83295109Y-121079786D01*
X83420048Y-120907820D01*
X83420047Y-120907820D01*
X83420051Y-120907816D01*
X83516557Y-120718412D01*
X83582246Y-120516243D01*
X83615500Y-120306287D01*
X83615500Y-120093713D01*
X83582246Y-119883757D01*
X83516557Y-119681588D01*
X83420051Y-119492184D01*
X83420049Y-119492181D01*
X83420048Y-119492179D01*
X83295109Y-119320213D01*
X83144786Y-119169890D01*
X82972820Y-119044951D01*
X82972115Y-119044591D01*
X82964054Y-119040485D01*
X82913259Y-118992512D01*
X82896463Y-118924692D01*
X82918999Y-118858556D01*
X82964054Y-118819515D01*
X82972816Y-118815051D01*
X82994789Y-118799086D01*
X83144786Y-118690109D01*
X83144788Y-118690106D01*
X83144792Y-118690104D01*
X83295104Y-118539792D01*
X83295106Y-118539788D01*
X83295109Y-118539786D01*
X83420048Y-118367820D01*
X83420047Y-118367820D01*
X83420051Y-118367816D01*
X83516557Y-118178412D01*
X83582246Y-117976243D01*
X83615500Y-117766287D01*
X83615500Y-117553713D01*
X83582246Y-117343757D01*
X83516557Y-117141588D01*
X83420051Y-116952184D01*
X83420049Y-116952181D01*
X83420048Y-116952179D01*
X83295109Y-116780213D01*
X83144786Y-116629890D01*
X82972820Y-116504951D01*
X82972115Y-116504591D01*
X82964054Y-116500485D01*
X82913259Y-116452512D01*
X82896463Y-116384692D01*
X82918999Y-116318556D01*
X82964054Y-116279515D01*
X82972816Y-116275051D01*
X82994789Y-116259086D01*
X83144786Y-116150109D01*
X83144788Y-116150106D01*
X83144792Y-116150104D01*
X83295104Y-115999792D01*
X83295106Y-115999788D01*
X83295109Y-115999786D01*
X83420048Y-115827820D01*
X83420047Y-115827820D01*
X83420051Y-115827816D01*
X83516557Y-115638412D01*
X83582246Y-115436243D01*
X83615500Y-115226287D01*
X83615500Y-115013713D01*
X83582246Y-114803757D01*
X83516557Y-114601588D01*
X83420051Y-114412184D01*
X83420049Y-114412181D01*
X83420048Y-114412179D01*
X83295109Y-114240213D01*
X83144786Y-114089890D01*
X82972820Y-113964951D01*
X82972115Y-113964591D01*
X82964054Y-113960485D01*
X82913259Y-113912512D01*
X82896463Y-113844692D01*
X82918999Y-113778556D01*
X82964054Y-113739515D01*
X82972816Y-113735051D01*
X82994789Y-113719086D01*
X83144786Y-113610109D01*
X83144788Y-113610106D01*
X83144792Y-113610104D01*
X83295104Y-113459792D01*
X83295106Y-113459788D01*
X83295109Y-113459786D01*
X83420048Y-113287820D01*
X83420047Y-113287820D01*
X83420051Y-113287816D01*
X83516557Y-113098412D01*
X83582246Y-112896243D01*
X83615500Y-112686287D01*
X83615500Y-112473713D01*
X83582246Y-112263757D01*
X83516557Y-112061588D01*
X83420051Y-111872184D01*
X83420049Y-111872181D01*
X83420048Y-111872179D01*
X83295109Y-111700213D01*
X83144786Y-111549890D01*
X82972820Y-111424951D01*
X82972115Y-111424591D01*
X82964054Y-111420485D01*
X82913259Y-111372512D01*
X82896463Y-111304692D01*
X82918999Y-111238556D01*
X82964054Y-111199515D01*
X82972816Y-111195051D01*
X83015949Y-111163713D01*
X83144786Y-111070109D01*
X83144788Y-111070106D01*
X83144792Y-111070104D01*
X83295104Y-110919792D01*
X83295106Y-110919788D01*
X83295109Y-110919786D01*
X83404086Y-110769789D01*
X83420051Y-110747816D01*
X83516557Y-110558412D01*
X83582246Y-110356243D01*
X83615500Y-110146287D01*
X83615500Y-109933713D01*
X83582246Y-109723757D01*
X83516557Y-109521588D01*
X83420051Y-109332184D01*
X83420049Y-109332181D01*
X83420048Y-109332179D01*
X83295109Y-109160213D01*
X83144786Y-109009890D01*
X82972820Y-108884951D01*
X82972115Y-108884591D01*
X82964054Y-108880485D01*
X82913259Y-108832512D01*
X82896463Y-108764692D01*
X82918999Y-108698556D01*
X82964054Y-108659515D01*
X82972816Y-108655051D01*
X83015949Y-108623713D01*
X83144786Y-108530109D01*
X83144788Y-108530106D01*
X83144792Y-108530104D01*
X83295104Y-108379792D01*
X83295106Y-108379788D01*
X83295109Y-108379786D01*
X83404086Y-108229789D01*
X83420051Y-108207816D01*
X83516557Y-108018412D01*
X83582246Y-107816243D01*
X83615500Y-107606287D01*
X83615500Y-107393713D01*
X83582246Y-107183757D01*
X83516557Y-106981588D01*
X83420051Y-106792184D01*
X83420049Y-106792181D01*
X83420048Y-106792179D01*
X83295109Y-106620213D01*
X83144786Y-106469890D01*
X82972820Y-106344951D01*
X82972115Y-106344591D01*
X82964054Y-106340485D01*
X82913259Y-106292512D01*
X82896463Y-106224692D01*
X82918999Y-106158556D01*
X82964054Y-106119515D01*
X82972816Y-106115051D01*
X83015949Y-106083713D01*
X83144786Y-105990109D01*
X83144788Y-105990106D01*
X83144792Y-105990104D01*
X83295104Y-105839792D01*
X83295106Y-105839788D01*
X83295109Y-105839786D01*
X83404086Y-105689789D01*
X83420051Y-105667816D01*
X83516557Y-105478412D01*
X83582246Y-105276243D01*
X83615500Y-105066287D01*
X83615500Y-104853713D01*
X83582246Y-104643757D01*
X83516557Y-104441588D01*
X83420051Y-104252184D01*
X83420049Y-104252181D01*
X83420048Y-104252179D01*
X83295109Y-104080213D01*
X83144786Y-103929890D01*
X82972820Y-103804951D01*
X82972115Y-103804591D01*
X82964054Y-103800485D01*
X82913259Y-103752512D01*
X82896463Y-103684692D01*
X82918999Y-103618556D01*
X82964054Y-103579515D01*
X82972816Y-103575051D01*
X82994789Y-103559086D01*
X83144786Y-103450109D01*
X83144788Y-103450106D01*
X83144792Y-103450104D01*
X83295104Y-103299792D01*
X83295106Y-103299788D01*
X83295109Y-103299786D01*
X83420048Y-103127820D01*
X83420047Y-103127820D01*
X83420051Y-103127816D01*
X83516557Y-102938412D01*
X83582246Y-102736243D01*
X83615500Y-102526287D01*
X83615500Y-102313713D01*
X83582246Y-102103757D01*
X83516557Y-101901588D01*
X83470804Y-101811794D01*
X83457909Y-101743126D01*
X83484185Y-101678385D01*
X83541291Y-101638128D01*
X83581290Y-101631500D01*
X96015242Y-101631500D01*
X96082281Y-101651185D01*
X96102923Y-101667819D01*
X96235213Y-101800109D01*
X96407182Y-101925050D01*
X96415946Y-101929516D01*
X96466742Y-101977491D01*
X96483536Y-102045312D01*
X96460998Y-102111447D01*
X96415946Y-102150484D01*
X96407182Y-102154949D01*
X96235213Y-102279890D01*
X96084890Y-102430213D01*
X95959951Y-102602179D01*
X95863444Y-102791585D01*
X95797753Y-102993760D01*
X95764500Y-103203713D01*
X95764500Y-103416286D01*
X95797753Y-103626239D01*
X95797753Y-103626241D01*
X95797754Y-103626243D01*
X95855819Y-103804949D01*
X95863444Y-103828414D01*
X95959951Y-104017820D01*
X96084890Y-104189786D01*
X96235213Y-104340109D01*
X96407179Y-104465048D01*
X96407181Y-104465049D01*
X96407184Y-104465051D01*
X96596588Y-104561557D01*
X96798757Y-104627246D01*
X97008713Y-104660500D01*
X97008714Y-104660500D01*
X97221286Y-104660500D01*
X97221287Y-104660500D01*
X97431243Y-104627246D01*
X97473523Y-104613507D01*
X97543362Y-104611511D01*
X97599522Y-104643757D01*
X115863181Y-122907416D01*
X115896666Y-122968739D01*
X115899500Y-122995097D01*
X115899500Y-131114281D01*
X115879815Y-131181320D01*
X115831795Y-131224765D01*
X115792185Y-131244947D01*
X115792184Y-131244948D01*
X115620213Y-131369890D01*
X115469890Y-131520213D01*
X115344951Y-131692179D01*
X115248444Y-131881585D01*
X115182753Y-132083760D01*
X115149500Y-132293713D01*
X115149500Y-133706286D01*
X115182753Y-133916239D01*
X115248444Y-134118414D01*
X115344951Y-134307820D01*
X115469890Y-134479786D01*
X115620213Y-134630109D01*
X115792184Y-134755051D01*
X115792184Y-134755052D01*
X115831793Y-134775233D01*
X115882590Y-134823206D01*
X115899500Y-134885718D01*
X115899500Y-143614281D01*
X115879815Y-143681320D01*
X115831795Y-143724765D01*
X115792185Y-143744947D01*
X115792184Y-143744948D01*
X115620213Y-143869890D01*
X115469890Y-144020213D01*
X115344951Y-144192179D01*
X115248444Y-144381585D01*
X115182753Y-144583760D01*
X115149500Y-144793713D01*
X115149500Y-146206286D01*
X115182753Y-146416239D01*
X115248444Y-146618414D01*
X115344951Y-146807820D01*
X115469890Y-146979786D01*
X115620213Y-147130109D01*
X115792179Y-147255048D01*
X115792181Y-147255049D01*
X115792184Y-147255051D01*
X115981588Y-147351557D01*
X116183757Y-147417246D01*
X116393713Y-147450500D01*
X116393714Y-147450500D01*
X116606286Y-147450500D01*
X116606287Y-147450500D01*
X116816243Y-147417246D01*
X117018412Y-147351557D01*
X117207816Y-147255051D01*
X117229789Y-147239086D01*
X117379786Y-147130109D01*
X117379788Y-147130106D01*
X117379792Y-147130104D01*
X117530104Y-146979792D01*
X117530106Y-146979788D01*
X117530109Y-146979786D01*
X117655048Y-146807820D01*
X117655047Y-146807820D01*
X117655051Y-146807816D01*
X117751557Y-146618412D01*
X117817246Y-146416243D01*
X117850500Y-146206287D01*
X117850500Y-144793713D01*
X117817246Y-144583757D01*
X117751557Y-144381588D01*
X117655051Y-144192184D01*
X117655049Y-144192181D01*
X117655048Y-144192179D01*
X117530109Y-144020213D01*
X117379786Y-143869890D01*
X117207815Y-143744948D01*
X117207814Y-143744947D01*
X117168205Y-143724765D01*
X117117409Y-143676791D01*
X117100500Y-143614281D01*
X117100500Y-139159448D01*
X117349500Y-139159448D01*
X117349500Y-139340551D01*
X117377829Y-139519410D01*
X117433787Y-139691636D01*
X117433788Y-139691639D01*
X117516006Y-139852997D01*
X117622441Y-139999494D01*
X117622445Y-139999499D01*
X117750500Y-140127554D01*
X117750505Y-140127558D01*
X117878287Y-140220396D01*
X117897006Y-140233996D01*
X118002484Y-140287740D01*
X118058360Y-140316211D01*
X118058363Y-140316212D01*
X118144476Y-140344191D01*
X118230591Y-140372171D01*
X118313429Y-140385291D01*
X118409449Y-140400500D01*
X118409454Y-140400500D01*
X118590551Y-140400500D01*
X118677259Y-140386765D01*
X118769409Y-140372171D01*
X118941639Y-140316211D01*
X119102994Y-140233996D01*
X119249501Y-140127553D01*
X119377553Y-139999501D01*
X119483996Y-139852994D01*
X119566211Y-139691639D01*
X119622171Y-139519409D01*
X119636765Y-139427259D01*
X119650500Y-139340551D01*
X119650500Y-139159448D01*
X119634019Y-139055397D01*
X119622171Y-138980591D01*
X119566211Y-138808361D01*
X119566211Y-138808360D01*
X119537740Y-138752484D01*
X119483996Y-138647006D01*
X119470396Y-138628287D01*
X119377558Y-138500505D01*
X119377554Y-138500500D01*
X119249499Y-138372445D01*
X119249494Y-138372441D01*
X119102997Y-138266006D01*
X119102996Y-138266005D01*
X119102994Y-138266004D01*
X119051300Y-138239664D01*
X118941639Y-138183788D01*
X118941636Y-138183787D01*
X118769410Y-138127829D01*
X118590551Y-138099500D01*
X118590546Y-138099500D01*
X118409454Y-138099500D01*
X118409449Y-138099500D01*
X118230589Y-138127829D01*
X118058363Y-138183787D01*
X118058360Y-138183788D01*
X117897002Y-138266006D01*
X117750505Y-138372441D01*
X117750500Y-138372445D01*
X117622445Y-138500500D01*
X117622441Y-138500505D01*
X117516006Y-138647002D01*
X117433788Y-138808360D01*
X117433787Y-138808363D01*
X117377829Y-138980589D01*
X117349500Y-139159448D01*
X117100500Y-139159448D01*
X117100500Y-134885718D01*
X117120185Y-134818679D01*
X117168207Y-134775233D01*
X117207815Y-134755052D01*
X117207815Y-134755051D01*
X117207816Y-134755051D01*
X117299193Y-134688661D01*
X117379786Y-134630109D01*
X117379788Y-134630106D01*
X117379792Y-134630104D01*
X117530104Y-134479792D01*
X117530106Y-134479788D01*
X117530109Y-134479786D01*
X117655048Y-134307820D01*
X117655047Y-134307820D01*
X117655051Y-134307816D01*
X117751557Y-134118412D01*
X117817246Y-133916243D01*
X117850500Y-133706287D01*
X117850500Y-132293713D01*
X117817246Y-132083757D01*
X117751557Y-131881588D01*
X117655051Y-131692184D01*
X117655049Y-131692181D01*
X117655048Y-131692179D01*
X117530109Y-131520213D01*
X117379786Y-131369890D01*
X117207815Y-131244948D01*
X117207814Y-131244947D01*
X117168205Y-131224765D01*
X117117409Y-131176791D01*
X117100500Y-131114281D01*
X117100500Y-122784059D01*
X117100501Y-122784046D01*
X117100501Y-122615945D01*
X117100501Y-122615943D01*
X117059577Y-122463215D01*
X117030639Y-122413095D01*
X116980520Y-122326284D01*
X116868716Y-122214480D01*
X116868715Y-122214479D01*
X116864385Y-122210149D01*
X116864374Y-122210139D01*
X98448757Y-103794522D01*
X98415272Y-103733199D01*
X98418507Y-103668523D01*
X98432246Y-103626243D01*
X98465500Y-103416287D01*
X98465500Y-103203713D01*
X98432246Y-102993757D01*
X98366557Y-102791588D01*
X98270051Y-102602184D01*
X98270049Y-102602181D01*
X98270048Y-102602179D01*
X98145109Y-102430213D01*
X97994786Y-102279890D01*
X97822820Y-102154951D01*
X97822115Y-102154591D01*
X97814054Y-102150485D01*
X97763259Y-102102512D01*
X97746463Y-102034692D01*
X97768999Y-101968556D01*
X97814054Y-101929515D01*
X97822816Y-101925051D01*
X97978701Y-101811795D01*
X97994786Y-101800109D01*
X97994788Y-101800106D01*
X97994792Y-101800104D01*
X98145104Y-101649792D01*
X98145106Y-101649788D01*
X98145109Y-101649786D01*
X98270048Y-101477820D01*
X98270047Y-101477820D01*
X98270051Y-101477816D01*
X98366557Y-101288412D01*
X98432246Y-101086243D01*
X98465500Y-100876287D01*
X98465500Y-100663713D01*
X98432246Y-100453757D01*
X98366557Y-100251588D01*
X98270051Y-100062184D01*
X98270049Y-100062181D01*
X98270048Y-100062179D01*
X98145109Y-99890213D01*
X97994786Y-99739890D01*
X97822820Y-99614951D01*
X97822115Y-99614591D01*
X97814054Y-99610485D01*
X97763259Y-99562512D01*
X97746463Y-99494692D01*
X97768999Y-99428556D01*
X97814054Y-99389515D01*
X97822816Y-99385051D01*
X97855114Y-99361585D01*
X97994786Y-99260109D01*
X97994788Y-99260106D01*
X97994792Y-99260104D01*
X98145104Y-99109792D01*
X98145106Y-99109788D01*
X98145109Y-99109786D01*
X98270048Y-98937820D01*
X98270047Y-98937820D01*
X98270051Y-98937816D01*
X98366557Y-98748412D01*
X98432246Y-98546243D01*
X98465500Y-98336287D01*
X98465500Y-98123713D01*
X98432246Y-97913757D01*
X98366557Y-97711588D01*
X98270051Y-97522184D01*
X98270049Y-97522181D01*
X98270048Y-97522179D01*
X98145109Y-97350213D01*
X98031181Y-97236285D01*
X97997696Y-97174962D01*
X98002680Y-97105270D01*
X98044552Y-97049337D01*
X98075529Y-97032422D01*
X98207086Y-96983354D01*
X98207093Y-96983350D01*
X98322187Y-96897190D01*
X98322190Y-96897187D01*
X98408350Y-96782093D01*
X98408354Y-96782086D01*
X98458596Y-96647379D01*
X98458598Y-96647372D01*
X98464999Y-96587844D01*
X98465000Y-96587827D01*
X98465000Y-95940000D01*
X97548012Y-95940000D01*
X97580925Y-95882993D01*
X97615000Y-95755826D01*
X97615000Y-95624174D01*
X97580925Y-95497007D01*
X97548012Y-95440000D01*
X98465000Y-95440000D01*
X98465000Y-94792172D01*
X98464999Y-94792155D01*
X98458598Y-94732627D01*
X98458596Y-94732620D01*
X98408354Y-94597913D01*
X98408350Y-94597906D01*
X98322190Y-94482812D01*
X98322187Y-94482809D01*
X98207093Y-94396649D01*
X98207086Y-94396645D01*
X98072379Y-94346403D01*
X98072372Y-94346401D01*
X98012844Y-94340000D01*
X97365000Y-94340000D01*
X97365000Y-95256988D01*
X97307993Y-95224075D01*
X97180826Y-95190000D01*
X97049174Y-95190000D01*
X96922007Y-95224075D01*
X96865000Y-95256988D01*
X96865000Y-94340000D01*
X96217155Y-94340000D01*
X96157627Y-94346401D01*
X96157620Y-94346403D01*
X96022913Y-94396645D01*
X96022906Y-94396649D01*
X95907812Y-94482809D01*
X95907809Y-94482812D01*
X95821649Y-94597906D01*
X95821645Y-94597913D01*
X95771403Y-94732620D01*
X95771401Y-94732627D01*
X95765000Y-94792155D01*
X95765000Y-95440000D01*
X96681988Y-95440000D01*
X96649075Y-95497007D01*
X96615000Y-95624174D01*
X96615000Y-95755826D01*
X96649075Y-95882993D01*
X96681988Y-95940000D01*
X95765000Y-95940000D01*
X95765000Y-96587844D01*
X95771401Y-96647372D01*
X95771403Y-96647379D01*
X95821645Y-96782086D01*
X95821649Y-96782093D01*
X95907809Y-96897187D01*
X95907812Y-96897190D01*
X96022906Y-96983350D01*
X96022913Y-96983354D01*
X96154470Y-97032422D01*
X96210404Y-97074293D01*
X96234821Y-97139758D01*
X96219969Y-97208031D01*
X96198819Y-97236285D01*
X96084889Y-97350215D01*
X95959948Y-97522184D01*
X95959947Y-97522185D01*
X95939765Y-97561795D01*
X95891791Y-97612591D01*
X95829281Y-97629500D01*
X83731668Y-97629500D01*
X83664629Y-97609815D01*
X83618874Y-97557011D01*
X83608930Y-97487853D01*
X83609195Y-97486103D01*
X83615500Y-97446293D01*
X83615500Y-97233713D01*
X83590250Y-97074293D01*
X83582246Y-97023757D01*
X83516557Y-96821588D01*
X83420051Y-96632184D01*
X83420049Y-96632181D01*
X83420048Y-96632179D01*
X83295109Y-96460213D01*
X83144786Y-96309890D01*
X82972820Y-96184951D01*
X82972115Y-96184591D01*
X82964054Y-96180485D01*
X82913259Y-96132512D01*
X82896463Y-96064692D01*
X82918999Y-95998556D01*
X82964054Y-95959515D01*
X82972816Y-95955051D01*
X83071996Y-95882993D01*
X83144786Y-95830109D01*
X83144788Y-95830106D01*
X83144792Y-95830104D01*
X83295104Y-95679792D01*
X83295106Y-95679788D01*
X83295109Y-95679786D01*
X83420048Y-95507820D01*
X83420047Y-95507820D01*
X83420051Y-95507816D01*
X83516557Y-95318412D01*
X83582246Y-95116243D01*
X83615500Y-94906287D01*
X83615500Y-94693713D01*
X83582246Y-94483757D01*
X83516557Y-94281588D01*
X83420051Y-94092184D01*
X83420049Y-94092181D01*
X83420048Y-94092179D01*
X83295109Y-93920213D01*
X83144786Y-93769890D01*
X82972817Y-93644949D01*
X82963504Y-93640204D01*
X82912707Y-93592230D01*
X82895912Y-93524409D01*
X82918449Y-93458274D01*
X82963507Y-93419232D01*
X82972555Y-93414622D01*
X83026716Y-93375270D01*
X83026717Y-93375270D01*
X82394408Y-92742962D01*
X82457993Y-92725925D01*
X82572007Y-92660099D01*
X82665099Y-92567007D01*
X82730925Y-92452993D01*
X82747962Y-92389408D01*
X83380270Y-93021717D01*
X83380270Y-93021716D01*
X83419622Y-92967554D01*
X83516095Y-92778217D01*
X83581757Y-92576130D01*
X83581757Y-92576127D01*
X83615000Y-92366246D01*
X83615000Y-92153753D01*
X83581757Y-91943872D01*
X83581757Y-91943869D01*
X83516095Y-91741782D01*
X83419624Y-91552449D01*
X83380270Y-91498282D01*
X83380269Y-91498282D01*
X82747962Y-92130590D01*
X82730925Y-92067007D01*
X82665099Y-91952993D01*
X82572007Y-91859901D01*
X82457993Y-91794075D01*
X82394409Y-91777037D01*
X83026716Y-91144728D01*
X82972547Y-91105373D01*
X82972547Y-91105372D01*
X82963500Y-91100763D01*
X82912706Y-91052788D01*
X82895912Y-90984966D01*
X82918451Y-90918832D01*
X82963508Y-90879793D01*
X82972816Y-90875051D01*
X83083299Y-90794781D01*
X83144786Y-90750109D01*
X83144788Y-90750106D01*
X83144792Y-90750104D01*
X83295104Y-90599792D01*
X83295106Y-90599788D01*
X83295109Y-90599786D01*
X83420048Y-90427820D01*
X83420047Y-90427820D01*
X83420051Y-90427816D01*
X83516557Y-90238412D01*
X83582246Y-90036243D01*
X83615500Y-89826287D01*
X83615500Y-89613713D01*
X83582246Y-89403757D01*
X83516557Y-89201588D01*
X83420051Y-89012184D01*
X83420049Y-89012181D01*
X83420048Y-89012179D01*
X83295109Y-88840213D01*
X83144786Y-88689890D01*
X82972820Y-88564951D01*
X82783414Y-88468444D01*
X82783413Y-88468443D01*
X82783412Y-88468443D01*
X82581243Y-88402754D01*
X82581241Y-88402753D01*
X82581240Y-88402753D01*
X82419957Y-88377208D01*
X82371287Y-88369500D01*
X82158713Y-88369500D01*
X82110042Y-88377208D01*
X81948760Y-88402753D01*
X81746585Y-88468444D01*
X81557179Y-88564951D01*
X81385215Y-88689889D01*
X81271673Y-88803431D01*
X81210350Y-88836915D01*
X81140658Y-88831931D01*
X81084725Y-88790059D01*
X81067810Y-88759082D01*
X81018797Y-88627671D01*
X81018793Y-88627664D01*
X80932547Y-88512455D01*
X80932544Y-88512452D01*
X80817335Y-88426206D01*
X80817328Y-88426202D01*
X80682482Y-88375908D01*
X80682483Y-88375908D01*
X80622883Y-88369501D01*
X80622881Y-88369500D01*
X80622873Y-88369500D01*
X80622864Y-88369500D01*
X78827129Y-88369500D01*
X78827123Y-88369501D01*
X78767516Y-88375908D01*
X78632671Y-88426202D01*
X78632664Y-88426206D01*
X78517455Y-88512452D01*
X78517452Y-88512455D01*
X78431206Y-88627664D01*
X78431202Y-88627671D01*
X78380908Y-88762517D01*
X78374501Y-88822116D01*
X78374500Y-88822135D01*
X78374500Y-90617870D01*
X78374501Y-90617876D01*
X78380908Y-90677483D01*
X78431202Y-90812328D01*
X78431206Y-90812335D01*
X78517452Y-90927544D01*
X78517455Y-90927547D01*
X78632664Y-91013793D01*
X78632671Y-91013797D01*
X78764082Y-91062810D01*
X78820016Y-91104681D01*
X78844433Y-91170145D01*
X78829582Y-91238418D01*
X78808431Y-91266673D01*
X78694889Y-91380215D01*
X78569951Y-91552179D01*
X78473444Y-91741585D01*
X78407753Y-91943760D01*
X78374500Y-92153713D01*
X78374500Y-92366286D01*
X78407735Y-92576127D01*
X78407754Y-92576243D01*
X78442047Y-92681787D01*
X78473444Y-92778414D01*
X78569951Y-92967820D01*
X78694890Y-93139786D01*
X78845213Y-93290109D01*
X79017182Y-93415050D01*
X79025946Y-93419516D01*
X79076742Y-93467491D01*
X79093536Y-93535312D01*
X79070998Y-93601447D01*
X79025946Y-93640484D01*
X79017182Y-93644949D01*
X78845213Y-93769890D01*
X78694890Y-93920213D01*
X78569951Y-94092179D01*
X78473444Y-94281585D01*
X78407753Y-94483760D01*
X78374500Y-94693713D01*
X78374500Y-94840903D01*
X78354815Y-94907942D01*
X78302011Y-94953697D01*
X78232853Y-94963641D01*
X78169297Y-94934616D01*
X78162819Y-94928584D01*
X74872590Y-91638355D01*
X74872588Y-91638352D01*
X74753717Y-91519481D01*
X74753716Y-91519480D01*
X74666904Y-91469360D01*
X74666904Y-91469359D01*
X74666900Y-91469358D01*
X74616785Y-91440423D01*
X74464057Y-91399499D01*
X74305943Y-91399499D01*
X74298347Y-91399499D01*
X74298331Y-91399500D01*
X66539602Y-91399500D01*
X66472563Y-91379815D01*
X66429117Y-91331795D01*
X66422284Y-91318385D01*
X66301971Y-91152786D01*
X66157213Y-91008028D01*
X65991613Y-90887715D01*
X65991612Y-90887714D01*
X65991610Y-90887713D01*
X65934653Y-90858691D01*
X65809223Y-90794781D01*
X65614534Y-90731522D01*
X65439995Y-90703878D01*
X65412352Y-90699500D01*
X65207648Y-90699500D01*
X65183329Y-90703351D01*
X65005465Y-90731522D01*
X64810776Y-90794781D01*
X64628386Y-90887715D01*
X64462786Y-91008028D01*
X64318028Y-91152786D01*
X64197715Y-91318386D01*
X64104781Y-91500776D01*
X64041522Y-91695465D01*
X64009500Y-91897648D01*
X64009500Y-92102351D01*
X64041522Y-92304534D01*
X64104781Y-92499223D01*
X64197715Y-92681613D01*
X64318028Y-92847213D01*
X64462786Y-92991971D01*
X64617749Y-93104556D01*
X64628390Y-93112287D01*
X64744607Y-93171503D01*
X64810776Y-93205218D01*
X64810778Y-93205218D01*
X64810781Y-93205220D01*
X64915137Y-93239127D01*
X65005465Y-93268477D01*
X65106557Y-93284488D01*
X65207648Y-93300500D01*
X65207649Y-93300500D01*
X65412351Y-93300500D01*
X65412352Y-93300500D01*
X65614534Y-93268477D01*
X65809219Y-93205220D01*
X65991610Y-93112287D01*
X66116270Y-93021717D01*
X66157213Y-92991971D01*
X66157215Y-92991968D01*
X66157219Y-92991966D01*
X66301966Y-92847219D01*
X66301968Y-92847215D01*
X66301971Y-92847213D01*
X66422284Y-92681614D01*
X66422285Y-92681613D01*
X66422287Y-92681610D01*
X66429117Y-92668204D01*
X66477091Y-92617409D01*
X66539602Y-92600500D01*
X74084903Y-92600500D01*
X74151942Y-92620185D01*
X74172584Y-92636819D01*
X78391241Y-96855476D01*
X78424726Y-96916799D01*
X78421492Y-96981473D01*
X78407753Y-97023757D01*
X78374500Y-97233713D01*
X78374500Y-97446286D01*
X78407753Y-97656240D01*
X78434053Y-97737182D01*
X78436048Y-97807023D01*
X78399968Y-97866856D01*
X78337267Y-97897684D01*
X78316122Y-97899500D01*
X77396670Y-97899500D01*
X77396654Y-97899499D01*
X77389058Y-97899499D01*
X77230943Y-97899499D01*
X77154579Y-97919961D01*
X77078214Y-97940423D01*
X77078209Y-97940426D01*
X76941290Y-98019475D01*
X76941282Y-98019481D01*
X65254842Y-109705921D01*
X65193519Y-109739406D01*
X65128848Y-109736173D01*
X65114534Y-109731522D01*
X64939995Y-109703878D01*
X64912352Y-109699500D01*
X64707648Y-109699500D01*
X64683329Y-109703351D01*
X64505465Y-109731522D01*
X64310776Y-109794781D01*
X64128386Y-109887715D01*
X63962786Y-110008028D01*
X63818028Y-110152786D01*
X63697715Y-110318386D01*
X63604781Y-110500776D01*
X63541522Y-110695465D01*
X63509500Y-110897648D01*
X58490500Y-110897648D01*
X58458477Y-110695466D01*
X58458000Y-110693999D01*
X58413945Y-110558412D01*
X58395220Y-110500781D01*
X58395218Y-110500778D01*
X58395218Y-110500776D01*
X58361503Y-110434607D01*
X58302287Y-110318390D01*
X58294556Y-110307749D01*
X58181971Y-110152786D01*
X58037213Y-110008028D01*
X57871613Y-109887715D01*
X57871612Y-109887714D01*
X57871610Y-109887713D01*
X57814653Y-109858691D01*
X57689223Y-109794781D01*
X57494534Y-109731522D01*
X57319995Y-109703878D01*
X57292352Y-109699500D01*
X57087648Y-109699500D01*
X57063329Y-109703351D01*
X56885465Y-109731522D01*
X56690776Y-109794781D01*
X56508386Y-109887715D01*
X56342786Y-110008028D01*
X56198028Y-110152786D01*
X56077715Y-110318386D01*
X55984778Y-110500783D01*
X55957799Y-110583818D01*
X55918362Y-110641494D01*
X55854003Y-110668692D01*
X55839868Y-110669500D01*
X42785719Y-110669500D01*
X42718680Y-110649815D01*
X42675235Y-110601795D01*
X42655052Y-110562185D01*
X42655051Y-110562184D01*
X42530109Y-110390213D01*
X42379786Y-110239890D01*
X42207820Y-110114951D01*
X42207115Y-110114591D01*
X42199054Y-110110485D01*
X42148259Y-110062512D01*
X42131463Y-109994692D01*
X42153999Y-109928556D01*
X42199054Y-109889515D01*
X42207816Y-109885051D01*
X42332063Y-109794781D01*
X42379786Y-109760109D01*
X42379788Y-109760106D01*
X42379792Y-109760104D01*
X42530104Y-109609792D01*
X42530106Y-109609788D01*
X42530109Y-109609786D01*
X42655048Y-109437820D01*
X42655047Y-109437820D01*
X42655051Y-109437816D01*
X42751557Y-109248412D01*
X42817246Y-109046243D01*
X42850500Y-108836287D01*
X42850500Y-108623713D01*
X42817246Y-108413757D01*
X42803506Y-108371473D01*
X42801512Y-108301635D01*
X42833755Y-108245478D01*
X57747686Y-93331549D01*
X57809007Y-93298066D01*
X57815943Y-93296763D01*
X57994534Y-93268477D01*
X58189219Y-93205220D01*
X58371610Y-93112287D01*
X58496270Y-93021717D01*
X58537213Y-92991971D01*
X58537215Y-92991968D01*
X58537219Y-92991966D01*
X58681966Y-92847219D01*
X58681968Y-92847215D01*
X58681971Y-92847213D01*
X58745334Y-92760000D01*
X58802287Y-92681610D01*
X58895220Y-92499219D01*
X58958477Y-92304534D01*
X58990500Y-92102352D01*
X58990500Y-91897648D01*
X58958477Y-91695466D01*
X58895220Y-91500781D01*
X58895218Y-91500778D01*
X58895218Y-91500776D01*
X58861503Y-91434607D01*
X58802287Y-91318390D01*
X58764713Y-91266673D01*
X58681971Y-91152786D01*
X58537213Y-91008028D01*
X58371613Y-90887715D01*
X58371612Y-90887714D01*
X58371610Y-90887713D01*
X58314653Y-90858691D01*
X58189223Y-90794781D01*
X57994534Y-90731522D01*
X57819995Y-90703878D01*
X57792352Y-90699500D01*
X57587648Y-90699500D01*
X57563329Y-90703351D01*
X57385465Y-90731522D01*
X57190776Y-90794781D01*
X57008386Y-90887715D01*
X56842786Y-91008028D01*
X56698028Y-91152786D01*
X56577715Y-91318386D01*
X56484781Y-91500776D01*
X56421522Y-91695465D01*
X56389500Y-91897648D01*
X56389500Y-92102351D01*
X56421522Y-92304534D01*
X56484781Y-92499223D01*
X56577803Y-92681787D01*
X56590699Y-92750456D01*
X56564423Y-92815197D01*
X56554999Y-92825763D01*
X43062181Y-106318582D01*
X43000858Y-106352067D01*
X42931166Y-106347083D01*
X42875233Y-106305211D01*
X42850816Y-106239747D01*
X42850500Y-106230901D01*
X42850500Y-106083713D01*
X42835674Y-105990109D01*
X42817246Y-105873757D01*
X42751557Y-105671588D01*
X42655051Y-105482184D01*
X42655049Y-105482181D01*
X42655048Y-105482179D01*
X42530109Y-105310213D01*
X42379786Y-105159890D01*
X42207820Y-105034951D01*
X42018414Y-104938444D01*
X42018413Y-104938443D01*
X42018412Y-104938443D01*
X41816243Y-104872754D01*
X41816241Y-104872753D01*
X41816240Y-104872753D01*
X41654957Y-104847208D01*
X41606287Y-104839500D01*
X41393713Y-104839500D01*
X41345042Y-104847208D01*
X41183760Y-104872753D01*
X40981585Y-104938444D01*
X40792179Y-105034951D01*
X40620213Y-105159890D01*
X40469890Y-105310213D01*
X40344951Y-105482179D01*
X40248444Y-105671585D01*
X40182753Y-105873760D01*
X40149500Y-106083713D01*
X35000500Y-106083713D01*
X35000500Y-71878711D01*
X36649500Y-71878711D01*
X36649500Y-72121288D01*
X36681161Y-72361785D01*
X36743947Y-72596104D01*
X36796400Y-72722736D01*
X36836776Y-72820212D01*
X36958064Y-73030289D01*
X36958066Y-73030292D01*
X36958067Y-73030293D01*
X37105733Y-73222736D01*
X37105739Y-73222743D01*
X37277256Y-73394260D01*
X37277262Y-73394265D01*
X37469711Y-73541936D01*
X37679788Y-73663224D01*
X37903900Y-73756054D01*
X38138211Y-73818838D01*
X38318586Y-73842584D01*
X38378711Y-73850500D01*
X38378712Y-73850500D01*
X38621289Y-73850500D01*
X38669388Y-73844167D01*
X38861789Y-73818838D01*
X39096100Y-73756054D01*
X39320212Y-73663224D01*
X39530289Y-73541936D01*
X39722738Y-73394265D01*
X39894265Y-73222738D01*
X40041936Y-73030289D01*
X40163224Y-72820212D01*
X40256054Y-72596100D01*
X40318838Y-72361789D01*
X40350500Y-72121288D01*
X40350500Y-71878712D01*
X40318838Y-71638211D01*
X40256054Y-71403900D01*
X40245620Y-71378711D01*
X120649500Y-71378711D01*
X120649500Y-71621288D01*
X120681161Y-71861785D01*
X120743947Y-72096104D01*
X120754379Y-72121288D01*
X120836776Y-72320212D01*
X120958064Y-72530289D01*
X120958066Y-72530292D01*
X120958067Y-72530293D01*
X121105733Y-72722736D01*
X121105739Y-72722743D01*
X121277256Y-72894260D01*
X121277262Y-72894265D01*
X121469711Y-73041936D01*
X121679788Y-73163224D01*
X121903900Y-73256054D01*
X122138211Y-73318838D01*
X122318586Y-73342584D01*
X122378711Y-73350500D01*
X122378712Y-73350500D01*
X122621289Y-73350500D01*
X122669388Y-73344167D01*
X122861789Y-73318838D01*
X123096100Y-73256054D01*
X123320212Y-73163224D01*
X123530289Y-73041936D01*
X123722738Y-72894265D01*
X123894265Y-72722738D01*
X124041936Y-72530289D01*
X124163224Y-72320212D01*
X124256054Y-72096100D01*
X124318838Y-71861789D01*
X124350500Y-71621288D01*
X124350500Y-71378712D01*
X124318838Y-71138211D01*
X124256054Y-70903900D01*
X124163224Y-70679788D01*
X124041936Y-70469711D01*
X123894265Y-70277262D01*
X123894260Y-70277256D01*
X123722743Y-70105739D01*
X123722736Y-70105733D01*
X123530293Y-69958067D01*
X123530292Y-69958066D01*
X123530289Y-69958064D01*
X123320212Y-69836776D01*
X123320205Y-69836773D01*
X123096104Y-69743947D01*
X122861785Y-69681161D01*
X122621289Y-69649500D01*
X122621288Y-69649500D01*
X122378712Y-69649500D01*
X122378711Y-69649500D01*
X122138214Y-69681161D01*
X121903895Y-69743947D01*
X121679794Y-69836773D01*
X121679785Y-69836777D01*
X121469706Y-69958067D01*
X121277263Y-70105733D01*
X121277256Y-70105739D01*
X121105739Y-70277256D01*
X121105733Y-70277263D01*
X120958067Y-70469706D01*
X120836777Y-70679785D01*
X120836773Y-70679794D01*
X120743947Y-70903895D01*
X120681161Y-71138214D01*
X120649500Y-71378711D01*
X40245620Y-71378711D01*
X40163226Y-71179794D01*
X40163224Y-71179788D01*
X40041936Y-70969711D01*
X39894265Y-70777262D01*
X39894260Y-70777256D01*
X39722743Y-70605739D01*
X39722736Y-70605733D01*
X39530293Y-70458067D01*
X39530292Y-70458066D01*
X39530289Y-70458064D01*
X39320212Y-70336776D01*
X39320205Y-70336773D01*
X39096104Y-70243947D01*
X38861785Y-70181161D01*
X38621289Y-70149500D01*
X38621288Y-70149500D01*
X38378712Y-70149500D01*
X38378711Y-70149500D01*
X38138214Y-70181161D01*
X37903895Y-70243947D01*
X37679794Y-70336773D01*
X37679785Y-70336777D01*
X37469706Y-70458067D01*
X37277263Y-70605733D01*
X37277256Y-70605739D01*
X37105739Y-70777256D01*
X37105733Y-70777263D01*
X36958067Y-70969706D01*
X36836777Y-71179785D01*
X36836773Y-71179794D01*
X36743947Y-71403895D01*
X36681161Y-71638214D01*
X36649500Y-71878711D01*
X35000500Y-71878711D01*
X35000500Y-68124500D01*
X35020185Y-68057461D01*
X35072989Y-68011706D01*
X35124500Y-68000500D01*
X125875500Y-68000500D01*
X125942539Y-68020185D01*
G37*
G04 #@! TD.AperFunction*
M02*
