G04 #@! TF.GenerationSoftware,KiCad,Pcbnew,9.0.2*
G04 #@! TF.CreationDate,2025-07-09T17:10:01-04:00*
G04 #@! TF.ProjectId,Temperature Sensor PCB,54656d70-6572-4617-9475-72652053656e,rev?*
G04 #@! TF.SameCoordinates,Original*
G04 #@! TF.FileFunction,Legend,Top*
G04 #@! TF.FilePolarity,Positive*
%FSLAX46Y46*%
G04 Gerber Fmt 4.6, Leading zero omitted, Abs format (unit mm)*
G04 Created by KiCad (PCBNEW 9.0.2) date 2025-07-09 17:10:01*
%MOMM*%
%LPD*%
G01*
G04 APERTURE LIST*
%ADD10C,0.100000*%
%ADD11C,0.150000*%
%ADD12C,0.120000*%
G04 APERTURE END LIST*
D10*
X60303884Y-77262475D02*
X60303884Y-76262475D01*
X60637217Y-76595808D02*
X61018169Y-76595808D01*
X60780074Y-77262475D02*
X60780074Y-76405332D01*
X60780074Y-76405332D02*
X60827693Y-76310094D01*
X60827693Y-76310094D02*
X60922931Y-76262475D01*
X60922931Y-76262475D02*
X61018169Y-76262475D01*
X61970551Y-76595808D02*
X62351503Y-76595808D01*
X62113408Y-76262475D02*
X62113408Y-77119617D01*
X62113408Y-77119617D02*
X62161027Y-77214856D01*
X62161027Y-77214856D02*
X62256265Y-77262475D01*
X62256265Y-77262475D02*
X62351503Y-77262475D01*
X62684837Y-77262475D02*
X62684837Y-76262475D01*
X63113408Y-77262475D02*
X63113408Y-76738665D01*
X63113408Y-76738665D02*
X63065789Y-76643427D01*
X63065789Y-76643427D02*
X62970551Y-76595808D01*
X62970551Y-76595808D02*
X62827694Y-76595808D01*
X62827694Y-76595808D02*
X62732456Y-76643427D01*
X62732456Y-76643427D02*
X62684837Y-76691046D01*
X63970551Y-77214856D02*
X63875313Y-77262475D01*
X63875313Y-77262475D02*
X63684837Y-77262475D01*
X63684837Y-77262475D02*
X63589599Y-77214856D01*
X63589599Y-77214856D02*
X63541980Y-77119617D01*
X63541980Y-77119617D02*
X63541980Y-76738665D01*
X63541980Y-76738665D02*
X63589599Y-76643427D01*
X63589599Y-76643427D02*
X63684837Y-76595808D01*
X63684837Y-76595808D02*
X63875313Y-76595808D01*
X63875313Y-76595808D02*
X63970551Y-76643427D01*
X63970551Y-76643427D02*
X64018170Y-76738665D01*
X64018170Y-76738665D02*
X64018170Y-76833903D01*
X64018170Y-76833903D02*
X63541980Y-76929141D01*
X65065790Y-76595808D02*
X65446742Y-76595808D01*
X65208647Y-76262475D02*
X65208647Y-77119617D01*
X65208647Y-77119617D02*
X65256266Y-77214856D01*
X65256266Y-77214856D02*
X65351504Y-77262475D01*
X65351504Y-77262475D02*
X65446742Y-77262475D01*
X66161028Y-77214856D02*
X66065790Y-77262475D01*
X66065790Y-77262475D02*
X65875314Y-77262475D01*
X65875314Y-77262475D02*
X65780076Y-77214856D01*
X65780076Y-77214856D02*
X65732457Y-77119617D01*
X65732457Y-77119617D02*
X65732457Y-76738665D01*
X65732457Y-76738665D02*
X65780076Y-76643427D01*
X65780076Y-76643427D02*
X65875314Y-76595808D01*
X65875314Y-76595808D02*
X66065790Y-76595808D01*
X66065790Y-76595808D02*
X66161028Y-76643427D01*
X66161028Y-76643427D02*
X66208647Y-76738665D01*
X66208647Y-76738665D02*
X66208647Y-76833903D01*
X66208647Y-76833903D02*
X65732457Y-76929141D01*
X66637219Y-77262475D02*
X66637219Y-76595808D01*
X66637219Y-76691046D02*
X66684838Y-76643427D01*
X66684838Y-76643427D02*
X66780076Y-76595808D01*
X66780076Y-76595808D02*
X66922933Y-76595808D01*
X66922933Y-76595808D02*
X67018171Y-76643427D01*
X67018171Y-76643427D02*
X67065790Y-76738665D01*
X67065790Y-76738665D02*
X67065790Y-77262475D01*
X67065790Y-76738665D02*
X67113409Y-76643427D01*
X67113409Y-76643427D02*
X67208647Y-76595808D01*
X67208647Y-76595808D02*
X67351504Y-76595808D01*
X67351504Y-76595808D02*
X67446743Y-76643427D01*
X67446743Y-76643427D02*
X67494362Y-76738665D01*
X67494362Y-76738665D02*
X67494362Y-77262475D01*
X67970552Y-76595808D02*
X67970552Y-77595808D01*
X67970552Y-76643427D02*
X68065790Y-76595808D01*
X68065790Y-76595808D02*
X68256266Y-76595808D01*
X68256266Y-76595808D02*
X68351504Y-76643427D01*
X68351504Y-76643427D02*
X68399123Y-76691046D01*
X68399123Y-76691046D02*
X68446742Y-76786284D01*
X68446742Y-76786284D02*
X68446742Y-77071998D01*
X68446742Y-77071998D02*
X68399123Y-77167236D01*
X68399123Y-77167236D02*
X68351504Y-77214856D01*
X68351504Y-77214856D02*
X68256266Y-77262475D01*
X68256266Y-77262475D02*
X68065790Y-77262475D01*
X68065790Y-77262475D02*
X67970552Y-77214856D01*
X69256266Y-77214856D02*
X69161028Y-77262475D01*
X69161028Y-77262475D02*
X68970552Y-77262475D01*
X68970552Y-77262475D02*
X68875314Y-77214856D01*
X68875314Y-77214856D02*
X68827695Y-77119617D01*
X68827695Y-77119617D02*
X68827695Y-76738665D01*
X68827695Y-76738665D02*
X68875314Y-76643427D01*
X68875314Y-76643427D02*
X68970552Y-76595808D01*
X68970552Y-76595808D02*
X69161028Y-76595808D01*
X69161028Y-76595808D02*
X69256266Y-76643427D01*
X69256266Y-76643427D02*
X69303885Y-76738665D01*
X69303885Y-76738665D02*
X69303885Y-76833903D01*
X69303885Y-76833903D02*
X68827695Y-76929141D01*
X69732457Y-77262475D02*
X69732457Y-76595808D01*
X69732457Y-76786284D02*
X69780076Y-76691046D01*
X69780076Y-76691046D02*
X69827695Y-76643427D01*
X69827695Y-76643427D02*
X69922933Y-76595808D01*
X69922933Y-76595808D02*
X70018171Y-76595808D01*
X70780076Y-77262475D02*
X70780076Y-76738665D01*
X70780076Y-76738665D02*
X70732457Y-76643427D01*
X70732457Y-76643427D02*
X70637219Y-76595808D01*
X70637219Y-76595808D02*
X70446743Y-76595808D01*
X70446743Y-76595808D02*
X70351505Y-76643427D01*
X70780076Y-77214856D02*
X70684838Y-77262475D01*
X70684838Y-77262475D02*
X70446743Y-77262475D01*
X70446743Y-77262475D02*
X70351505Y-77214856D01*
X70351505Y-77214856D02*
X70303886Y-77119617D01*
X70303886Y-77119617D02*
X70303886Y-77024379D01*
X70303886Y-77024379D02*
X70351505Y-76929141D01*
X70351505Y-76929141D02*
X70446743Y-76881522D01*
X70446743Y-76881522D02*
X70684838Y-76881522D01*
X70684838Y-76881522D02*
X70780076Y-76833903D01*
X71113410Y-76595808D02*
X71494362Y-76595808D01*
X71256267Y-76262475D02*
X71256267Y-77119617D01*
X71256267Y-77119617D02*
X71303886Y-77214856D01*
X71303886Y-77214856D02*
X71399124Y-77262475D01*
X71399124Y-77262475D02*
X71494362Y-77262475D01*
X72256267Y-76595808D02*
X72256267Y-77262475D01*
X71827696Y-76595808D02*
X71827696Y-77119617D01*
X71827696Y-77119617D02*
X71875315Y-77214856D01*
X71875315Y-77214856D02*
X71970553Y-77262475D01*
X71970553Y-77262475D02*
X72113410Y-77262475D01*
X72113410Y-77262475D02*
X72208648Y-77214856D01*
X72208648Y-77214856D02*
X72256267Y-77167236D01*
X72732458Y-77262475D02*
X72732458Y-76595808D01*
X72732458Y-76786284D02*
X72780077Y-76691046D01*
X72780077Y-76691046D02*
X72827696Y-76643427D01*
X72827696Y-76643427D02*
X72922934Y-76595808D01*
X72922934Y-76595808D02*
X73018172Y-76595808D01*
X73732458Y-77214856D02*
X73637220Y-77262475D01*
X73637220Y-77262475D02*
X73446744Y-77262475D01*
X73446744Y-77262475D02*
X73351506Y-77214856D01*
X73351506Y-77214856D02*
X73303887Y-77119617D01*
X73303887Y-77119617D02*
X73303887Y-76738665D01*
X73303887Y-76738665D02*
X73351506Y-76643427D01*
X73351506Y-76643427D02*
X73446744Y-76595808D01*
X73446744Y-76595808D02*
X73637220Y-76595808D01*
X73637220Y-76595808D02*
X73732458Y-76643427D01*
X73732458Y-76643427D02*
X73780077Y-76738665D01*
X73780077Y-76738665D02*
X73780077Y-76833903D01*
X73780077Y-76833903D02*
X73303887Y-76929141D01*
X74970554Y-77262475D02*
X74970554Y-76595808D01*
X74970554Y-76262475D02*
X74922935Y-76310094D01*
X74922935Y-76310094D02*
X74970554Y-76357713D01*
X74970554Y-76357713D02*
X75018173Y-76310094D01*
X75018173Y-76310094D02*
X74970554Y-76262475D01*
X74970554Y-76262475D02*
X74970554Y-76357713D01*
X75399125Y-77214856D02*
X75494363Y-77262475D01*
X75494363Y-77262475D02*
X75684839Y-77262475D01*
X75684839Y-77262475D02*
X75780077Y-77214856D01*
X75780077Y-77214856D02*
X75827696Y-77119617D01*
X75827696Y-77119617D02*
X75827696Y-77071998D01*
X75827696Y-77071998D02*
X75780077Y-76976760D01*
X75780077Y-76976760D02*
X75684839Y-76929141D01*
X75684839Y-76929141D02*
X75541982Y-76929141D01*
X75541982Y-76929141D02*
X75446744Y-76881522D01*
X75446744Y-76881522D02*
X75399125Y-76786284D01*
X75399125Y-76786284D02*
X75399125Y-76738665D01*
X75399125Y-76738665D02*
X75446744Y-76643427D01*
X75446744Y-76643427D02*
X75541982Y-76595808D01*
X75541982Y-76595808D02*
X75684839Y-76595808D01*
X75684839Y-76595808D02*
X75780077Y-76643427D01*
X77446744Y-77262475D02*
X77446744Y-76738665D01*
X77446744Y-76738665D02*
X77399125Y-76643427D01*
X77399125Y-76643427D02*
X77303887Y-76595808D01*
X77303887Y-76595808D02*
X77113411Y-76595808D01*
X77113411Y-76595808D02*
X77018173Y-76643427D01*
X77446744Y-77214856D02*
X77351506Y-77262475D01*
X77351506Y-77262475D02*
X77113411Y-77262475D01*
X77113411Y-77262475D02*
X77018173Y-77214856D01*
X77018173Y-77214856D02*
X76970554Y-77119617D01*
X76970554Y-77119617D02*
X76970554Y-77024379D01*
X76970554Y-77024379D02*
X77018173Y-76929141D01*
X77018173Y-76929141D02*
X77113411Y-76881522D01*
X77113411Y-76881522D02*
X77351506Y-76881522D01*
X77351506Y-76881522D02*
X77446744Y-76833903D01*
X77922935Y-77262475D02*
X77922935Y-76262475D01*
X77922935Y-76643427D02*
X78018173Y-76595808D01*
X78018173Y-76595808D02*
X78208649Y-76595808D01*
X78208649Y-76595808D02*
X78303887Y-76643427D01*
X78303887Y-76643427D02*
X78351506Y-76691046D01*
X78351506Y-76691046D02*
X78399125Y-76786284D01*
X78399125Y-76786284D02*
X78399125Y-77071998D01*
X78399125Y-77071998D02*
X78351506Y-77167236D01*
X78351506Y-77167236D02*
X78303887Y-77214856D01*
X78303887Y-77214856D02*
X78208649Y-77262475D01*
X78208649Y-77262475D02*
X78018173Y-77262475D01*
X78018173Y-77262475D02*
X77922935Y-77214856D01*
X78970554Y-77262475D02*
X78875316Y-77214856D01*
X78875316Y-77214856D02*
X78827697Y-77167236D01*
X78827697Y-77167236D02*
X78780078Y-77071998D01*
X78780078Y-77071998D02*
X78780078Y-76786284D01*
X78780078Y-76786284D02*
X78827697Y-76691046D01*
X78827697Y-76691046D02*
X78875316Y-76643427D01*
X78875316Y-76643427D02*
X78970554Y-76595808D01*
X78970554Y-76595808D02*
X79113411Y-76595808D01*
X79113411Y-76595808D02*
X79208649Y-76643427D01*
X79208649Y-76643427D02*
X79256268Y-76691046D01*
X79256268Y-76691046D02*
X79303887Y-76786284D01*
X79303887Y-76786284D02*
X79303887Y-77071998D01*
X79303887Y-77071998D02*
X79256268Y-77167236D01*
X79256268Y-77167236D02*
X79208649Y-77214856D01*
X79208649Y-77214856D02*
X79113411Y-77262475D01*
X79113411Y-77262475D02*
X78970554Y-77262475D01*
X79637221Y-76595808D02*
X79875316Y-77262475D01*
X79875316Y-77262475D02*
X80113411Y-76595808D01*
X80875316Y-77214856D02*
X80780078Y-77262475D01*
X80780078Y-77262475D02*
X80589602Y-77262475D01*
X80589602Y-77262475D02*
X80494364Y-77214856D01*
X80494364Y-77214856D02*
X80446745Y-77119617D01*
X80446745Y-77119617D02*
X80446745Y-76738665D01*
X80446745Y-76738665D02*
X80494364Y-76643427D01*
X80494364Y-76643427D02*
X80589602Y-76595808D01*
X80589602Y-76595808D02*
X80780078Y-76595808D01*
X80780078Y-76595808D02*
X80875316Y-76643427D01*
X80875316Y-76643427D02*
X80922935Y-76738665D01*
X80922935Y-76738665D02*
X80922935Y-76833903D01*
X80922935Y-76833903D02*
X80446745Y-76929141D01*
X82589602Y-76262475D02*
X82113412Y-76262475D01*
X82113412Y-76262475D02*
X82065793Y-76738665D01*
X82065793Y-76738665D02*
X82113412Y-76691046D01*
X82113412Y-76691046D02*
X82208650Y-76643427D01*
X82208650Y-76643427D02*
X82446745Y-76643427D01*
X82446745Y-76643427D02*
X82541983Y-76691046D01*
X82541983Y-76691046D02*
X82589602Y-76738665D01*
X82589602Y-76738665D02*
X82637221Y-76833903D01*
X82637221Y-76833903D02*
X82637221Y-77071998D01*
X82637221Y-77071998D02*
X82589602Y-77167236D01*
X82589602Y-77167236D02*
X82541983Y-77214856D01*
X82541983Y-77214856D02*
X82446745Y-77262475D01*
X82446745Y-77262475D02*
X82208650Y-77262475D01*
X82208650Y-77262475D02*
X82113412Y-77214856D01*
X82113412Y-77214856D02*
X82065793Y-77167236D01*
X83256269Y-76262475D02*
X83351507Y-76262475D01*
X83351507Y-76262475D02*
X83446745Y-76310094D01*
X83446745Y-76310094D02*
X83494364Y-76357713D01*
X83494364Y-76357713D02*
X83541983Y-76452951D01*
X83541983Y-76452951D02*
X83589602Y-76643427D01*
X83589602Y-76643427D02*
X83589602Y-76881522D01*
X83589602Y-76881522D02*
X83541983Y-77071998D01*
X83541983Y-77071998D02*
X83494364Y-77167236D01*
X83494364Y-77167236D02*
X83446745Y-77214856D01*
X83446745Y-77214856D02*
X83351507Y-77262475D01*
X83351507Y-77262475D02*
X83256269Y-77262475D01*
X83256269Y-77262475D02*
X83161031Y-77214856D01*
X83161031Y-77214856D02*
X83113412Y-77167236D01*
X83113412Y-77167236D02*
X83065793Y-77071998D01*
X83065793Y-77071998D02*
X83018174Y-76881522D01*
X83018174Y-76881522D02*
X83018174Y-76643427D01*
X83018174Y-76643427D02*
X83065793Y-76452951D01*
X83065793Y-76452951D02*
X83113412Y-76357713D01*
X83113412Y-76357713D02*
X83161031Y-76310094D01*
X83161031Y-76310094D02*
X83256269Y-76262475D01*
X85208650Y-77262475D02*
X85208650Y-76262475D01*
X85208650Y-77214856D02*
X85113412Y-77262475D01*
X85113412Y-77262475D02*
X84922936Y-77262475D01*
X84922936Y-77262475D02*
X84827698Y-77214856D01*
X84827698Y-77214856D02*
X84780079Y-77167236D01*
X84780079Y-77167236D02*
X84732460Y-77071998D01*
X84732460Y-77071998D02*
X84732460Y-76786284D01*
X84732460Y-76786284D02*
X84780079Y-76691046D01*
X84780079Y-76691046D02*
X84827698Y-76643427D01*
X84827698Y-76643427D02*
X84922936Y-76595808D01*
X84922936Y-76595808D02*
X85113412Y-76595808D01*
X85113412Y-76595808D02*
X85208650Y-76643427D01*
X86065793Y-77214856D02*
X85970555Y-77262475D01*
X85970555Y-77262475D02*
X85780079Y-77262475D01*
X85780079Y-77262475D02*
X85684841Y-77214856D01*
X85684841Y-77214856D02*
X85637222Y-77119617D01*
X85637222Y-77119617D02*
X85637222Y-76738665D01*
X85637222Y-76738665D02*
X85684841Y-76643427D01*
X85684841Y-76643427D02*
X85780079Y-76595808D01*
X85780079Y-76595808D02*
X85970555Y-76595808D01*
X85970555Y-76595808D02*
X86065793Y-76643427D01*
X86065793Y-76643427D02*
X86113412Y-76738665D01*
X86113412Y-76738665D02*
X86113412Y-76833903D01*
X86113412Y-76833903D02*
X85637222Y-76929141D01*
X86970555Y-76595808D02*
X86970555Y-77405332D01*
X86970555Y-77405332D02*
X86922936Y-77500570D01*
X86922936Y-77500570D02*
X86875317Y-77548189D01*
X86875317Y-77548189D02*
X86780079Y-77595808D01*
X86780079Y-77595808D02*
X86637222Y-77595808D01*
X86637222Y-77595808D02*
X86541984Y-77548189D01*
X86970555Y-77214856D02*
X86875317Y-77262475D01*
X86875317Y-77262475D02*
X86684841Y-77262475D01*
X86684841Y-77262475D02*
X86589603Y-77214856D01*
X86589603Y-77214856D02*
X86541984Y-77167236D01*
X86541984Y-77167236D02*
X86494365Y-77071998D01*
X86494365Y-77071998D02*
X86494365Y-76786284D01*
X86494365Y-76786284D02*
X86541984Y-76691046D01*
X86541984Y-76691046D02*
X86589603Y-76643427D01*
X86589603Y-76643427D02*
X86684841Y-76595808D01*
X86684841Y-76595808D02*
X86875317Y-76595808D01*
X86875317Y-76595808D02*
X86970555Y-76643427D01*
X87446746Y-77262475D02*
X87446746Y-76595808D01*
X87446746Y-76786284D02*
X87494365Y-76691046D01*
X87494365Y-76691046D02*
X87541984Y-76643427D01*
X87541984Y-76643427D02*
X87637222Y-76595808D01*
X87637222Y-76595808D02*
X87732460Y-76595808D01*
X88446746Y-77214856D02*
X88351508Y-77262475D01*
X88351508Y-77262475D02*
X88161032Y-77262475D01*
X88161032Y-77262475D02*
X88065794Y-77214856D01*
X88065794Y-77214856D02*
X88018175Y-77119617D01*
X88018175Y-77119617D02*
X88018175Y-76738665D01*
X88018175Y-76738665D02*
X88065794Y-76643427D01*
X88065794Y-76643427D02*
X88161032Y-76595808D01*
X88161032Y-76595808D02*
X88351508Y-76595808D01*
X88351508Y-76595808D02*
X88446746Y-76643427D01*
X88446746Y-76643427D02*
X88494365Y-76738665D01*
X88494365Y-76738665D02*
X88494365Y-76833903D01*
X88494365Y-76833903D02*
X88018175Y-76929141D01*
X89303889Y-77214856D02*
X89208651Y-77262475D01*
X89208651Y-77262475D02*
X89018175Y-77262475D01*
X89018175Y-77262475D02*
X88922937Y-77214856D01*
X88922937Y-77214856D02*
X88875318Y-77119617D01*
X88875318Y-77119617D02*
X88875318Y-76738665D01*
X88875318Y-76738665D02*
X88922937Y-76643427D01*
X88922937Y-76643427D02*
X89018175Y-76595808D01*
X89018175Y-76595808D02*
X89208651Y-76595808D01*
X89208651Y-76595808D02*
X89303889Y-76643427D01*
X89303889Y-76643427D02*
X89351508Y-76738665D01*
X89351508Y-76738665D02*
X89351508Y-76833903D01*
X89351508Y-76833903D02*
X88875318Y-76929141D01*
X89732461Y-77214856D02*
X89827699Y-77262475D01*
X89827699Y-77262475D02*
X90018175Y-77262475D01*
X90018175Y-77262475D02*
X90113413Y-77214856D01*
X90113413Y-77214856D02*
X90161032Y-77119617D01*
X90161032Y-77119617D02*
X90161032Y-77071998D01*
X90161032Y-77071998D02*
X90113413Y-76976760D01*
X90113413Y-76976760D02*
X90018175Y-76929141D01*
X90018175Y-76929141D02*
X89875318Y-76929141D01*
X89875318Y-76929141D02*
X89780080Y-76881522D01*
X89780080Y-76881522D02*
X89732461Y-76786284D01*
X89732461Y-76786284D02*
X89732461Y-76738665D01*
X89732461Y-76738665D02*
X89780080Y-76643427D01*
X89780080Y-76643427D02*
X89875318Y-76595808D01*
X89875318Y-76595808D02*
X90018175Y-76595808D01*
X90018175Y-76595808D02*
X90113413Y-76643427D01*
X90637223Y-77214856D02*
X90637223Y-77262475D01*
X90637223Y-77262475D02*
X90589604Y-77357713D01*
X90589604Y-77357713D02*
X90541985Y-77405332D01*
X91827699Y-77262475D02*
X91827699Y-76595808D01*
X91827699Y-76262475D02*
X91780080Y-76310094D01*
X91780080Y-76310094D02*
X91827699Y-76357713D01*
X91827699Y-76357713D02*
X91875318Y-76310094D01*
X91875318Y-76310094D02*
X91827699Y-76262475D01*
X91827699Y-76262475D02*
X91827699Y-76357713D01*
X92161032Y-76595808D02*
X92541984Y-76595808D01*
X92303889Y-76262475D02*
X92303889Y-77119617D01*
X92303889Y-77119617D02*
X92351508Y-77214856D01*
X92351508Y-77214856D02*
X92446746Y-77262475D01*
X92446746Y-77262475D02*
X92541984Y-77262475D01*
X93541985Y-76595808D02*
X93732461Y-77262475D01*
X93732461Y-77262475D02*
X93922937Y-76786284D01*
X93922937Y-76786284D02*
X94113413Y-77262475D01*
X94113413Y-77262475D02*
X94303889Y-76595808D01*
X94684842Y-77262475D02*
X94684842Y-76595808D01*
X94684842Y-76262475D02*
X94637223Y-76310094D01*
X94637223Y-76310094D02*
X94684842Y-76357713D01*
X94684842Y-76357713D02*
X94732461Y-76310094D01*
X94732461Y-76310094D02*
X94684842Y-76262475D01*
X94684842Y-76262475D02*
X94684842Y-76357713D01*
X95303889Y-77262475D02*
X95208651Y-77214856D01*
X95208651Y-77214856D02*
X95161032Y-77119617D01*
X95161032Y-77119617D02*
X95161032Y-76262475D01*
X95827699Y-77262475D02*
X95732461Y-77214856D01*
X95732461Y-77214856D02*
X95684842Y-77119617D01*
X95684842Y-77119617D02*
X95684842Y-76262475D01*
X96970557Y-77262475D02*
X96970557Y-76262475D01*
X96970557Y-76643427D02*
X97065795Y-76595808D01*
X97065795Y-76595808D02*
X97256271Y-76595808D01*
X97256271Y-76595808D02*
X97351509Y-76643427D01*
X97351509Y-76643427D02*
X97399128Y-76691046D01*
X97399128Y-76691046D02*
X97446747Y-76786284D01*
X97446747Y-76786284D02*
X97446747Y-77071998D01*
X97446747Y-77071998D02*
X97399128Y-77167236D01*
X97399128Y-77167236D02*
X97351509Y-77214856D01*
X97351509Y-77214856D02*
X97256271Y-77262475D01*
X97256271Y-77262475D02*
X97065795Y-77262475D01*
X97065795Y-77262475D02*
X96970557Y-77214856D01*
X98256271Y-77214856D02*
X98161033Y-77262475D01*
X98161033Y-77262475D02*
X97970557Y-77262475D01*
X97970557Y-77262475D02*
X97875319Y-77214856D01*
X97875319Y-77214856D02*
X97827700Y-77119617D01*
X97827700Y-77119617D02*
X97827700Y-76738665D01*
X97827700Y-76738665D02*
X97875319Y-76643427D01*
X97875319Y-76643427D02*
X97970557Y-76595808D01*
X97970557Y-76595808D02*
X98161033Y-76595808D01*
X98161033Y-76595808D02*
X98256271Y-76643427D01*
X98256271Y-76643427D02*
X98303890Y-76738665D01*
X98303890Y-76738665D02*
X98303890Y-76833903D01*
X98303890Y-76833903D02*
X97827700Y-76929141D01*
X99494367Y-77262475D02*
X99494367Y-76595808D01*
X99494367Y-76786284D02*
X99541986Y-76691046D01*
X99541986Y-76691046D02*
X99589605Y-76643427D01*
X99589605Y-76643427D02*
X99684843Y-76595808D01*
X99684843Y-76595808D02*
X99780081Y-76595808D01*
X100494367Y-77214856D02*
X100399129Y-77262475D01*
X100399129Y-77262475D02*
X100208653Y-77262475D01*
X100208653Y-77262475D02*
X100113415Y-77214856D01*
X100113415Y-77214856D02*
X100065796Y-77119617D01*
X100065796Y-77119617D02*
X100065796Y-76738665D01*
X100065796Y-76738665D02*
X100113415Y-76643427D01*
X100113415Y-76643427D02*
X100208653Y-76595808D01*
X100208653Y-76595808D02*
X100399129Y-76595808D01*
X100399129Y-76595808D02*
X100494367Y-76643427D01*
X100494367Y-76643427D02*
X100541986Y-76738665D01*
X100541986Y-76738665D02*
X100541986Y-76833903D01*
X100541986Y-76833903D02*
X100065796Y-76929141D01*
X101399129Y-77262475D02*
X101399129Y-76262475D01*
X101399129Y-77214856D02*
X101303891Y-77262475D01*
X101303891Y-77262475D02*
X101113415Y-77262475D01*
X101113415Y-77262475D02*
X101018177Y-77214856D01*
X101018177Y-77214856D02*
X100970558Y-77167236D01*
X100970558Y-77167236D02*
X100922939Y-77071998D01*
X100922939Y-77071998D02*
X100922939Y-76786284D01*
X100922939Y-76786284D02*
X100970558Y-76691046D01*
X100970558Y-76691046D02*
X101018177Y-76643427D01*
X101018177Y-76643427D02*
X101113415Y-76595808D01*
X101113415Y-76595808D02*
X101303891Y-76595808D01*
X101303891Y-76595808D02*
X101399129Y-76643427D01*
X101922939Y-77214856D02*
X101922939Y-77262475D01*
X101922939Y-77262475D02*
X101875320Y-77357713D01*
X101875320Y-77357713D02*
X101827701Y-77405332D01*
X60732455Y-78872419D02*
X60732455Y-78348609D01*
X60732455Y-78348609D02*
X60684836Y-78253371D01*
X60684836Y-78253371D02*
X60589598Y-78205752D01*
X60589598Y-78205752D02*
X60399122Y-78205752D01*
X60399122Y-78205752D02*
X60303884Y-78253371D01*
X60732455Y-78824800D02*
X60637217Y-78872419D01*
X60637217Y-78872419D02*
X60399122Y-78872419D01*
X60399122Y-78872419D02*
X60303884Y-78824800D01*
X60303884Y-78824800D02*
X60256265Y-78729561D01*
X60256265Y-78729561D02*
X60256265Y-78634323D01*
X60256265Y-78634323D02*
X60303884Y-78539085D01*
X60303884Y-78539085D02*
X60399122Y-78491466D01*
X60399122Y-78491466D02*
X60637217Y-78491466D01*
X60637217Y-78491466D02*
X60732455Y-78443847D01*
X61208646Y-78205752D02*
X61208646Y-78872419D01*
X61208646Y-78300990D02*
X61256265Y-78253371D01*
X61256265Y-78253371D02*
X61351503Y-78205752D01*
X61351503Y-78205752D02*
X61494360Y-78205752D01*
X61494360Y-78205752D02*
X61589598Y-78253371D01*
X61589598Y-78253371D02*
X61637217Y-78348609D01*
X61637217Y-78348609D02*
X61637217Y-78872419D01*
X62541979Y-78872419D02*
X62541979Y-77872419D01*
X62541979Y-78824800D02*
X62446741Y-78872419D01*
X62446741Y-78872419D02*
X62256265Y-78872419D01*
X62256265Y-78872419D02*
X62161027Y-78824800D01*
X62161027Y-78824800D02*
X62113408Y-78777180D01*
X62113408Y-78777180D02*
X62065789Y-78681942D01*
X62065789Y-78681942D02*
X62065789Y-78396228D01*
X62065789Y-78396228D02*
X62113408Y-78300990D01*
X62113408Y-78300990D02*
X62161027Y-78253371D01*
X62161027Y-78253371D02*
X62256265Y-78205752D01*
X62256265Y-78205752D02*
X62446741Y-78205752D01*
X62446741Y-78205752D02*
X62541979Y-78253371D01*
X63780075Y-78872419D02*
X63780075Y-78205752D01*
X63780075Y-77872419D02*
X63732456Y-77920038D01*
X63732456Y-77920038D02*
X63780075Y-77967657D01*
X63780075Y-77967657D02*
X63827694Y-77920038D01*
X63827694Y-77920038D02*
X63780075Y-77872419D01*
X63780075Y-77872419D02*
X63780075Y-77967657D01*
X64113408Y-78205752D02*
X64494360Y-78205752D01*
X64256265Y-78872419D02*
X64256265Y-78015276D01*
X64256265Y-78015276D02*
X64303884Y-77920038D01*
X64303884Y-77920038D02*
X64399122Y-77872419D01*
X64399122Y-77872419D02*
X64494360Y-77872419D01*
X65446742Y-78205752D02*
X65827694Y-78205752D01*
X65589599Y-77872419D02*
X65589599Y-78729561D01*
X65589599Y-78729561D02*
X65637218Y-78824800D01*
X65637218Y-78824800D02*
X65732456Y-78872419D01*
X65732456Y-78872419D02*
X65827694Y-78872419D01*
X66161028Y-78872419D02*
X66161028Y-77872419D01*
X66589599Y-78872419D02*
X66589599Y-78348609D01*
X66589599Y-78348609D02*
X66541980Y-78253371D01*
X66541980Y-78253371D02*
X66446742Y-78205752D01*
X66446742Y-78205752D02*
X66303885Y-78205752D01*
X66303885Y-78205752D02*
X66208647Y-78253371D01*
X66208647Y-78253371D02*
X66161028Y-78300990D01*
X67446742Y-78824800D02*
X67351504Y-78872419D01*
X67351504Y-78872419D02*
X67161028Y-78872419D01*
X67161028Y-78872419D02*
X67065790Y-78824800D01*
X67065790Y-78824800D02*
X67018171Y-78729561D01*
X67018171Y-78729561D02*
X67018171Y-78348609D01*
X67018171Y-78348609D02*
X67065790Y-78253371D01*
X67065790Y-78253371D02*
X67161028Y-78205752D01*
X67161028Y-78205752D02*
X67351504Y-78205752D01*
X67351504Y-78205752D02*
X67446742Y-78253371D01*
X67446742Y-78253371D02*
X67494361Y-78348609D01*
X67494361Y-78348609D02*
X67494361Y-78443847D01*
X67494361Y-78443847D02*
X67018171Y-78539085D01*
X68541981Y-78205752D02*
X68922933Y-78205752D01*
X68684838Y-77872419D02*
X68684838Y-78729561D01*
X68684838Y-78729561D02*
X68732457Y-78824800D01*
X68732457Y-78824800D02*
X68827695Y-78872419D01*
X68827695Y-78872419D02*
X68922933Y-78872419D01*
X69637219Y-78824800D02*
X69541981Y-78872419D01*
X69541981Y-78872419D02*
X69351505Y-78872419D01*
X69351505Y-78872419D02*
X69256267Y-78824800D01*
X69256267Y-78824800D02*
X69208648Y-78729561D01*
X69208648Y-78729561D02*
X69208648Y-78348609D01*
X69208648Y-78348609D02*
X69256267Y-78253371D01*
X69256267Y-78253371D02*
X69351505Y-78205752D01*
X69351505Y-78205752D02*
X69541981Y-78205752D01*
X69541981Y-78205752D02*
X69637219Y-78253371D01*
X69637219Y-78253371D02*
X69684838Y-78348609D01*
X69684838Y-78348609D02*
X69684838Y-78443847D01*
X69684838Y-78443847D02*
X69208648Y-78539085D01*
X70113410Y-78872419D02*
X70113410Y-78205752D01*
X70113410Y-78300990D02*
X70161029Y-78253371D01*
X70161029Y-78253371D02*
X70256267Y-78205752D01*
X70256267Y-78205752D02*
X70399124Y-78205752D01*
X70399124Y-78205752D02*
X70494362Y-78253371D01*
X70494362Y-78253371D02*
X70541981Y-78348609D01*
X70541981Y-78348609D02*
X70541981Y-78872419D01*
X70541981Y-78348609D02*
X70589600Y-78253371D01*
X70589600Y-78253371D02*
X70684838Y-78205752D01*
X70684838Y-78205752D02*
X70827695Y-78205752D01*
X70827695Y-78205752D02*
X70922934Y-78253371D01*
X70922934Y-78253371D02*
X70970553Y-78348609D01*
X70970553Y-78348609D02*
X70970553Y-78872419D01*
X71446743Y-78205752D02*
X71446743Y-79205752D01*
X71446743Y-78253371D02*
X71541981Y-78205752D01*
X71541981Y-78205752D02*
X71732457Y-78205752D01*
X71732457Y-78205752D02*
X71827695Y-78253371D01*
X71827695Y-78253371D02*
X71875314Y-78300990D01*
X71875314Y-78300990D02*
X71922933Y-78396228D01*
X71922933Y-78396228D02*
X71922933Y-78681942D01*
X71922933Y-78681942D02*
X71875314Y-78777180D01*
X71875314Y-78777180D02*
X71827695Y-78824800D01*
X71827695Y-78824800D02*
X71732457Y-78872419D01*
X71732457Y-78872419D02*
X71541981Y-78872419D01*
X71541981Y-78872419D02*
X71446743Y-78824800D01*
X72732457Y-78824800D02*
X72637219Y-78872419D01*
X72637219Y-78872419D02*
X72446743Y-78872419D01*
X72446743Y-78872419D02*
X72351505Y-78824800D01*
X72351505Y-78824800D02*
X72303886Y-78729561D01*
X72303886Y-78729561D02*
X72303886Y-78348609D01*
X72303886Y-78348609D02*
X72351505Y-78253371D01*
X72351505Y-78253371D02*
X72446743Y-78205752D01*
X72446743Y-78205752D02*
X72637219Y-78205752D01*
X72637219Y-78205752D02*
X72732457Y-78253371D01*
X72732457Y-78253371D02*
X72780076Y-78348609D01*
X72780076Y-78348609D02*
X72780076Y-78443847D01*
X72780076Y-78443847D02*
X72303886Y-78539085D01*
X73208648Y-78872419D02*
X73208648Y-78205752D01*
X73208648Y-78396228D02*
X73256267Y-78300990D01*
X73256267Y-78300990D02*
X73303886Y-78253371D01*
X73303886Y-78253371D02*
X73399124Y-78205752D01*
X73399124Y-78205752D02*
X73494362Y-78205752D01*
X74256267Y-78872419D02*
X74256267Y-78348609D01*
X74256267Y-78348609D02*
X74208648Y-78253371D01*
X74208648Y-78253371D02*
X74113410Y-78205752D01*
X74113410Y-78205752D02*
X73922934Y-78205752D01*
X73922934Y-78205752D02*
X73827696Y-78253371D01*
X74256267Y-78824800D02*
X74161029Y-78872419D01*
X74161029Y-78872419D02*
X73922934Y-78872419D01*
X73922934Y-78872419D02*
X73827696Y-78824800D01*
X73827696Y-78824800D02*
X73780077Y-78729561D01*
X73780077Y-78729561D02*
X73780077Y-78634323D01*
X73780077Y-78634323D02*
X73827696Y-78539085D01*
X73827696Y-78539085D02*
X73922934Y-78491466D01*
X73922934Y-78491466D02*
X74161029Y-78491466D01*
X74161029Y-78491466D02*
X74256267Y-78443847D01*
X74589601Y-78205752D02*
X74970553Y-78205752D01*
X74732458Y-77872419D02*
X74732458Y-78729561D01*
X74732458Y-78729561D02*
X74780077Y-78824800D01*
X74780077Y-78824800D02*
X74875315Y-78872419D01*
X74875315Y-78872419D02*
X74970553Y-78872419D01*
X75732458Y-78205752D02*
X75732458Y-78872419D01*
X75303887Y-78205752D02*
X75303887Y-78729561D01*
X75303887Y-78729561D02*
X75351506Y-78824800D01*
X75351506Y-78824800D02*
X75446744Y-78872419D01*
X75446744Y-78872419D02*
X75589601Y-78872419D01*
X75589601Y-78872419D02*
X75684839Y-78824800D01*
X75684839Y-78824800D02*
X75732458Y-78777180D01*
X76208649Y-78872419D02*
X76208649Y-78205752D01*
X76208649Y-78396228D02*
X76256268Y-78300990D01*
X76256268Y-78300990D02*
X76303887Y-78253371D01*
X76303887Y-78253371D02*
X76399125Y-78205752D01*
X76399125Y-78205752D02*
X76494363Y-78205752D01*
X77208649Y-78824800D02*
X77113411Y-78872419D01*
X77113411Y-78872419D02*
X76922935Y-78872419D01*
X76922935Y-78872419D02*
X76827697Y-78824800D01*
X76827697Y-78824800D02*
X76780078Y-78729561D01*
X76780078Y-78729561D02*
X76780078Y-78348609D01*
X76780078Y-78348609D02*
X76827697Y-78253371D01*
X76827697Y-78253371D02*
X76922935Y-78205752D01*
X76922935Y-78205752D02*
X77113411Y-78205752D01*
X77113411Y-78205752D02*
X77208649Y-78253371D01*
X77208649Y-78253371D02*
X77256268Y-78348609D01*
X77256268Y-78348609D02*
X77256268Y-78443847D01*
X77256268Y-78443847D02*
X76780078Y-78539085D01*
X78446745Y-78872419D02*
X78446745Y-78205752D01*
X78446745Y-77872419D02*
X78399126Y-77920038D01*
X78399126Y-77920038D02*
X78446745Y-77967657D01*
X78446745Y-77967657D02*
X78494364Y-77920038D01*
X78494364Y-77920038D02*
X78446745Y-77872419D01*
X78446745Y-77872419D02*
X78446745Y-77967657D01*
X78875316Y-78824800D02*
X78970554Y-78872419D01*
X78970554Y-78872419D02*
X79161030Y-78872419D01*
X79161030Y-78872419D02*
X79256268Y-78824800D01*
X79256268Y-78824800D02*
X79303887Y-78729561D01*
X79303887Y-78729561D02*
X79303887Y-78681942D01*
X79303887Y-78681942D02*
X79256268Y-78586704D01*
X79256268Y-78586704D02*
X79161030Y-78539085D01*
X79161030Y-78539085D02*
X79018173Y-78539085D01*
X79018173Y-78539085D02*
X78922935Y-78491466D01*
X78922935Y-78491466D02*
X78875316Y-78396228D01*
X78875316Y-78396228D02*
X78875316Y-78348609D01*
X78875316Y-78348609D02*
X78922935Y-78253371D01*
X78922935Y-78253371D02*
X79018173Y-78205752D01*
X79018173Y-78205752D02*
X79161030Y-78205752D01*
X79161030Y-78205752D02*
X79256268Y-78253371D01*
X80494364Y-78872419D02*
X80494364Y-77872419D01*
X80494364Y-78253371D02*
X80589602Y-78205752D01*
X80589602Y-78205752D02*
X80780078Y-78205752D01*
X80780078Y-78205752D02*
X80875316Y-78253371D01*
X80875316Y-78253371D02*
X80922935Y-78300990D01*
X80922935Y-78300990D02*
X80970554Y-78396228D01*
X80970554Y-78396228D02*
X80970554Y-78681942D01*
X80970554Y-78681942D02*
X80922935Y-78777180D01*
X80922935Y-78777180D02*
X80875316Y-78824800D01*
X80875316Y-78824800D02*
X80780078Y-78872419D01*
X80780078Y-78872419D02*
X80589602Y-78872419D01*
X80589602Y-78872419D02*
X80494364Y-78824800D01*
X81780078Y-78824800D02*
X81684840Y-78872419D01*
X81684840Y-78872419D02*
X81494364Y-78872419D01*
X81494364Y-78872419D02*
X81399126Y-78824800D01*
X81399126Y-78824800D02*
X81351507Y-78729561D01*
X81351507Y-78729561D02*
X81351507Y-78348609D01*
X81351507Y-78348609D02*
X81399126Y-78253371D01*
X81399126Y-78253371D02*
X81494364Y-78205752D01*
X81494364Y-78205752D02*
X81684840Y-78205752D01*
X81684840Y-78205752D02*
X81780078Y-78253371D01*
X81780078Y-78253371D02*
X81827697Y-78348609D01*
X81827697Y-78348609D02*
X81827697Y-78443847D01*
X81827697Y-78443847D02*
X81351507Y-78539085D01*
X82399126Y-78872419D02*
X82303888Y-78824800D01*
X82303888Y-78824800D02*
X82256269Y-78729561D01*
X82256269Y-78729561D02*
X82256269Y-77872419D01*
X82922936Y-78872419D02*
X82827698Y-78824800D01*
X82827698Y-78824800D02*
X82780079Y-78777180D01*
X82780079Y-78777180D02*
X82732460Y-78681942D01*
X82732460Y-78681942D02*
X82732460Y-78396228D01*
X82732460Y-78396228D02*
X82780079Y-78300990D01*
X82780079Y-78300990D02*
X82827698Y-78253371D01*
X82827698Y-78253371D02*
X82922936Y-78205752D01*
X82922936Y-78205752D02*
X83065793Y-78205752D01*
X83065793Y-78205752D02*
X83161031Y-78253371D01*
X83161031Y-78253371D02*
X83208650Y-78300990D01*
X83208650Y-78300990D02*
X83256269Y-78396228D01*
X83256269Y-78396228D02*
X83256269Y-78681942D01*
X83256269Y-78681942D02*
X83208650Y-78777180D01*
X83208650Y-78777180D02*
X83161031Y-78824800D01*
X83161031Y-78824800D02*
X83065793Y-78872419D01*
X83065793Y-78872419D02*
X82922936Y-78872419D01*
X83589603Y-78205752D02*
X83780079Y-78872419D01*
X83780079Y-78872419D02*
X83970555Y-78396228D01*
X83970555Y-78396228D02*
X84161031Y-78872419D01*
X84161031Y-78872419D02*
X84351507Y-78205752D01*
X85970555Y-77872419D02*
X85494365Y-77872419D01*
X85494365Y-77872419D02*
X85446746Y-78348609D01*
X85446746Y-78348609D02*
X85494365Y-78300990D01*
X85494365Y-78300990D02*
X85589603Y-78253371D01*
X85589603Y-78253371D02*
X85827698Y-78253371D01*
X85827698Y-78253371D02*
X85922936Y-78300990D01*
X85922936Y-78300990D02*
X85970555Y-78348609D01*
X85970555Y-78348609D02*
X86018174Y-78443847D01*
X86018174Y-78443847D02*
X86018174Y-78681942D01*
X86018174Y-78681942D02*
X85970555Y-78777180D01*
X85970555Y-78777180D02*
X85922936Y-78824800D01*
X85922936Y-78824800D02*
X85827698Y-78872419D01*
X85827698Y-78872419D02*
X85589603Y-78872419D01*
X85589603Y-78872419D02*
X85494365Y-78824800D01*
X85494365Y-78824800D02*
X85446746Y-78777180D01*
X86637222Y-77872419D02*
X86732460Y-77872419D01*
X86732460Y-77872419D02*
X86827698Y-77920038D01*
X86827698Y-77920038D02*
X86875317Y-77967657D01*
X86875317Y-77967657D02*
X86922936Y-78062895D01*
X86922936Y-78062895D02*
X86970555Y-78253371D01*
X86970555Y-78253371D02*
X86970555Y-78491466D01*
X86970555Y-78491466D02*
X86922936Y-78681942D01*
X86922936Y-78681942D02*
X86875317Y-78777180D01*
X86875317Y-78777180D02*
X86827698Y-78824800D01*
X86827698Y-78824800D02*
X86732460Y-78872419D01*
X86732460Y-78872419D02*
X86637222Y-78872419D01*
X86637222Y-78872419D02*
X86541984Y-78824800D01*
X86541984Y-78824800D02*
X86494365Y-78777180D01*
X86494365Y-78777180D02*
X86446746Y-78681942D01*
X86446746Y-78681942D02*
X86399127Y-78491466D01*
X86399127Y-78491466D02*
X86399127Y-78253371D01*
X86399127Y-78253371D02*
X86446746Y-78062895D01*
X86446746Y-78062895D02*
X86494365Y-77967657D01*
X86494365Y-77967657D02*
X86541984Y-77920038D01*
X86541984Y-77920038D02*
X86637222Y-77872419D01*
X88589603Y-78872419D02*
X88589603Y-77872419D01*
X88589603Y-78824800D02*
X88494365Y-78872419D01*
X88494365Y-78872419D02*
X88303889Y-78872419D01*
X88303889Y-78872419D02*
X88208651Y-78824800D01*
X88208651Y-78824800D02*
X88161032Y-78777180D01*
X88161032Y-78777180D02*
X88113413Y-78681942D01*
X88113413Y-78681942D02*
X88113413Y-78396228D01*
X88113413Y-78396228D02*
X88161032Y-78300990D01*
X88161032Y-78300990D02*
X88208651Y-78253371D01*
X88208651Y-78253371D02*
X88303889Y-78205752D01*
X88303889Y-78205752D02*
X88494365Y-78205752D01*
X88494365Y-78205752D02*
X88589603Y-78253371D01*
X89446746Y-78824800D02*
X89351508Y-78872419D01*
X89351508Y-78872419D02*
X89161032Y-78872419D01*
X89161032Y-78872419D02*
X89065794Y-78824800D01*
X89065794Y-78824800D02*
X89018175Y-78729561D01*
X89018175Y-78729561D02*
X89018175Y-78348609D01*
X89018175Y-78348609D02*
X89065794Y-78253371D01*
X89065794Y-78253371D02*
X89161032Y-78205752D01*
X89161032Y-78205752D02*
X89351508Y-78205752D01*
X89351508Y-78205752D02*
X89446746Y-78253371D01*
X89446746Y-78253371D02*
X89494365Y-78348609D01*
X89494365Y-78348609D02*
X89494365Y-78443847D01*
X89494365Y-78443847D02*
X89018175Y-78539085D01*
X90351508Y-78205752D02*
X90351508Y-79015276D01*
X90351508Y-79015276D02*
X90303889Y-79110514D01*
X90303889Y-79110514D02*
X90256270Y-79158133D01*
X90256270Y-79158133D02*
X90161032Y-79205752D01*
X90161032Y-79205752D02*
X90018175Y-79205752D01*
X90018175Y-79205752D02*
X89922937Y-79158133D01*
X90351508Y-78824800D02*
X90256270Y-78872419D01*
X90256270Y-78872419D02*
X90065794Y-78872419D01*
X90065794Y-78872419D02*
X89970556Y-78824800D01*
X89970556Y-78824800D02*
X89922937Y-78777180D01*
X89922937Y-78777180D02*
X89875318Y-78681942D01*
X89875318Y-78681942D02*
X89875318Y-78396228D01*
X89875318Y-78396228D02*
X89922937Y-78300990D01*
X89922937Y-78300990D02*
X89970556Y-78253371D01*
X89970556Y-78253371D02*
X90065794Y-78205752D01*
X90065794Y-78205752D02*
X90256270Y-78205752D01*
X90256270Y-78205752D02*
X90351508Y-78253371D01*
X90827699Y-78872419D02*
X90827699Y-78205752D01*
X90827699Y-78396228D02*
X90875318Y-78300990D01*
X90875318Y-78300990D02*
X90922937Y-78253371D01*
X90922937Y-78253371D02*
X91018175Y-78205752D01*
X91018175Y-78205752D02*
X91113413Y-78205752D01*
X91827699Y-78824800D02*
X91732461Y-78872419D01*
X91732461Y-78872419D02*
X91541985Y-78872419D01*
X91541985Y-78872419D02*
X91446747Y-78824800D01*
X91446747Y-78824800D02*
X91399128Y-78729561D01*
X91399128Y-78729561D02*
X91399128Y-78348609D01*
X91399128Y-78348609D02*
X91446747Y-78253371D01*
X91446747Y-78253371D02*
X91541985Y-78205752D01*
X91541985Y-78205752D02*
X91732461Y-78205752D01*
X91732461Y-78205752D02*
X91827699Y-78253371D01*
X91827699Y-78253371D02*
X91875318Y-78348609D01*
X91875318Y-78348609D02*
X91875318Y-78443847D01*
X91875318Y-78443847D02*
X91399128Y-78539085D01*
X92684842Y-78824800D02*
X92589604Y-78872419D01*
X92589604Y-78872419D02*
X92399128Y-78872419D01*
X92399128Y-78872419D02*
X92303890Y-78824800D01*
X92303890Y-78824800D02*
X92256271Y-78729561D01*
X92256271Y-78729561D02*
X92256271Y-78348609D01*
X92256271Y-78348609D02*
X92303890Y-78253371D01*
X92303890Y-78253371D02*
X92399128Y-78205752D01*
X92399128Y-78205752D02*
X92589604Y-78205752D01*
X92589604Y-78205752D02*
X92684842Y-78253371D01*
X92684842Y-78253371D02*
X92732461Y-78348609D01*
X92732461Y-78348609D02*
X92732461Y-78443847D01*
X92732461Y-78443847D02*
X92256271Y-78539085D01*
X93113414Y-78824800D02*
X93208652Y-78872419D01*
X93208652Y-78872419D02*
X93399128Y-78872419D01*
X93399128Y-78872419D02*
X93494366Y-78824800D01*
X93494366Y-78824800D02*
X93541985Y-78729561D01*
X93541985Y-78729561D02*
X93541985Y-78681942D01*
X93541985Y-78681942D02*
X93494366Y-78586704D01*
X93494366Y-78586704D02*
X93399128Y-78539085D01*
X93399128Y-78539085D02*
X93256271Y-78539085D01*
X93256271Y-78539085D02*
X93161033Y-78491466D01*
X93161033Y-78491466D02*
X93113414Y-78396228D01*
X93113414Y-78396228D02*
X93113414Y-78348609D01*
X93113414Y-78348609D02*
X93161033Y-78253371D01*
X93161033Y-78253371D02*
X93256271Y-78205752D01*
X93256271Y-78205752D02*
X93399128Y-78205752D01*
X93399128Y-78205752D02*
X93494366Y-78253371D01*
X94018176Y-78824800D02*
X94018176Y-78872419D01*
X94018176Y-78872419D02*
X93970557Y-78967657D01*
X93970557Y-78967657D02*
X93922938Y-79015276D01*
X95208652Y-78872419D02*
X95208652Y-78205752D01*
X95208652Y-77872419D02*
X95161033Y-77920038D01*
X95161033Y-77920038D02*
X95208652Y-77967657D01*
X95208652Y-77967657D02*
X95256271Y-77920038D01*
X95256271Y-77920038D02*
X95208652Y-77872419D01*
X95208652Y-77872419D02*
X95208652Y-77967657D01*
X95541985Y-78205752D02*
X95922937Y-78205752D01*
X95684842Y-77872419D02*
X95684842Y-78729561D01*
X95684842Y-78729561D02*
X95732461Y-78824800D01*
X95732461Y-78824800D02*
X95827699Y-78872419D01*
X95827699Y-78872419D02*
X95922937Y-78872419D01*
X96922938Y-78205752D02*
X97113414Y-78872419D01*
X97113414Y-78872419D02*
X97303890Y-78396228D01*
X97303890Y-78396228D02*
X97494366Y-78872419D01*
X97494366Y-78872419D02*
X97684842Y-78205752D01*
X98065795Y-78872419D02*
X98065795Y-78205752D01*
X98065795Y-77872419D02*
X98018176Y-77920038D01*
X98018176Y-77920038D02*
X98065795Y-77967657D01*
X98065795Y-77967657D02*
X98113414Y-77920038D01*
X98113414Y-77920038D02*
X98065795Y-77872419D01*
X98065795Y-77872419D02*
X98065795Y-77967657D01*
X98684842Y-78872419D02*
X98589604Y-78824800D01*
X98589604Y-78824800D02*
X98541985Y-78729561D01*
X98541985Y-78729561D02*
X98541985Y-77872419D01*
X99208652Y-78872419D02*
X99113414Y-78824800D01*
X99113414Y-78824800D02*
X99065795Y-78729561D01*
X99065795Y-78729561D02*
X99065795Y-77872419D01*
X100351510Y-78872419D02*
X100351510Y-77872419D01*
X100351510Y-78253371D02*
X100446748Y-78205752D01*
X100446748Y-78205752D02*
X100637224Y-78205752D01*
X100637224Y-78205752D02*
X100732462Y-78253371D01*
X100732462Y-78253371D02*
X100780081Y-78300990D01*
X100780081Y-78300990D02*
X100827700Y-78396228D01*
X100827700Y-78396228D02*
X100827700Y-78681942D01*
X100827700Y-78681942D02*
X100780081Y-78777180D01*
X100780081Y-78777180D02*
X100732462Y-78824800D01*
X100732462Y-78824800D02*
X100637224Y-78872419D01*
X100637224Y-78872419D02*
X100446748Y-78872419D01*
X100446748Y-78872419D02*
X100351510Y-78824800D01*
X101637224Y-78824800D02*
X101541986Y-78872419D01*
X101541986Y-78872419D02*
X101351510Y-78872419D01*
X101351510Y-78872419D02*
X101256272Y-78824800D01*
X101256272Y-78824800D02*
X101208653Y-78729561D01*
X101208653Y-78729561D02*
X101208653Y-78348609D01*
X101208653Y-78348609D02*
X101256272Y-78253371D01*
X101256272Y-78253371D02*
X101351510Y-78205752D01*
X101351510Y-78205752D02*
X101541986Y-78205752D01*
X101541986Y-78205752D02*
X101637224Y-78253371D01*
X101637224Y-78253371D02*
X101684843Y-78348609D01*
X101684843Y-78348609D02*
X101684843Y-78443847D01*
X101684843Y-78443847D02*
X101208653Y-78539085D01*
X103303891Y-78205752D02*
X103303891Y-79015276D01*
X103303891Y-79015276D02*
X103256272Y-79110514D01*
X103256272Y-79110514D02*
X103208653Y-79158133D01*
X103208653Y-79158133D02*
X103113415Y-79205752D01*
X103113415Y-79205752D02*
X102970558Y-79205752D01*
X102970558Y-79205752D02*
X102875320Y-79158133D01*
X103303891Y-78824800D02*
X103208653Y-78872419D01*
X103208653Y-78872419D02*
X103018177Y-78872419D01*
X103018177Y-78872419D02*
X102922939Y-78824800D01*
X102922939Y-78824800D02*
X102875320Y-78777180D01*
X102875320Y-78777180D02*
X102827701Y-78681942D01*
X102827701Y-78681942D02*
X102827701Y-78396228D01*
X102827701Y-78396228D02*
X102875320Y-78300990D01*
X102875320Y-78300990D02*
X102922939Y-78253371D01*
X102922939Y-78253371D02*
X103018177Y-78205752D01*
X103018177Y-78205752D02*
X103208653Y-78205752D01*
X103208653Y-78205752D02*
X103303891Y-78253371D01*
X103780082Y-78872419D02*
X103780082Y-78205752D01*
X103780082Y-78396228D02*
X103827701Y-78300990D01*
X103827701Y-78300990D02*
X103875320Y-78253371D01*
X103875320Y-78253371D02*
X103970558Y-78205752D01*
X103970558Y-78205752D02*
X104065796Y-78205752D01*
X104780082Y-78824800D02*
X104684844Y-78872419D01*
X104684844Y-78872419D02*
X104494368Y-78872419D01*
X104494368Y-78872419D02*
X104399130Y-78824800D01*
X104399130Y-78824800D02*
X104351511Y-78729561D01*
X104351511Y-78729561D02*
X104351511Y-78348609D01*
X104351511Y-78348609D02*
X104399130Y-78253371D01*
X104399130Y-78253371D02*
X104494368Y-78205752D01*
X104494368Y-78205752D02*
X104684844Y-78205752D01*
X104684844Y-78205752D02*
X104780082Y-78253371D01*
X104780082Y-78253371D02*
X104827701Y-78348609D01*
X104827701Y-78348609D02*
X104827701Y-78443847D01*
X104827701Y-78443847D02*
X104351511Y-78539085D01*
X105637225Y-78824800D02*
X105541987Y-78872419D01*
X105541987Y-78872419D02*
X105351511Y-78872419D01*
X105351511Y-78872419D02*
X105256273Y-78824800D01*
X105256273Y-78824800D02*
X105208654Y-78729561D01*
X105208654Y-78729561D02*
X105208654Y-78348609D01*
X105208654Y-78348609D02*
X105256273Y-78253371D01*
X105256273Y-78253371D02*
X105351511Y-78205752D01*
X105351511Y-78205752D02*
X105541987Y-78205752D01*
X105541987Y-78205752D02*
X105637225Y-78253371D01*
X105637225Y-78253371D02*
X105684844Y-78348609D01*
X105684844Y-78348609D02*
X105684844Y-78443847D01*
X105684844Y-78443847D02*
X105208654Y-78539085D01*
X106113416Y-78205752D02*
X106113416Y-78872419D01*
X106113416Y-78300990D02*
X106161035Y-78253371D01*
X106161035Y-78253371D02*
X106256273Y-78205752D01*
X106256273Y-78205752D02*
X106399130Y-78205752D01*
X106399130Y-78205752D02*
X106494368Y-78253371D01*
X106494368Y-78253371D02*
X106541987Y-78348609D01*
X106541987Y-78348609D02*
X106541987Y-78872419D01*
X107018178Y-78777180D02*
X107065797Y-78824800D01*
X107065797Y-78824800D02*
X107018178Y-78872419D01*
X107018178Y-78872419D02*
X106970559Y-78824800D01*
X106970559Y-78824800D02*
X107018178Y-78777180D01*
X107018178Y-78777180D02*
X107018178Y-78872419D01*
X48803884Y-138542587D02*
X48803884Y-137542587D01*
X48803884Y-137542587D02*
X49184836Y-137542587D01*
X49184836Y-137542587D02*
X49280074Y-137590206D01*
X49280074Y-137590206D02*
X49327693Y-137637825D01*
X49327693Y-137637825D02*
X49375312Y-137733063D01*
X49375312Y-137733063D02*
X49375312Y-137875920D01*
X49375312Y-137875920D02*
X49327693Y-137971158D01*
X49327693Y-137971158D02*
X49280074Y-138018777D01*
X49280074Y-138018777D02*
X49184836Y-138066396D01*
X49184836Y-138066396D02*
X48803884Y-138066396D01*
X49803884Y-138542587D02*
X49803884Y-137875920D01*
X49803884Y-138066396D02*
X49851503Y-137971158D01*
X49851503Y-137971158D02*
X49899122Y-137923539D01*
X49899122Y-137923539D02*
X49994360Y-137875920D01*
X49994360Y-137875920D02*
X50089598Y-137875920D01*
X50565789Y-138542587D02*
X50470551Y-138494968D01*
X50470551Y-138494968D02*
X50422932Y-138447348D01*
X50422932Y-138447348D02*
X50375313Y-138352110D01*
X50375313Y-138352110D02*
X50375313Y-138066396D01*
X50375313Y-138066396D02*
X50422932Y-137971158D01*
X50422932Y-137971158D02*
X50470551Y-137923539D01*
X50470551Y-137923539D02*
X50565789Y-137875920D01*
X50565789Y-137875920D02*
X50708646Y-137875920D01*
X50708646Y-137875920D02*
X50803884Y-137923539D01*
X50803884Y-137923539D02*
X50851503Y-137971158D01*
X50851503Y-137971158D02*
X50899122Y-138066396D01*
X50899122Y-138066396D02*
X50899122Y-138352110D01*
X50899122Y-138352110D02*
X50851503Y-138447348D01*
X50851503Y-138447348D02*
X50803884Y-138494968D01*
X50803884Y-138494968D02*
X50708646Y-138542587D01*
X50708646Y-138542587D02*
X50565789Y-138542587D01*
X51327694Y-137875920D02*
X51327694Y-138733063D01*
X51327694Y-138733063D02*
X51280075Y-138828301D01*
X51280075Y-138828301D02*
X51184837Y-138875920D01*
X51184837Y-138875920D02*
X51137218Y-138875920D01*
X51327694Y-137542587D02*
X51280075Y-137590206D01*
X51280075Y-137590206D02*
X51327694Y-137637825D01*
X51327694Y-137637825D02*
X51375313Y-137590206D01*
X51375313Y-137590206D02*
X51327694Y-137542587D01*
X51327694Y-137542587D02*
X51327694Y-137637825D01*
X52184836Y-138494968D02*
X52089598Y-138542587D01*
X52089598Y-138542587D02*
X51899122Y-138542587D01*
X51899122Y-138542587D02*
X51803884Y-138494968D01*
X51803884Y-138494968D02*
X51756265Y-138399729D01*
X51756265Y-138399729D02*
X51756265Y-138018777D01*
X51756265Y-138018777D02*
X51803884Y-137923539D01*
X51803884Y-137923539D02*
X51899122Y-137875920D01*
X51899122Y-137875920D02*
X52089598Y-137875920D01*
X52089598Y-137875920D02*
X52184836Y-137923539D01*
X52184836Y-137923539D02*
X52232455Y-138018777D01*
X52232455Y-138018777D02*
X52232455Y-138114015D01*
X52232455Y-138114015D02*
X51756265Y-138209253D01*
X53089598Y-138494968D02*
X52994360Y-138542587D01*
X52994360Y-138542587D02*
X52803884Y-138542587D01*
X52803884Y-138542587D02*
X52708646Y-138494968D01*
X52708646Y-138494968D02*
X52661027Y-138447348D01*
X52661027Y-138447348D02*
X52613408Y-138352110D01*
X52613408Y-138352110D02*
X52613408Y-138066396D01*
X52613408Y-138066396D02*
X52661027Y-137971158D01*
X52661027Y-137971158D02*
X52708646Y-137923539D01*
X52708646Y-137923539D02*
X52803884Y-137875920D01*
X52803884Y-137875920D02*
X52994360Y-137875920D01*
X52994360Y-137875920D02*
X53089598Y-137923539D01*
X53375313Y-137875920D02*
X53756265Y-137875920D01*
X53518170Y-137542587D02*
X53518170Y-138399729D01*
X53518170Y-138399729D02*
X53565789Y-138494968D01*
X53565789Y-138494968D02*
X53661027Y-138542587D01*
X53661027Y-138542587D02*
X53756265Y-138542587D01*
X54089599Y-138447348D02*
X54137218Y-138494968D01*
X54137218Y-138494968D02*
X54089599Y-138542587D01*
X54089599Y-138542587D02*
X54041980Y-138494968D01*
X54041980Y-138494968D02*
X54089599Y-138447348D01*
X54089599Y-138447348D02*
X54089599Y-138542587D01*
X54089599Y-137923539D02*
X54137218Y-137971158D01*
X54137218Y-137971158D02*
X54089599Y-138018777D01*
X54089599Y-138018777D02*
X54041980Y-137971158D01*
X54041980Y-137971158D02*
X54089599Y-137923539D01*
X54089599Y-137923539D02*
X54089599Y-138018777D01*
X55803884Y-138542587D02*
X55327694Y-138542587D01*
X55327694Y-138542587D02*
X55327694Y-137542587D01*
X56137218Y-138018777D02*
X56470551Y-138018777D01*
X56613408Y-138542587D02*
X56137218Y-138542587D01*
X56137218Y-138542587D02*
X56137218Y-137542587D01*
X56137218Y-137542587D02*
X56613408Y-137542587D01*
X57041980Y-138542587D02*
X57041980Y-137542587D01*
X57041980Y-137542587D02*
X57280075Y-137542587D01*
X57280075Y-137542587D02*
X57422932Y-137590206D01*
X57422932Y-137590206D02*
X57518170Y-137685444D01*
X57518170Y-137685444D02*
X57565789Y-137780682D01*
X57565789Y-137780682D02*
X57613408Y-137971158D01*
X57613408Y-137971158D02*
X57613408Y-138114015D01*
X57613408Y-138114015D02*
X57565789Y-138304491D01*
X57565789Y-138304491D02*
X57518170Y-138399729D01*
X57518170Y-138399729D02*
X57422932Y-138494968D01*
X57422932Y-138494968D02*
X57280075Y-138542587D01*
X57280075Y-138542587D02*
X57041980Y-138542587D01*
X58661028Y-137542587D02*
X59232456Y-137542587D01*
X58946742Y-138542587D02*
X58946742Y-137542587D01*
X59946742Y-138494968D02*
X59851504Y-138542587D01*
X59851504Y-138542587D02*
X59661028Y-138542587D01*
X59661028Y-138542587D02*
X59565790Y-138494968D01*
X59565790Y-138494968D02*
X59518171Y-138399729D01*
X59518171Y-138399729D02*
X59518171Y-138018777D01*
X59518171Y-138018777D02*
X59565790Y-137923539D01*
X59565790Y-137923539D02*
X59661028Y-137875920D01*
X59661028Y-137875920D02*
X59851504Y-137875920D01*
X59851504Y-137875920D02*
X59946742Y-137923539D01*
X59946742Y-137923539D02*
X59994361Y-138018777D01*
X59994361Y-138018777D02*
X59994361Y-138114015D01*
X59994361Y-138114015D02*
X59518171Y-138209253D01*
X60422933Y-138542587D02*
X60422933Y-137875920D01*
X60422933Y-137971158D02*
X60470552Y-137923539D01*
X60470552Y-137923539D02*
X60565790Y-137875920D01*
X60565790Y-137875920D02*
X60708647Y-137875920D01*
X60708647Y-137875920D02*
X60803885Y-137923539D01*
X60803885Y-137923539D02*
X60851504Y-138018777D01*
X60851504Y-138018777D02*
X60851504Y-138542587D01*
X60851504Y-138018777D02*
X60899123Y-137923539D01*
X60899123Y-137923539D02*
X60994361Y-137875920D01*
X60994361Y-137875920D02*
X61137218Y-137875920D01*
X61137218Y-137875920D02*
X61232457Y-137923539D01*
X61232457Y-137923539D02*
X61280076Y-138018777D01*
X61280076Y-138018777D02*
X61280076Y-138542587D01*
X61756266Y-137875920D02*
X61756266Y-138875920D01*
X61756266Y-137923539D02*
X61851504Y-137875920D01*
X61851504Y-137875920D02*
X62041980Y-137875920D01*
X62041980Y-137875920D02*
X62137218Y-137923539D01*
X62137218Y-137923539D02*
X62184837Y-137971158D01*
X62184837Y-137971158D02*
X62232456Y-138066396D01*
X62232456Y-138066396D02*
X62232456Y-138352110D01*
X62232456Y-138352110D02*
X62184837Y-138447348D01*
X62184837Y-138447348D02*
X62137218Y-138494968D01*
X62137218Y-138494968D02*
X62041980Y-138542587D01*
X62041980Y-138542587D02*
X61851504Y-138542587D01*
X61851504Y-138542587D02*
X61756266Y-138494968D01*
X63041980Y-138494968D02*
X62946742Y-138542587D01*
X62946742Y-138542587D02*
X62756266Y-138542587D01*
X62756266Y-138542587D02*
X62661028Y-138494968D01*
X62661028Y-138494968D02*
X62613409Y-138399729D01*
X62613409Y-138399729D02*
X62613409Y-138018777D01*
X62613409Y-138018777D02*
X62661028Y-137923539D01*
X62661028Y-137923539D02*
X62756266Y-137875920D01*
X62756266Y-137875920D02*
X62946742Y-137875920D01*
X62946742Y-137875920D02*
X63041980Y-137923539D01*
X63041980Y-137923539D02*
X63089599Y-138018777D01*
X63089599Y-138018777D02*
X63089599Y-138114015D01*
X63089599Y-138114015D02*
X62613409Y-138209253D01*
X63518171Y-138542587D02*
X63518171Y-137875920D01*
X63518171Y-138066396D02*
X63565790Y-137971158D01*
X63565790Y-137971158D02*
X63613409Y-137923539D01*
X63613409Y-137923539D02*
X63708647Y-137875920D01*
X63708647Y-137875920D02*
X63803885Y-137875920D01*
X64565790Y-138542587D02*
X64565790Y-138018777D01*
X64565790Y-138018777D02*
X64518171Y-137923539D01*
X64518171Y-137923539D02*
X64422933Y-137875920D01*
X64422933Y-137875920D02*
X64232457Y-137875920D01*
X64232457Y-137875920D02*
X64137219Y-137923539D01*
X64565790Y-138494968D02*
X64470552Y-138542587D01*
X64470552Y-138542587D02*
X64232457Y-138542587D01*
X64232457Y-138542587D02*
X64137219Y-138494968D01*
X64137219Y-138494968D02*
X64089600Y-138399729D01*
X64089600Y-138399729D02*
X64089600Y-138304491D01*
X64089600Y-138304491D02*
X64137219Y-138209253D01*
X64137219Y-138209253D02*
X64232457Y-138161634D01*
X64232457Y-138161634D02*
X64470552Y-138161634D01*
X64470552Y-138161634D02*
X64565790Y-138114015D01*
X64899124Y-137875920D02*
X65280076Y-137875920D01*
X65041981Y-137542587D02*
X65041981Y-138399729D01*
X65041981Y-138399729D02*
X65089600Y-138494968D01*
X65089600Y-138494968D02*
X65184838Y-138542587D01*
X65184838Y-138542587D02*
X65280076Y-138542587D01*
X66041981Y-137875920D02*
X66041981Y-138542587D01*
X65613410Y-137875920D02*
X65613410Y-138399729D01*
X65613410Y-138399729D02*
X65661029Y-138494968D01*
X65661029Y-138494968D02*
X65756267Y-138542587D01*
X65756267Y-138542587D02*
X65899124Y-138542587D01*
X65899124Y-138542587D02*
X65994362Y-138494968D01*
X65994362Y-138494968D02*
X66041981Y-138447348D01*
X66518172Y-138542587D02*
X66518172Y-137875920D01*
X66518172Y-138066396D02*
X66565791Y-137971158D01*
X66565791Y-137971158D02*
X66613410Y-137923539D01*
X66613410Y-137923539D02*
X66708648Y-137875920D01*
X66708648Y-137875920D02*
X66803886Y-137875920D01*
X67518172Y-138494968D02*
X67422934Y-138542587D01*
X67422934Y-138542587D02*
X67232458Y-138542587D01*
X67232458Y-138542587D02*
X67137220Y-138494968D01*
X67137220Y-138494968D02*
X67089601Y-138399729D01*
X67089601Y-138399729D02*
X67089601Y-138018777D01*
X67089601Y-138018777D02*
X67137220Y-137923539D01*
X67137220Y-137923539D02*
X67232458Y-137875920D01*
X67232458Y-137875920D02*
X67422934Y-137875920D01*
X67422934Y-137875920D02*
X67518172Y-137923539D01*
X67518172Y-137923539D02*
X67565791Y-138018777D01*
X67565791Y-138018777D02*
X67565791Y-138114015D01*
X67565791Y-138114015D02*
X67089601Y-138209253D01*
X68708649Y-138494968D02*
X68851506Y-138542587D01*
X68851506Y-138542587D02*
X69089601Y-138542587D01*
X69089601Y-138542587D02*
X69184839Y-138494968D01*
X69184839Y-138494968D02*
X69232458Y-138447348D01*
X69232458Y-138447348D02*
X69280077Y-138352110D01*
X69280077Y-138352110D02*
X69280077Y-138256872D01*
X69280077Y-138256872D02*
X69232458Y-138161634D01*
X69232458Y-138161634D02*
X69184839Y-138114015D01*
X69184839Y-138114015D02*
X69089601Y-138066396D01*
X69089601Y-138066396D02*
X68899125Y-138018777D01*
X68899125Y-138018777D02*
X68803887Y-137971158D01*
X68803887Y-137971158D02*
X68756268Y-137923539D01*
X68756268Y-137923539D02*
X68708649Y-137828301D01*
X68708649Y-137828301D02*
X68708649Y-137733063D01*
X68708649Y-137733063D02*
X68756268Y-137637825D01*
X68756268Y-137637825D02*
X68803887Y-137590206D01*
X68803887Y-137590206D02*
X68899125Y-137542587D01*
X68899125Y-137542587D02*
X69137220Y-137542587D01*
X69137220Y-137542587D02*
X69280077Y-137590206D01*
X70089601Y-138494968D02*
X69994363Y-138542587D01*
X69994363Y-138542587D02*
X69803887Y-138542587D01*
X69803887Y-138542587D02*
X69708649Y-138494968D01*
X69708649Y-138494968D02*
X69661030Y-138399729D01*
X69661030Y-138399729D02*
X69661030Y-138018777D01*
X69661030Y-138018777D02*
X69708649Y-137923539D01*
X69708649Y-137923539D02*
X69803887Y-137875920D01*
X69803887Y-137875920D02*
X69994363Y-137875920D01*
X69994363Y-137875920D02*
X70089601Y-137923539D01*
X70089601Y-137923539D02*
X70137220Y-138018777D01*
X70137220Y-138018777D02*
X70137220Y-138114015D01*
X70137220Y-138114015D02*
X69661030Y-138209253D01*
X70565792Y-137875920D02*
X70565792Y-138542587D01*
X70565792Y-137971158D02*
X70613411Y-137923539D01*
X70613411Y-137923539D02*
X70708649Y-137875920D01*
X70708649Y-137875920D02*
X70851506Y-137875920D01*
X70851506Y-137875920D02*
X70946744Y-137923539D01*
X70946744Y-137923539D02*
X70994363Y-138018777D01*
X70994363Y-138018777D02*
X70994363Y-138542587D01*
X71422935Y-138494968D02*
X71518173Y-138542587D01*
X71518173Y-138542587D02*
X71708649Y-138542587D01*
X71708649Y-138542587D02*
X71803887Y-138494968D01*
X71803887Y-138494968D02*
X71851506Y-138399729D01*
X71851506Y-138399729D02*
X71851506Y-138352110D01*
X71851506Y-138352110D02*
X71803887Y-138256872D01*
X71803887Y-138256872D02*
X71708649Y-138209253D01*
X71708649Y-138209253D02*
X71565792Y-138209253D01*
X71565792Y-138209253D02*
X71470554Y-138161634D01*
X71470554Y-138161634D02*
X71422935Y-138066396D01*
X71422935Y-138066396D02*
X71422935Y-138018777D01*
X71422935Y-138018777D02*
X71470554Y-137923539D01*
X71470554Y-137923539D02*
X71565792Y-137875920D01*
X71565792Y-137875920D02*
X71708649Y-137875920D01*
X71708649Y-137875920D02*
X71803887Y-137923539D01*
X72422935Y-138542587D02*
X72327697Y-138494968D01*
X72327697Y-138494968D02*
X72280078Y-138447348D01*
X72280078Y-138447348D02*
X72232459Y-138352110D01*
X72232459Y-138352110D02*
X72232459Y-138066396D01*
X72232459Y-138066396D02*
X72280078Y-137971158D01*
X72280078Y-137971158D02*
X72327697Y-137923539D01*
X72327697Y-137923539D02*
X72422935Y-137875920D01*
X72422935Y-137875920D02*
X72565792Y-137875920D01*
X72565792Y-137875920D02*
X72661030Y-137923539D01*
X72661030Y-137923539D02*
X72708649Y-137971158D01*
X72708649Y-137971158D02*
X72756268Y-138066396D01*
X72756268Y-138066396D02*
X72756268Y-138352110D01*
X72756268Y-138352110D02*
X72708649Y-138447348D01*
X72708649Y-138447348D02*
X72661030Y-138494968D01*
X72661030Y-138494968D02*
X72565792Y-138542587D01*
X72565792Y-138542587D02*
X72422935Y-138542587D01*
X73184840Y-138542587D02*
X73184840Y-137875920D01*
X73184840Y-138066396D02*
X73232459Y-137971158D01*
X73232459Y-137971158D02*
X73280078Y-137923539D01*
X73280078Y-137923539D02*
X73375316Y-137875920D01*
X73375316Y-137875920D02*
X73470554Y-137875920D01*
X74899126Y-138018777D02*
X75041983Y-138066396D01*
X75041983Y-138066396D02*
X75089602Y-138114015D01*
X75089602Y-138114015D02*
X75137221Y-138209253D01*
X75137221Y-138209253D02*
X75137221Y-138352110D01*
X75137221Y-138352110D02*
X75089602Y-138447348D01*
X75089602Y-138447348D02*
X75041983Y-138494968D01*
X75041983Y-138494968D02*
X74946745Y-138542587D01*
X74946745Y-138542587D02*
X74565793Y-138542587D01*
X74565793Y-138542587D02*
X74565793Y-137542587D01*
X74565793Y-137542587D02*
X74899126Y-137542587D01*
X74899126Y-137542587D02*
X74994364Y-137590206D01*
X74994364Y-137590206D02*
X75041983Y-137637825D01*
X75041983Y-137637825D02*
X75089602Y-137733063D01*
X75089602Y-137733063D02*
X75089602Y-137828301D01*
X75089602Y-137828301D02*
X75041983Y-137923539D01*
X75041983Y-137923539D02*
X74994364Y-137971158D01*
X74994364Y-137971158D02*
X74899126Y-138018777D01*
X74899126Y-138018777D02*
X74565793Y-138018777D01*
X75708650Y-138542587D02*
X75613412Y-138494968D01*
X75613412Y-138494968D02*
X75565793Y-138447348D01*
X75565793Y-138447348D02*
X75518174Y-138352110D01*
X75518174Y-138352110D02*
X75518174Y-138066396D01*
X75518174Y-138066396D02*
X75565793Y-137971158D01*
X75565793Y-137971158D02*
X75613412Y-137923539D01*
X75613412Y-137923539D02*
X75708650Y-137875920D01*
X75708650Y-137875920D02*
X75851507Y-137875920D01*
X75851507Y-137875920D02*
X75946745Y-137923539D01*
X75946745Y-137923539D02*
X75994364Y-137971158D01*
X75994364Y-137971158D02*
X76041983Y-138066396D01*
X76041983Y-138066396D02*
X76041983Y-138352110D01*
X76041983Y-138352110D02*
X75994364Y-138447348D01*
X75994364Y-138447348D02*
X75946745Y-138494968D01*
X75946745Y-138494968D02*
X75851507Y-138542587D01*
X75851507Y-138542587D02*
X75708650Y-138542587D01*
X76899126Y-138542587D02*
X76899126Y-138018777D01*
X76899126Y-138018777D02*
X76851507Y-137923539D01*
X76851507Y-137923539D02*
X76756269Y-137875920D01*
X76756269Y-137875920D02*
X76565793Y-137875920D01*
X76565793Y-137875920D02*
X76470555Y-137923539D01*
X76899126Y-138494968D02*
X76803888Y-138542587D01*
X76803888Y-138542587D02*
X76565793Y-138542587D01*
X76565793Y-138542587D02*
X76470555Y-138494968D01*
X76470555Y-138494968D02*
X76422936Y-138399729D01*
X76422936Y-138399729D02*
X76422936Y-138304491D01*
X76422936Y-138304491D02*
X76470555Y-138209253D01*
X76470555Y-138209253D02*
X76565793Y-138161634D01*
X76565793Y-138161634D02*
X76803888Y-138161634D01*
X76803888Y-138161634D02*
X76899126Y-138114015D01*
X77375317Y-138542587D02*
X77375317Y-137875920D01*
X77375317Y-138066396D02*
X77422936Y-137971158D01*
X77422936Y-137971158D02*
X77470555Y-137923539D01*
X77470555Y-137923539D02*
X77565793Y-137875920D01*
X77565793Y-137875920D02*
X77661031Y-137875920D01*
X78422936Y-138542587D02*
X78422936Y-137542587D01*
X78422936Y-138494968D02*
X78327698Y-138542587D01*
X78327698Y-138542587D02*
X78137222Y-138542587D01*
X78137222Y-138542587D02*
X78041984Y-138494968D01*
X78041984Y-138494968D02*
X77994365Y-138447348D01*
X77994365Y-138447348D02*
X77946746Y-138352110D01*
X77946746Y-138352110D02*
X77946746Y-138066396D01*
X77946746Y-138066396D02*
X77994365Y-137971158D01*
X77994365Y-137971158D02*
X78041984Y-137923539D01*
X78041984Y-137923539D02*
X78137222Y-137875920D01*
X78137222Y-137875920D02*
X78327698Y-137875920D01*
X78327698Y-137875920D02*
X78422936Y-137923539D01*
X48661027Y-139152531D02*
X48994360Y-140152531D01*
X48994360Y-140152531D02*
X49327693Y-139152531D01*
X50041979Y-140104912D02*
X49946741Y-140152531D01*
X49946741Y-140152531D02*
X49756265Y-140152531D01*
X49756265Y-140152531D02*
X49661027Y-140104912D01*
X49661027Y-140104912D02*
X49613408Y-140009673D01*
X49613408Y-140009673D02*
X49613408Y-139628721D01*
X49613408Y-139628721D02*
X49661027Y-139533483D01*
X49661027Y-139533483D02*
X49756265Y-139485864D01*
X49756265Y-139485864D02*
X49946741Y-139485864D01*
X49946741Y-139485864D02*
X50041979Y-139533483D01*
X50041979Y-139533483D02*
X50089598Y-139628721D01*
X50089598Y-139628721D02*
X50089598Y-139723959D01*
X50089598Y-139723959D02*
X49613408Y-139819197D01*
X50518170Y-140152531D02*
X50518170Y-139485864D01*
X50518170Y-139676340D02*
X50565789Y-139581102D01*
X50565789Y-139581102D02*
X50613408Y-139533483D01*
X50613408Y-139533483D02*
X50708646Y-139485864D01*
X50708646Y-139485864D02*
X50803884Y-139485864D01*
X51089599Y-140104912D02*
X51184837Y-140152531D01*
X51184837Y-140152531D02*
X51375313Y-140152531D01*
X51375313Y-140152531D02*
X51470551Y-140104912D01*
X51470551Y-140104912D02*
X51518170Y-140009673D01*
X51518170Y-140009673D02*
X51518170Y-139962054D01*
X51518170Y-139962054D02*
X51470551Y-139866816D01*
X51470551Y-139866816D02*
X51375313Y-139819197D01*
X51375313Y-139819197D02*
X51232456Y-139819197D01*
X51232456Y-139819197D02*
X51137218Y-139771578D01*
X51137218Y-139771578D02*
X51089599Y-139676340D01*
X51089599Y-139676340D02*
X51089599Y-139628721D01*
X51089599Y-139628721D02*
X51137218Y-139533483D01*
X51137218Y-139533483D02*
X51232456Y-139485864D01*
X51232456Y-139485864D02*
X51375313Y-139485864D01*
X51375313Y-139485864D02*
X51470551Y-139533483D01*
X51946742Y-140152531D02*
X51946742Y-139485864D01*
X51946742Y-139152531D02*
X51899123Y-139200150D01*
X51899123Y-139200150D02*
X51946742Y-139247769D01*
X51946742Y-139247769D02*
X51994361Y-139200150D01*
X51994361Y-139200150D02*
X51946742Y-139152531D01*
X51946742Y-139152531D02*
X51946742Y-139247769D01*
X52565789Y-140152531D02*
X52470551Y-140104912D01*
X52470551Y-140104912D02*
X52422932Y-140057292D01*
X52422932Y-140057292D02*
X52375313Y-139962054D01*
X52375313Y-139962054D02*
X52375313Y-139676340D01*
X52375313Y-139676340D02*
X52422932Y-139581102D01*
X52422932Y-139581102D02*
X52470551Y-139533483D01*
X52470551Y-139533483D02*
X52565789Y-139485864D01*
X52565789Y-139485864D02*
X52708646Y-139485864D01*
X52708646Y-139485864D02*
X52803884Y-139533483D01*
X52803884Y-139533483D02*
X52851503Y-139581102D01*
X52851503Y-139581102D02*
X52899122Y-139676340D01*
X52899122Y-139676340D02*
X52899122Y-139962054D01*
X52899122Y-139962054D02*
X52851503Y-140057292D01*
X52851503Y-140057292D02*
X52803884Y-140104912D01*
X52803884Y-140104912D02*
X52708646Y-140152531D01*
X52708646Y-140152531D02*
X52565789Y-140152531D01*
X53327694Y-139485864D02*
X53327694Y-140152531D01*
X53327694Y-139581102D02*
X53375313Y-139533483D01*
X53375313Y-139533483D02*
X53470551Y-139485864D01*
X53470551Y-139485864D02*
X53613408Y-139485864D01*
X53613408Y-139485864D02*
X53708646Y-139533483D01*
X53708646Y-139533483D02*
X53756265Y-139628721D01*
X53756265Y-139628721D02*
X53756265Y-140152531D01*
X54232456Y-140057292D02*
X54280075Y-140104912D01*
X54280075Y-140104912D02*
X54232456Y-140152531D01*
X54232456Y-140152531D02*
X54184837Y-140104912D01*
X54184837Y-140104912D02*
X54232456Y-140057292D01*
X54232456Y-140057292D02*
X54232456Y-140152531D01*
X54232456Y-139533483D02*
X54280075Y-139581102D01*
X54280075Y-139581102D02*
X54232456Y-139628721D01*
X54232456Y-139628721D02*
X54184837Y-139581102D01*
X54184837Y-139581102D02*
X54232456Y-139533483D01*
X54232456Y-139533483D02*
X54232456Y-139628721D01*
X55470551Y-140152531D02*
X55470551Y-139152531D01*
X55470551Y-139152531D02*
X55803884Y-139866816D01*
X55803884Y-139866816D02*
X56137217Y-139152531D01*
X56137217Y-139152531D02*
X56137217Y-140152531D01*
X56613408Y-140152531D02*
X56613408Y-139152531D01*
X56708646Y-139771578D02*
X56994360Y-140152531D01*
X56994360Y-139485864D02*
X56613408Y-139866816D01*
X58708646Y-140152531D02*
X58137218Y-140152531D01*
X58422932Y-140152531D02*
X58422932Y-139152531D01*
X58422932Y-139152531D02*
X58327694Y-139295388D01*
X58327694Y-139295388D02*
X58232456Y-139390626D01*
X58232456Y-139390626D02*
X58137218Y-139438245D01*
X48803884Y-141762475D02*
X48803884Y-140762475D01*
X48803884Y-140762475D02*
X49041979Y-140762475D01*
X49041979Y-140762475D02*
X49184836Y-140810094D01*
X49184836Y-140810094D02*
X49280074Y-140905332D01*
X49280074Y-140905332D02*
X49327693Y-141000570D01*
X49327693Y-141000570D02*
X49375312Y-141191046D01*
X49375312Y-141191046D02*
X49375312Y-141333903D01*
X49375312Y-141333903D02*
X49327693Y-141524379D01*
X49327693Y-141524379D02*
X49280074Y-141619617D01*
X49280074Y-141619617D02*
X49184836Y-141714856D01*
X49184836Y-141714856D02*
X49041979Y-141762475D01*
X49041979Y-141762475D02*
X48803884Y-141762475D01*
X50232455Y-141762475D02*
X50232455Y-141238665D01*
X50232455Y-141238665D02*
X50184836Y-141143427D01*
X50184836Y-141143427D02*
X50089598Y-141095808D01*
X50089598Y-141095808D02*
X49899122Y-141095808D01*
X49899122Y-141095808D02*
X49803884Y-141143427D01*
X50232455Y-141714856D02*
X50137217Y-141762475D01*
X50137217Y-141762475D02*
X49899122Y-141762475D01*
X49899122Y-141762475D02*
X49803884Y-141714856D01*
X49803884Y-141714856D02*
X49756265Y-141619617D01*
X49756265Y-141619617D02*
X49756265Y-141524379D01*
X49756265Y-141524379D02*
X49803884Y-141429141D01*
X49803884Y-141429141D02*
X49899122Y-141381522D01*
X49899122Y-141381522D02*
X50137217Y-141381522D01*
X50137217Y-141381522D02*
X50232455Y-141333903D01*
X50565789Y-141095808D02*
X50946741Y-141095808D01*
X50708646Y-140762475D02*
X50708646Y-141619617D01*
X50708646Y-141619617D02*
X50756265Y-141714856D01*
X50756265Y-141714856D02*
X50851503Y-141762475D01*
X50851503Y-141762475D02*
X50946741Y-141762475D01*
X51661027Y-141714856D02*
X51565789Y-141762475D01*
X51565789Y-141762475D02*
X51375313Y-141762475D01*
X51375313Y-141762475D02*
X51280075Y-141714856D01*
X51280075Y-141714856D02*
X51232456Y-141619617D01*
X51232456Y-141619617D02*
X51232456Y-141238665D01*
X51232456Y-141238665D02*
X51280075Y-141143427D01*
X51280075Y-141143427D02*
X51375313Y-141095808D01*
X51375313Y-141095808D02*
X51565789Y-141095808D01*
X51565789Y-141095808D02*
X51661027Y-141143427D01*
X51661027Y-141143427D02*
X51708646Y-141238665D01*
X51708646Y-141238665D02*
X51708646Y-141333903D01*
X51708646Y-141333903D02*
X51232456Y-141429141D01*
X52137218Y-141667236D02*
X52184837Y-141714856D01*
X52184837Y-141714856D02*
X52137218Y-141762475D01*
X52137218Y-141762475D02*
X52089599Y-141714856D01*
X52089599Y-141714856D02*
X52137218Y-141667236D01*
X52137218Y-141667236D02*
X52137218Y-141762475D01*
X52137218Y-141143427D02*
X52184837Y-141191046D01*
X52184837Y-141191046D02*
X52137218Y-141238665D01*
X52137218Y-141238665D02*
X52089599Y-141191046D01*
X52089599Y-141191046D02*
X52137218Y-141143427D01*
X52137218Y-141143427D02*
X52137218Y-141238665D01*
X53661027Y-140762475D02*
X53661027Y-141476760D01*
X53661027Y-141476760D02*
X53613408Y-141619617D01*
X53613408Y-141619617D02*
X53518170Y-141714856D01*
X53518170Y-141714856D02*
X53375313Y-141762475D01*
X53375313Y-141762475D02*
X53280075Y-141762475D01*
X54565789Y-141095808D02*
X54565789Y-141762475D01*
X54137218Y-141095808D02*
X54137218Y-141619617D01*
X54137218Y-141619617D02*
X54184837Y-141714856D01*
X54184837Y-141714856D02*
X54280075Y-141762475D01*
X54280075Y-141762475D02*
X54422932Y-141762475D01*
X54422932Y-141762475D02*
X54518170Y-141714856D01*
X54518170Y-141714856D02*
X54565789Y-141667236D01*
X55184837Y-141762475D02*
X55089599Y-141714856D01*
X55089599Y-141714856D02*
X55041980Y-141619617D01*
X55041980Y-141619617D02*
X55041980Y-140762475D01*
X55470552Y-141095808D02*
X55708647Y-141762475D01*
X55946742Y-141095808D02*
X55708647Y-141762475D01*
X55708647Y-141762475D02*
X55613409Y-142000570D01*
X55613409Y-142000570D02*
X55565790Y-142048189D01*
X55565790Y-142048189D02*
X55470552Y-142095808D01*
X57518171Y-140762475D02*
X57327695Y-140762475D01*
X57327695Y-140762475D02*
X57232457Y-140810094D01*
X57232457Y-140810094D02*
X57184838Y-140857713D01*
X57184838Y-140857713D02*
X57089600Y-141000570D01*
X57089600Y-141000570D02*
X57041981Y-141191046D01*
X57041981Y-141191046D02*
X57041981Y-141571998D01*
X57041981Y-141571998D02*
X57089600Y-141667236D01*
X57089600Y-141667236D02*
X57137219Y-141714856D01*
X57137219Y-141714856D02*
X57232457Y-141762475D01*
X57232457Y-141762475D02*
X57422933Y-141762475D01*
X57422933Y-141762475D02*
X57518171Y-141714856D01*
X57518171Y-141714856D02*
X57565790Y-141667236D01*
X57565790Y-141667236D02*
X57613409Y-141571998D01*
X57613409Y-141571998D02*
X57613409Y-141333903D01*
X57613409Y-141333903D02*
X57565790Y-141238665D01*
X57565790Y-141238665D02*
X57518171Y-141191046D01*
X57518171Y-141191046D02*
X57422933Y-141143427D01*
X57422933Y-141143427D02*
X57232457Y-141143427D01*
X57232457Y-141143427D02*
X57137219Y-141191046D01*
X57137219Y-141191046D02*
X57089600Y-141238665D01*
X57089600Y-141238665D02*
X57041981Y-141333903D01*
X57899124Y-141095808D02*
X58280076Y-141095808D01*
X58041981Y-140762475D02*
X58041981Y-141619617D01*
X58041981Y-141619617D02*
X58089600Y-141714856D01*
X58089600Y-141714856D02*
X58184838Y-141762475D01*
X58184838Y-141762475D02*
X58280076Y-141762475D01*
X58613410Y-141762475D02*
X58613410Y-140762475D01*
X59041981Y-141762475D02*
X59041981Y-141238665D01*
X59041981Y-141238665D02*
X58994362Y-141143427D01*
X58994362Y-141143427D02*
X58899124Y-141095808D01*
X58899124Y-141095808D02*
X58756267Y-141095808D01*
X58756267Y-141095808D02*
X58661029Y-141143427D01*
X58661029Y-141143427D02*
X58613410Y-141191046D01*
X59565791Y-141714856D02*
X59565791Y-141762475D01*
X59565791Y-141762475D02*
X59518172Y-141857713D01*
X59518172Y-141857713D02*
X59470553Y-141905332D01*
X60708648Y-140857713D02*
X60756267Y-140810094D01*
X60756267Y-140810094D02*
X60851505Y-140762475D01*
X60851505Y-140762475D02*
X61089600Y-140762475D01*
X61089600Y-140762475D02*
X61184838Y-140810094D01*
X61184838Y-140810094D02*
X61232457Y-140857713D01*
X61232457Y-140857713D02*
X61280076Y-140952951D01*
X61280076Y-140952951D02*
X61280076Y-141048189D01*
X61280076Y-141048189D02*
X61232457Y-141191046D01*
X61232457Y-141191046D02*
X60661029Y-141762475D01*
X60661029Y-141762475D02*
X61280076Y-141762475D01*
X61899124Y-140762475D02*
X61994362Y-140762475D01*
X61994362Y-140762475D02*
X62089600Y-140810094D01*
X62089600Y-140810094D02*
X62137219Y-140857713D01*
X62137219Y-140857713D02*
X62184838Y-140952951D01*
X62184838Y-140952951D02*
X62232457Y-141143427D01*
X62232457Y-141143427D02*
X62232457Y-141381522D01*
X62232457Y-141381522D02*
X62184838Y-141571998D01*
X62184838Y-141571998D02*
X62137219Y-141667236D01*
X62137219Y-141667236D02*
X62089600Y-141714856D01*
X62089600Y-141714856D02*
X61994362Y-141762475D01*
X61994362Y-141762475D02*
X61899124Y-141762475D01*
X61899124Y-141762475D02*
X61803886Y-141714856D01*
X61803886Y-141714856D02*
X61756267Y-141667236D01*
X61756267Y-141667236D02*
X61708648Y-141571998D01*
X61708648Y-141571998D02*
X61661029Y-141381522D01*
X61661029Y-141381522D02*
X61661029Y-141143427D01*
X61661029Y-141143427D02*
X61708648Y-140952951D01*
X61708648Y-140952951D02*
X61756267Y-140857713D01*
X61756267Y-140857713D02*
X61803886Y-140810094D01*
X61803886Y-140810094D02*
X61899124Y-140762475D01*
X62613410Y-140857713D02*
X62661029Y-140810094D01*
X62661029Y-140810094D02*
X62756267Y-140762475D01*
X62756267Y-140762475D02*
X62994362Y-140762475D01*
X62994362Y-140762475D02*
X63089600Y-140810094D01*
X63089600Y-140810094D02*
X63137219Y-140857713D01*
X63137219Y-140857713D02*
X63184838Y-140952951D01*
X63184838Y-140952951D02*
X63184838Y-141048189D01*
X63184838Y-141048189D02*
X63137219Y-141191046D01*
X63137219Y-141191046D02*
X62565791Y-141762475D01*
X62565791Y-141762475D02*
X63184838Y-141762475D01*
X64089600Y-140762475D02*
X63613410Y-140762475D01*
X63613410Y-140762475D02*
X63565791Y-141238665D01*
X63565791Y-141238665D02*
X63613410Y-141191046D01*
X63613410Y-141191046D02*
X63708648Y-141143427D01*
X63708648Y-141143427D02*
X63946743Y-141143427D01*
X63946743Y-141143427D02*
X64041981Y-141191046D01*
X64041981Y-141191046D02*
X64089600Y-141238665D01*
X64089600Y-141238665D02*
X64137219Y-141333903D01*
X64137219Y-141333903D02*
X64137219Y-141571998D01*
X64137219Y-141571998D02*
X64089600Y-141667236D01*
X64089600Y-141667236D02*
X64041981Y-141714856D01*
X64041981Y-141714856D02*
X63946743Y-141762475D01*
X63946743Y-141762475D02*
X63708648Y-141762475D01*
X63708648Y-141762475D02*
X63613410Y-141714856D01*
X63613410Y-141714856D02*
X63565791Y-141667236D01*
X48803884Y-143372419D02*
X48803884Y-142372419D01*
X48803884Y-142372419D02*
X49041979Y-142372419D01*
X49041979Y-142372419D02*
X49184836Y-142420038D01*
X49184836Y-142420038D02*
X49280074Y-142515276D01*
X49280074Y-142515276D02*
X49327693Y-142610514D01*
X49327693Y-142610514D02*
X49375312Y-142800990D01*
X49375312Y-142800990D02*
X49375312Y-142943847D01*
X49375312Y-142943847D02*
X49327693Y-143134323D01*
X49327693Y-143134323D02*
X49280074Y-143229561D01*
X49280074Y-143229561D02*
X49184836Y-143324800D01*
X49184836Y-143324800D02*
X49041979Y-143372419D01*
X49041979Y-143372419D02*
X48803884Y-143372419D01*
X50184836Y-143324800D02*
X50089598Y-143372419D01*
X50089598Y-143372419D02*
X49899122Y-143372419D01*
X49899122Y-143372419D02*
X49803884Y-143324800D01*
X49803884Y-143324800D02*
X49756265Y-143229561D01*
X49756265Y-143229561D02*
X49756265Y-142848609D01*
X49756265Y-142848609D02*
X49803884Y-142753371D01*
X49803884Y-142753371D02*
X49899122Y-142705752D01*
X49899122Y-142705752D02*
X50089598Y-142705752D01*
X50089598Y-142705752D02*
X50184836Y-142753371D01*
X50184836Y-142753371D02*
X50232455Y-142848609D01*
X50232455Y-142848609D02*
X50232455Y-142943847D01*
X50232455Y-142943847D02*
X49756265Y-143039085D01*
X50613408Y-143324800D02*
X50708646Y-143372419D01*
X50708646Y-143372419D02*
X50899122Y-143372419D01*
X50899122Y-143372419D02*
X50994360Y-143324800D01*
X50994360Y-143324800D02*
X51041979Y-143229561D01*
X51041979Y-143229561D02*
X51041979Y-143181942D01*
X51041979Y-143181942D02*
X50994360Y-143086704D01*
X50994360Y-143086704D02*
X50899122Y-143039085D01*
X50899122Y-143039085D02*
X50756265Y-143039085D01*
X50756265Y-143039085D02*
X50661027Y-142991466D01*
X50661027Y-142991466D02*
X50613408Y-142896228D01*
X50613408Y-142896228D02*
X50613408Y-142848609D01*
X50613408Y-142848609D02*
X50661027Y-142753371D01*
X50661027Y-142753371D02*
X50756265Y-142705752D01*
X50756265Y-142705752D02*
X50899122Y-142705752D01*
X50899122Y-142705752D02*
X50994360Y-142753371D01*
X51470551Y-143372419D02*
X51470551Y-142705752D01*
X51470551Y-142372419D02*
X51422932Y-142420038D01*
X51422932Y-142420038D02*
X51470551Y-142467657D01*
X51470551Y-142467657D02*
X51518170Y-142420038D01*
X51518170Y-142420038D02*
X51470551Y-142372419D01*
X51470551Y-142372419D02*
X51470551Y-142467657D01*
X52375312Y-142705752D02*
X52375312Y-143515276D01*
X52375312Y-143515276D02*
X52327693Y-143610514D01*
X52327693Y-143610514D02*
X52280074Y-143658133D01*
X52280074Y-143658133D02*
X52184836Y-143705752D01*
X52184836Y-143705752D02*
X52041979Y-143705752D01*
X52041979Y-143705752D02*
X51946741Y-143658133D01*
X52375312Y-143324800D02*
X52280074Y-143372419D01*
X52280074Y-143372419D02*
X52089598Y-143372419D01*
X52089598Y-143372419D02*
X51994360Y-143324800D01*
X51994360Y-143324800D02*
X51946741Y-143277180D01*
X51946741Y-143277180D02*
X51899122Y-143181942D01*
X51899122Y-143181942D02*
X51899122Y-142896228D01*
X51899122Y-142896228D02*
X51946741Y-142800990D01*
X51946741Y-142800990D02*
X51994360Y-142753371D01*
X51994360Y-142753371D02*
X52089598Y-142705752D01*
X52089598Y-142705752D02*
X52280074Y-142705752D01*
X52280074Y-142705752D02*
X52375312Y-142753371D01*
X52851503Y-142705752D02*
X52851503Y-143372419D01*
X52851503Y-142800990D02*
X52899122Y-142753371D01*
X52899122Y-142753371D02*
X52994360Y-142705752D01*
X52994360Y-142705752D02*
X53137217Y-142705752D01*
X53137217Y-142705752D02*
X53232455Y-142753371D01*
X53232455Y-142753371D02*
X53280074Y-142848609D01*
X53280074Y-142848609D02*
X53280074Y-143372419D01*
X54137217Y-143324800D02*
X54041979Y-143372419D01*
X54041979Y-143372419D02*
X53851503Y-143372419D01*
X53851503Y-143372419D02*
X53756265Y-143324800D01*
X53756265Y-143324800D02*
X53708646Y-143229561D01*
X53708646Y-143229561D02*
X53708646Y-142848609D01*
X53708646Y-142848609D02*
X53756265Y-142753371D01*
X53756265Y-142753371D02*
X53851503Y-142705752D01*
X53851503Y-142705752D02*
X54041979Y-142705752D01*
X54041979Y-142705752D02*
X54137217Y-142753371D01*
X54137217Y-142753371D02*
X54184836Y-142848609D01*
X54184836Y-142848609D02*
X54184836Y-142943847D01*
X54184836Y-142943847D02*
X53708646Y-143039085D01*
X54613408Y-143372419D02*
X54613408Y-142705752D01*
X54613408Y-142896228D02*
X54661027Y-142800990D01*
X54661027Y-142800990D02*
X54708646Y-142753371D01*
X54708646Y-142753371D02*
X54803884Y-142705752D01*
X54803884Y-142705752D02*
X54899122Y-142705752D01*
X55232456Y-143277180D02*
X55280075Y-143324800D01*
X55280075Y-143324800D02*
X55232456Y-143372419D01*
X55232456Y-143372419D02*
X55184837Y-143324800D01*
X55184837Y-143324800D02*
X55232456Y-143277180D01*
X55232456Y-143277180D02*
X55232456Y-143372419D01*
X55232456Y-142753371D02*
X55280075Y-142800990D01*
X55280075Y-142800990D02*
X55232456Y-142848609D01*
X55232456Y-142848609D02*
X55184837Y-142800990D01*
X55184837Y-142800990D02*
X55232456Y-142753371D01*
X55232456Y-142753371D02*
X55232456Y-142848609D01*
X56422932Y-143324800D02*
X56565789Y-143372419D01*
X56565789Y-143372419D02*
X56803884Y-143372419D01*
X56803884Y-143372419D02*
X56899122Y-143324800D01*
X56899122Y-143324800D02*
X56946741Y-143277180D01*
X56946741Y-143277180D02*
X56994360Y-143181942D01*
X56994360Y-143181942D02*
X56994360Y-143086704D01*
X56994360Y-143086704D02*
X56946741Y-142991466D01*
X56946741Y-142991466D02*
X56899122Y-142943847D01*
X56899122Y-142943847D02*
X56803884Y-142896228D01*
X56803884Y-142896228D02*
X56613408Y-142848609D01*
X56613408Y-142848609D02*
X56518170Y-142800990D01*
X56518170Y-142800990D02*
X56470551Y-142753371D01*
X56470551Y-142753371D02*
X56422932Y-142658133D01*
X56422932Y-142658133D02*
X56422932Y-142562895D01*
X56422932Y-142562895D02*
X56470551Y-142467657D01*
X56470551Y-142467657D02*
X56518170Y-142420038D01*
X56518170Y-142420038D02*
X56613408Y-142372419D01*
X56613408Y-142372419D02*
X56851503Y-142372419D01*
X56851503Y-142372419D02*
X56994360Y-142420038D01*
X57422932Y-143372419D02*
X57422932Y-142372419D01*
X57851503Y-143372419D02*
X57851503Y-142848609D01*
X57851503Y-142848609D02*
X57803884Y-142753371D01*
X57803884Y-142753371D02*
X57708646Y-142705752D01*
X57708646Y-142705752D02*
X57565789Y-142705752D01*
X57565789Y-142705752D02*
X57470551Y-142753371D01*
X57470551Y-142753371D02*
X57422932Y-142800990D01*
X58756265Y-143372419D02*
X58756265Y-142848609D01*
X58756265Y-142848609D02*
X58708646Y-142753371D01*
X58708646Y-142753371D02*
X58613408Y-142705752D01*
X58613408Y-142705752D02*
X58422932Y-142705752D01*
X58422932Y-142705752D02*
X58327694Y-142753371D01*
X58756265Y-143324800D02*
X58661027Y-143372419D01*
X58661027Y-143372419D02*
X58422932Y-143372419D01*
X58422932Y-143372419D02*
X58327694Y-143324800D01*
X58327694Y-143324800D02*
X58280075Y-143229561D01*
X58280075Y-143229561D02*
X58280075Y-143134323D01*
X58280075Y-143134323D02*
X58327694Y-143039085D01*
X58327694Y-143039085D02*
X58422932Y-142991466D01*
X58422932Y-142991466D02*
X58661027Y-142991466D01*
X58661027Y-142991466D02*
X58756265Y-142943847D01*
X59661027Y-142705752D02*
X59661027Y-143372419D01*
X59232456Y-142705752D02*
X59232456Y-143229561D01*
X59232456Y-143229561D02*
X59280075Y-143324800D01*
X59280075Y-143324800D02*
X59375313Y-143372419D01*
X59375313Y-143372419D02*
X59518170Y-143372419D01*
X59518170Y-143372419D02*
X59613408Y-143324800D01*
X59613408Y-143324800D02*
X59661027Y-143277180D01*
X60137218Y-142705752D02*
X60137218Y-143372419D01*
X60137218Y-142800990D02*
X60184837Y-142753371D01*
X60184837Y-142753371D02*
X60280075Y-142705752D01*
X60280075Y-142705752D02*
X60422932Y-142705752D01*
X60422932Y-142705752D02*
X60518170Y-142753371D01*
X60518170Y-142753371D02*
X60565789Y-142848609D01*
X60565789Y-142848609D02*
X60565789Y-143372419D01*
X61661028Y-142372419D02*
X62232456Y-142372419D01*
X61946742Y-143372419D02*
X61946742Y-142372419D01*
X62565790Y-143372419D02*
X62565790Y-142372419D01*
X62994361Y-143372419D02*
X62994361Y-142848609D01*
X62994361Y-142848609D02*
X62946742Y-142753371D01*
X62946742Y-142753371D02*
X62851504Y-142705752D01*
X62851504Y-142705752D02*
X62708647Y-142705752D01*
X62708647Y-142705752D02*
X62613409Y-142753371D01*
X62613409Y-142753371D02*
X62565790Y-142800990D01*
X63613409Y-143372419D02*
X63518171Y-143324800D01*
X63518171Y-143324800D02*
X63470552Y-143277180D01*
X63470552Y-143277180D02*
X63422933Y-143181942D01*
X63422933Y-143181942D02*
X63422933Y-142896228D01*
X63422933Y-142896228D02*
X63470552Y-142800990D01*
X63470552Y-142800990D02*
X63518171Y-142753371D01*
X63518171Y-142753371D02*
X63613409Y-142705752D01*
X63613409Y-142705752D02*
X63756266Y-142705752D01*
X63756266Y-142705752D02*
X63851504Y-142753371D01*
X63851504Y-142753371D02*
X63899123Y-142800990D01*
X63899123Y-142800990D02*
X63946742Y-142896228D01*
X63946742Y-142896228D02*
X63946742Y-143181942D01*
X63946742Y-143181942D02*
X63899123Y-143277180D01*
X63899123Y-143277180D02*
X63851504Y-143324800D01*
X63851504Y-143324800D02*
X63756266Y-143372419D01*
X63756266Y-143372419D02*
X63613409Y-143372419D01*
X64375314Y-143372419D02*
X64375314Y-142705752D01*
X64375314Y-142800990D02*
X64422933Y-142753371D01*
X64422933Y-142753371D02*
X64518171Y-142705752D01*
X64518171Y-142705752D02*
X64661028Y-142705752D01*
X64661028Y-142705752D02*
X64756266Y-142753371D01*
X64756266Y-142753371D02*
X64803885Y-142848609D01*
X64803885Y-142848609D02*
X64803885Y-143372419D01*
X64803885Y-142848609D02*
X64851504Y-142753371D01*
X64851504Y-142753371D02*
X64946742Y-142705752D01*
X64946742Y-142705752D02*
X65089599Y-142705752D01*
X65089599Y-142705752D02*
X65184838Y-142753371D01*
X65184838Y-142753371D02*
X65232457Y-142848609D01*
X65232457Y-142848609D02*
X65232457Y-143372419D01*
X66137218Y-143372419D02*
X66137218Y-142848609D01*
X66137218Y-142848609D02*
X66089599Y-142753371D01*
X66089599Y-142753371D02*
X65994361Y-142705752D01*
X65994361Y-142705752D02*
X65803885Y-142705752D01*
X65803885Y-142705752D02*
X65708647Y-142753371D01*
X66137218Y-143324800D02*
X66041980Y-143372419D01*
X66041980Y-143372419D02*
X65803885Y-143372419D01*
X65803885Y-143372419D02*
X65708647Y-143324800D01*
X65708647Y-143324800D02*
X65661028Y-143229561D01*
X65661028Y-143229561D02*
X65661028Y-143134323D01*
X65661028Y-143134323D02*
X65708647Y-143039085D01*
X65708647Y-143039085D02*
X65803885Y-142991466D01*
X65803885Y-142991466D02*
X66041980Y-142991466D01*
X66041980Y-142991466D02*
X66137218Y-142943847D01*
X66565790Y-143324800D02*
X66661028Y-143372419D01*
X66661028Y-143372419D02*
X66851504Y-143372419D01*
X66851504Y-143372419D02*
X66946742Y-143324800D01*
X66946742Y-143324800D02*
X66994361Y-143229561D01*
X66994361Y-143229561D02*
X66994361Y-143181942D01*
X66994361Y-143181942D02*
X66946742Y-143086704D01*
X66946742Y-143086704D02*
X66851504Y-143039085D01*
X66851504Y-143039085D02*
X66708647Y-143039085D01*
X66708647Y-143039085D02*
X66613409Y-142991466D01*
X66613409Y-142991466D02*
X66565790Y-142896228D01*
X66565790Y-142896228D02*
X66565790Y-142848609D01*
X66565790Y-142848609D02*
X66613409Y-142753371D01*
X66613409Y-142753371D02*
X66708647Y-142705752D01*
X66708647Y-142705752D02*
X66851504Y-142705752D01*
X66851504Y-142705752D02*
X66946742Y-142753371D01*
D11*
X115166666Y-152954819D02*
X114833333Y-152478628D01*
X114595238Y-152954819D02*
X114595238Y-151954819D01*
X114595238Y-151954819D02*
X114976190Y-151954819D01*
X114976190Y-151954819D02*
X115071428Y-152002438D01*
X115071428Y-152002438D02*
X115119047Y-152050057D01*
X115119047Y-152050057D02*
X115166666Y-152145295D01*
X115166666Y-152145295D02*
X115166666Y-152288152D01*
X115166666Y-152288152D02*
X115119047Y-152383390D01*
X115119047Y-152383390D02*
X115071428Y-152431009D01*
X115071428Y-152431009D02*
X114976190Y-152478628D01*
X114976190Y-152478628D02*
X114595238Y-152478628D01*
X115595238Y-152431009D02*
X115928571Y-152431009D01*
X116071428Y-152954819D02*
X115595238Y-152954819D01*
X115595238Y-152954819D02*
X115595238Y-151954819D01*
X115595238Y-151954819D02*
X116071428Y-151954819D01*
X116833333Y-152431009D02*
X116500000Y-152431009D01*
X116500000Y-152954819D02*
X116500000Y-151954819D01*
X116500000Y-151954819D02*
X116976190Y-151954819D01*
X117500000Y-151954819D02*
X117500000Y-152192914D01*
X117261905Y-152097676D02*
X117500000Y-152192914D01*
X117500000Y-152192914D02*
X117738095Y-152097676D01*
X117357143Y-152383390D02*
X117500000Y-152192914D01*
X117500000Y-152192914D02*
X117642857Y-152383390D01*
X118261905Y-151954819D02*
X118261905Y-152192914D01*
X118023810Y-152097676D02*
X118261905Y-152192914D01*
X118261905Y-152192914D02*
X118500000Y-152097676D01*
X118119048Y-152383390D02*
X118261905Y-152192914D01*
X118261905Y-152192914D02*
X118404762Y-152383390D01*
X42166666Y-152954819D02*
X41833333Y-152478628D01*
X41595238Y-152954819D02*
X41595238Y-151954819D01*
X41595238Y-151954819D02*
X41976190Y-151954819D01*
X41976190Y-151954819D02*
X42071428Y-152002438D01*
X42071428Y-152002438D02*
X42119047Y-152050057D01*
X42119047Y-152050057D02*
X42166666Y-152145295D01*
X42166666Y-152145295D02*
X42166666Y-152288152D01*
X42166666Y-152288152D02*
X42119047Y-152383390D01*
X42119047Y-152383390D02*
X42071428Y-152431009D01*
X42071428Y-152431009D02*
X41976190Y-152478628D01*
X41976190Y-152478628D02*
X41595238Y-152478628D01*
X42595238Y-152431009D02*
X42928571Y-152431009D01*
X43071428Y-152954819D02*
X42595238Y-152954819D01*
X42595238Y-152954819D02*
X42595238Y-151954819D01*
X42595238Y-151954819D02*
X43071428Y-151954819D01*
X43833333Y-152431009D02*
X43500000Y-152431009D01*
X43500000Y-152954819D02*
X43500000Y-151954819D01*
X43500000Y-151954819D02*
X43976190Y-151954819D01*
X44500000Y-151954819D02*
X44500000Y-152192914D01*
X44261905Y-152097676D02*
X44500000Y-152192914D01*
X44500000Y-152192914D02*
X44738095Y-152097676D01*
X44357143Y-152383390D02*
X44500000Y-152192914D01*
X44500000Y-152192914D02*
X44642857Y-152383390D01*
X45261905Y-151954819D02*
X45261905Y-152192914D01*
X45023810Y-152097676D02*
X45261905Y-152192914D01*
X45261905Y-152192914D02*
X45500000Y-152097676D01*
X45119048Y-152383390D02*
X45261905Y-152192914D01*
X45261905Y-152192914D02*
X45404762Y-152383390D01*
X113666666Y-71454819D02*
X113333333Y-70978628D01*
X113095238Y-71454819D02*
X113095238Y-70454819D01*
X113095238Y-70454819D02*
X113476190Y-70454819D01*
X113476190Y-70454819D02*
X113571428Y-70502438D01*
X113571428Y-70502438D02*
X113619047Y-70550057D01*
X113619047Y-70550057D02*
X113666666Y-70645295D01*
X113666666Y-70645295D02*
X113666666Y-70788152D01*
X113666666Y-70788152D02*
X113619047Y-70883390D01*
X113619047Y-70883390D02*
X113571428Y-70931009D01*
X113571428Y-70931009D02*
X113476190Y-70978628D01*
X113476190Y-70978628D02*
X113095238Y-70978628D01*
X114095238Y-70931009D02*
X114428571Y-70931009D01*
X114571428Y-71454819D02*
X114095238Y-71454819D01*
X114095238Y-71454819D02*
X114095238Y-70454819D01*
X114095238Y-70454819D02*
X114571428Y-70454819D01*
X115333333Y-70931009D02*
X115000000Y-70931009D01*
X115000000Y-71454819D02*
X115000000Y-70454819D01*
X115000000Y-70454819D02*
X115476190Y-70454819D01*
X116000000Y-70454819D02*
X116000000Y-70692914D01*
X115761905Y-70597676D02*
X116000000Y-70692914D01*
X116000000Y-70692914D02*
X116238095Y-70597676D01*
X115857143Y-70883390D02*
X116000000Y-70692914D01*
X116000000Y-70692914D02*
X116142857Y-70883390D01*
X116761905Y-70454819D02*
X116761905Y-70692914D01*
X116523810Y-70597676D02*
X116761905Y-70692914D01*
X116761905Y-70692914D02*
X117000000Y-70597676D01*
X116619048Y-70883390D02*
X116761905Y-70692914D01*
X116761905Y-70692914D02*
X116904762Y-70883390D01*
X44166666Y-70954819D02*
X43833333Y-70478628D01*
X43595238Y-70954819D02*
X43595238Y-69954819D01*
X43595238Y-69954819D02*
X43976190Y-69954819D01*
X43976190Y-69954819D02*
X44071428Y-70002438D01*
X44071428Y-70002438D02*
X44119047Y-70050057D01*
X44119047Y-70050057D02*
X44166666Y-70145295D01*
X44166666Y-70145295D02*
X44166666Y-70288152D01*
X44166666Y-70288152D02*
X44119047Y-70383390D01*
X44119047Y-70383390D02*
X44071428Y-70431009D01*
X44071428Y-70431009D02*
X43976190Y-70478628D01*
X43976190Y-70478628D02*
X43595238Y-70478628D01*
X44595238Y-70431009D02*
X44928571Y-70431009D01*
X45071428Y-70954819D02*
X44595238Y-70954819D01*
X44595238Y-70954819D02*
X44595238Y-69954819D01*
X44595238Y-69954819D02*
X45071428Y-69954819D01*
X45833333Y-70431009D02*
X45500000Y-70431009D01*
X45500000Y-70954819D02*
X45500000Y-69954819D01*
X45500000Y-69954819D02*
X45976190Y-69954819D01*
X46500000Y-69954819D02*
X46500000Y-70192914D01*
X46261905Y-70097676D02*
X46500000Y-70192914D01*
X46500000Y-70192914D02*
X46738095Y-70097676D01*
X46357143Y-70383390D02*
X46500000Y-70192914D01*
X46500000Y-70192914D02*
X46642857Y-70383390D01*
X47261905Y-69954819D02*
X47261905Y-70192914D01*
X47023810Y-70097676D02*
X47261905Y-70192914D01*
X47261905Y-70192914D02*
X47500000Y-70097676D01*
X47119048Y-70383390D02*
X47261905Y-70192914D01*
X47261905Y-70192914D02*
X47404762Y-70383390D01*
X96047619Y-89454819D02*
X96619047Y-89454819D01*
X96333333Y-90454819D02*
X96333333Y-89454819D01*
X97333333Y-90407200D02*
X97238095Y-90454819D01*
X97238095Y-90454819D02*
X97047619Y-90454819D01*
X97047619Y-90454819D02*
X96952381Y-90407200D01*
X96952381Y-90407200D02*
X96904762Y-90311961D01*
X96904762Y-90311961D02*
X96904762Y-89931009D01*
X96904762Y-89931009D02*
X96952381Y-89835771D01*
X96952381Y-89835771D02*
X97047619Y-89788152D01*
X97047619Y-89788152D02*
X97238095Y-89788152D01*
X97238095Y-89788152D02*
X97333333Y-89835771D01*
X97333333Y-89835771D02*
X97380952Y-89931009D01*
X97380952Y-89931009D02*
X97380952Y-90026247D01*
X97380952Y-90026247D02*
X96904762Y-90121485D01*
X97809524Y-90454819D02*
X97809524Y-89788152D01*
X97809524Y-89883390D02*
X97857143Y-89835771D01*
X97857143Y-89835771D02*
X97952381Y-89788152D01*
X97952381Y-89788152D02*
X98095238Y-89788152D01*
X98095238Y-89788152D02*
X98190476Y-89835771D01*
X98190476Y-89835771D02*
X98238095Y-89931009D01*
X98238095Y-89931009D02*
X98238095Y-90454819D01*
X98238095Y-89931009D02*
X98285714Y-89835771D01*
X98285714Y-89835771D02*
X98380952Y-89788152D01*
X98380952Y-89788152D02*
X98523809Y-89788152D01*
X98523809Y-89788152D02*
X98619048Y-89835771D01*
X98619048Y-89835771D02*
X98666667Y-89931009D01*
X98666667Y-89931009D02*
X98666667Y-90454819D01*
X99142857Y-89788152D02*
X99142857Y-90788152D01*
X99142857Y-89835771D02*
X99238095Y-89788152D01*
X99238095Y-89788152D02*
X99428571Y-89788152D01*
X99428571Y-89788152D02*
X99523809Y-89835771D01*
X99523809Y-89835771D02*
X99571428Y-89883390D01*
X99571428Y-89883390D02*
X99619047Y-89978628D01*
X99619047Y-89978628D02*
X99619047Y-90264342D01*
X99619047Y-90264342D02*
X99571428Y-90359580D01*
X99571428Y-90359580D02*
X99523809Y-90407200D01*
X99523809Y-90407200D02*
X99428571Y-90454819D01*
X99428571Y-90454819D02*
X99238095Y-90454819D01*
X99238095Y-90454819D02*
X99142857Y-90407200D01*
X100047619Y-90359580D02*
X100095238Y-90407200D01*
X100095238Y-90407200D02*
X100047619Y-90454819D01*
X100047619Y-90454819D02*
X100000000Y-90407200D01*
X100000000Y-90407200D02*
X100047619Y-90359580D01*
X100047619Y-90359580D02*
X100047619Y-90454819D01*
X101238095Y-90407200D02*
X101380952Y-90454819D01*
X101380952Y-90454819D02*
X101619047Y-90454819D01*
X101619047Y-90454819D02*
X101714285Y-90407200D01*
X101714285Y-90407200D02*
X101761904Y-90359580D01*
X101761904Y-90359580D02*
X101809523Y-90264342D01*
X101809523Y-90264342D02*
X101809523Y-90169104D01*
X101809523Y-90169104D02*
X101761904Y-90073866D01*
X101761904Y-90073866D02*
X101714285Y-90026247D01*
X101714285Y-90026247D02*
X101619047Y-89978628D01*
X101619047Y-89978628D02*
X101428571Y-89931009D01*
X101428571Y-89931009D02*
X101333333Y-89883390D01*
X101333333Y-89883390D02*
X101285714Y-89835771D01*
X101285714Y-89835771D02*
X101238095Y-89740533D01*
X101238095Y-89740533D02*
X101238095Y-89645295D01*
X101238095Y-89645295D02*
X101285714Y-89550057D01*
X101285714Y-89550057D02*
X101333333Y-89502438D01*
X101333333Y-89502438D02*
X101428571Y-89454819D01*
X101428571Y-89454819D02*
X101666666Y-89454819D01*
X101666666Y-89454819D02*
X101809523Y-89502438D01*
X102619047Y-90407200D02*
X102523809Y-90454819D01*
X102523809Y-90454819D02*
X102333333Y-90454819D01*
X102333333Y-90454819D02*
X102238095Y-90407200D01*
X102238095Y-90407200D02*
X102190476Y-90311961D01*
X102190476Y-90311961D02*
X102190476Y-89931009D01*
X102190476Y-89931009D02*
X102238095Y-89835771D01*
X102238095Y-89835771D02*
X102333333Y-89788152D01*
X102333333Y-89788152D02*
X102523809Y-89788152D01*
X102523809Y-89788152D02*
X102619047Y-89835771D01*
X102619047Y-89835771D02*
X102666666Y-89931009D01*
X102666666Y-89931009D02*
X102666666Y-90026247D01*
X102666666Y-90026247D02*
X102190476Y-90121485D01*
X103095238Y-89788152D02*
X103095238Y-90454819D01*
X103095238Y-89883390D02*
X103142857Y-89835771D01*
X103142857Y-89835771D02*
X103238095Y-89788152D01*
X103238095Y-89788152D02*
X103380952Y-89788152D01*
X103380952Y-89788152D02*
X103476190Y-89835771D01*
X103476190Y-89835771D02*
X103523809Y-89931009D01*
X103523809Y-89931009D02*
X103523809Y-90454819D01*
X103952381Y-90407200D02*
X104047619Y-90454819D01*
X104047619Y-90454819D02*
X104238095Y-90454819D01*
X104238095Y-90454819D02*
X104333333Y-90407200D01*
X104333333Y-90407200D02*
X104380952Y-90311961D01*
X104380952Y-90311961D02*
X104380952Y-90264342D01*
X104380952Y-90264342D02*
X104333333Y-90169104D01*
X104333333Y-90169104D02*
X104238095Y-90121485D01*
X104238095Y-90121485D02*
X104095238Y-90121485D01*
X104095238Y-90121485D02*
X104000000Y-90073866D01*
X104000000Y-90073866D02*
X103952381Y-89978628D01*
X103952381Y-89978628D02*
X103952381Y-89931009D01*
X103952381Y-89931009D02*
X104000000Y-89835771D01*
X104000000Y-89835771D02*
X104095238Y-89788152D01*
X104095238Y-89788152D02*
X104238095Y-89788152D01*
X104238095Y-89788152D02*
X104333333Y-89835771D01*
X104952381Y-90454819D02*
X104857143Y-90407200D01*
X104857143Y-90407200D02*
X104809524Y-90359580D01*
X104809524Y-90359580D02*
X104761905Y-90264342D01*
X104761905Y-90264342D02*
X104761905Y-89978628D01*
X104761905Y-89978628D02*
X104809524Y-89883390D01*
X104809524Y-89883390D02*
X104857143Y-89835771D01*
X104857143Y-89835771D02*
X104952381Y-89788152D01*
X104952381Y-89788152D02*
X105095238Y-89788152D01*
X105095238Y-89788152D02*
X105190476Y-89835771D01*
X105190476Y-89835771D02*
X105238095Y-89883390D01*
X105238095Y-89883390D02*
X105285714Y-89978628D01*
X105285714Y-89978628D02*
X105285714Y-90264342D01*
X105285714Y-90264342D02*
X105238095Y-90359580D01*
X105238095Y-90359580D02*
X105190476Y-90407200D01*
X105190476Y-90407200D02*
X105095238Y-90454819D01*
X105095238Y-90454819D02*
X104952381Y-90454819D01*
X105714286Y-90454819D02*
X105714286Y-89788152D01*
X105714286Y-89978628D02*
X105761905Y-89883390D01*
X105761905Y-89883390D02*
X105809524Y-89835771D01*
X105809524Y-89835771D02*
X105904762Y-89788152D01*
X105904762Y-89788152D02*
X106000000Y-89788152D01*
X106857143Y-90454819D02*
X106285715Y-90454819D01*
X106571429Y-90454819D02*
X106571429Y-89454819D01*
X106571429Y-89454819D02*
X106476191Y-89597676D01*
X106476191Y-89597676D02*
X106380953Y-89692914D01*
X106380953Y-89692914D02*
X106285715Y-89740533D01*
X73380952Y-84669104D02*
X73857142Y-84669104D01*
X73285714Y-84954819D02*
X73619047Y-83954819D01*
X73619047Y-83954819D02*
X73952380Y-84954819D01*
X74285714Y-84954819D02*
X74285714Y-84288152D01*
X74285714Y-84478628D02*
X74333333Y-84383390D01*
X74333333Y-84383390D02*
X74380952Y-84335771D01*
X74380952Y-84335771D02*
X74476190Y-84288152D01*
X74476190Y-84288152D02*
X74571428Y-84288152D01*
X75333333Y-84954819D02*
X75333333Y-83954819D01*
X75333333Y-84907200D02*
X75238095Y-84954819D01*
X75238095Y-84954819D02*
X75047619Y-84954819D01*
X75047619Y-84954819D02*
X74952381Y-84907200D01*
X74952381Y-84907200D02*
X74904762Y-84859580D01*
X74904762Y-84859580D02*
X74857143Y-84764342D01*
X74857143Y-84764342D02*
X74857143Y-84478628D01*
X74857143Y-84478628D02*
X74904762Y-84383390D01*
X74904762Y-84383390D02*
X74952381Y-84335771D01*
X74952381Y-84335771D02*
X75047619Y-84288152D01*
X75047619Y-84288152D02*
X75238095Y-84288152D01*
X75238095Y-84288152D02*
X75333333Y-84335771D01*
X76238095Y-84288152D02*
X76238095Y-84954819D01*
X75809524Y-84288152D02*
X75809524Y-84811961D01*
X75809524Y-84811961D02*
X75857143Y-84907200D01*
X75857143Y-84907200D02*
X75952381Y-84954819D01*
X75952381Y-84954819D02*
X76095238Y-84954819D01*
X76095238Y-84954819D02*
X76190476Y-84907200D01*
X76190476Y-84907200D02*
X76238095Y-84859580D01*
X76714286Y-84954819D02*
X76714286Y-84288152D01*
X76714286Y-83954819D02*
X76666667Y-84002438D01*
X76666667Y-84002438D02*
X76714286Y-84050057D01*
X76714286Y-84050057D02*
X76761905Y-84002438D01*
X76761905Y-84002438D02*
X76714286Y-83954819D01*
X76714286Y-83954819D02*
X76714286Y-84050057D01*
X77190476Y-84288152D02*
X77190476Y-84954819D01*
X77190476Y-84383390D02*
X77238095Y-84335771D01*
X77238095Y-84335771D02*
X77333333Y-84288152D01*
X77333333Y-84288152D02*
X77476190Y-84288152D01*
X77476190Y-84288152D02*
X77571428Y-84335771D01*
X77571428Y-84335771D02*
X77619047Y-84431009D01*
X77619047Y-84431009D02*
X77619047Y-84954819D01*
X78238095Y-84954819D02*
X78142857Y-84907200D01*
X78142857Y-84907200D02*
X78095238Y-84859580D01*
X78095238Y-84859580D02*
X78047619Y-84764342D01*
X78047619Y-84764342D02*
X78047619Y-84478628D01*
X78047619Y-84478628D02*
X78095238Y-84383390D01*
X78095238Y-84383390D02*
X78142857Y-84335771D01*
X78142857Y-84335771D02*
X78238095Y-84288152D01*
X78238095Y-84288152D02*
X78380952Y-84288152D01*
X78380952Y-84288152D02*
X78476190Y-84335771D01*
X78476190Y-84335771D02*
X78523809Y-84383390D01*
X78523809Y-84383390D02*
X78571428Y-84478628D01*
X78571428Y-84478628D02*
X78571428Y-84764342D01*
X78571428Y-84764342D02*
X78523809Y-84859580D01*
X78523809Y-84859580D02*
X78476190Y-84907200D01*
X78476190Y-84907200D02*
X78380952Y-84954819D01*
X78380952Y-84954819D02*
X78238095Y-84954819D01*
X79761905Y-84954819D02*
X79761905Y-83954819D01*
X79761905Y-83954819D02*
X80333333Y-84954819D01*
X80333333Y-84954819D02*
X80333333Y-83954819D01*
X81238095Y-84954819D02*
X81238095Y-84431009D01*
X81238095Y-84431009D02*
X81190476Y-84335771D01*
X81190476Y-84335771D02*
X81095238Y-84288152D01*
X81095238Y-84288152D02*
X80904762Y-84288152D01*
X80904762Y-84288152D02*
X80809524Y-84335771D01*
X81238095Y-84907200D02*
X81142857Y-84954819D01*
X81142857Y-84954819D02*
X80904762Y-84954819D01*
X80904762Y-84954819D02*
X80809524Y-84907200D01*
X80809524Y-84907200D02*
X80761905Y-84811961D01*
X80761905Y-84811961D02*
X80761905Y-84716723D01*
X80761905Y-84716723D02*
X80809524Y-84621485D01*
X80809524Y-84621485D02*
X80904762Y-84573866D01*
X80904762Y-84573866D02*
X81142857Y-84573866D01*
X81142857Y-84573866D02*
X81238095Y-84526247D01*
X81714286Y-84288152D02*
X81714286Y-84954819D01*
X81714286Y-84383390D02*
X81761905Y-84335771D01*
X81761905Y-84335771D02*
X81857143Y-84288152D01*
X81857143Y-84288152D02*
X82000000Y-84288152D01*
X82000000Y-84288152D02*
X82095238Y-84335771D01*
X82095238Y-84335771D02*
X82142857Y-84431009D01*
X82142857Y-84431009D02*
X82142857Y-84954819D01*
X82761905Y-84954819D02*
X82666667Y-84907200D01*
X82666667Y-84907200D02*
X82619048Y-84859580D01*
X82619048Y-84859580D02*
X82571429Y-84764342D01*
X82571429Y-84764342D02*
X82571429Y-84478628D01*
X82571429Y-84478628D02*
X82619048Y-84383390D01*
X82619048Y-84383390D02*
X82666667Y-84335771D01*
X82666667Y-84335771D02*
X82761905Y-84288152D01*
X82761905Y-84288152D02*
X82904762Y-84288152D01*
X82904762Y-84288152D02*
X83000000Y-84335771D01*
X83000000Y-84335771D02*
X83047619Y-84383390D01*
X83047619Y-84383390D02*
X83095238Y-84478628D01*
X83095238Y-84478628D02*
X83095238Y-84764342D01*
X83095238Y-84764342D02*
X83047619Y-84859580D01*
X83047619Y-84859580D02*
X83000000Y-84907200D01*
X83000000Y-84907200D02*
X82904762Y-84954819D01*
X82904762Y-84954819D02*
X82761905Y-84954819D01*
X84285715Y-84431009D02*
X84619048Y-84431009D01*
X84761905Y-84954819D02*
X84285715Y-84954819D01*
X84285715Y-84954819D02*
X84285715Y-83954819D01*
X84285715Y-83954819D02*
X84761905Y-83954819D01*
X85142858Y-84907200D02*
X85285715Y-84954819D01*
X85285715Y-84954819D02*
X85523810Y-84954819D01*
X85523810Y-84954819D02*
X85619048Y-84907200D01*
X85619048Y-84907200D02*
X85666667Y-84859580D01*
X85666667Y-84859580D02*
X85714286Y-84764342D01*
X85714286Y-84764342D02*
X85714286Y-84669104D01*
X85714286Y-84669104D02*
X85666667Y-84573866D01*
X85666667Y-84573866D02*
X85619048Y-84526247D01*
X85619048Y-84526247D02*
X85523810Y-84478628D01*
X85523810Y-84478628D02*
X85333334Y-84431009D01*
X85333334Y-84431009D02*
X85238096Y-84383390D01*
X85238096Y-84383390D02*
X85190477Y-84335771D01*
X85190477Y-84335771D02*
X85142858Y-84240533D01*
X85142858Y-84240533D02*
X85142858Y-84145295D01*
X85142858Y-84145295D02*
X85190477Y-84050057D01*
X85190477Y-84050057D02*
X85238096Y-84002438D01*
X85238096Y-84002438D02*
X85333334Y-83954819D01*
X85333334Y-83954819D02*
X85571429Y-83954819D01*
X85571429Y-83954819D02*
X85714286Y-84002438D01*
X86142858Y-84954819D02*
X86142858Y-83954819D01*
X86142858Y-83954819D02*
X86523810Y-83954819D01*
X86523810Y-83954819D02*
X86619048Y-84002438D01*
X86619048Y-84002438D02*
X86666667Y-84050057D01*
X86666667Y-84050057D02*
X86714286Y-84145295D01*
X86714286Y-84145295D02*
X86714286Y-84288152D01*
X86714286Y-84288152D02*
X86666667Y-84383390D01*
X86666667Y-84383390D02*
X86619048Y-84431009D01*
X86619048Y-84431009D02*
X86523810Y-84478628D01*
X86523810Y-84478628D02*
X86142858Y-84478628D01*
X87047620Y-83954819D02*
X87666667Y-83954819D01*
X87666667Y-83954819D02*
X87333334Y-84335771D01*
X87333334Y-84335771D02*
X87476191Y-84335771D01*
X87476191Y-84335771D02*
X87571429Y-84383390D01*
X87571429Y-84383390D02*
X87619048Y-84431009D01*
X87619048Y-84431009D02*
X87666667Y-84526247D01*
X87666667Y-84526247D02*
X87666667Y-84764342D01*
X87666667Y-84764342D02*
X87619048Y-84859580D01*
X87619048Y-84859580D02*
X87571429Y-84907200D01*
X87571429Y-84907200D02*
X87476191Y-84954819D01*
X87476191Y-84954819D02*
X87190477Y-84954819D01*
X87190477Y-84954819D02*
X87095239Y-84907200D01*
X87095239Y-84907200D02*
X87047620Y-84859580D01*
X88047620Y-84050057D02*
X88095239Y-84002438D01*
X88095239Y-84002438D02*
X88190477Y-83954819D01*
X88190477Y-83954819D02*
X88428572Y-83954819D01*
X88428572Y-83954819D02*
X88523810Y-84002438D01*
X88523810Y-84002438D02*
X88571429Y-84050057D01*
X88571429Y-84050057D02*
X88619048Y-84145295D01*
X88619048Y-84145295D02*
X88619048Y-84240533D01*
X88619048Y-84240533D02*
X88571429Y-84383390D01*
X88571429Y-84383390D02*
X88000001Y-84954819D01*
X88000001Y-84954819D02*
X88619048Y-84954819D01*
X60833333Y-106454819D02*
X60500000Y-105978628D01*
X60261905Y-106454819D02*
X60261905Y-105454819D01*
X60261905Y-105454819D02*
X60642857Y-105454819D01*
X60642857Y-105454819D02*
X60738095Y-105502438D01*
X60738095Y-105502438D02*
X60785714Y-105550057D01*
X60785714Y-105550057D02*
X60833333Y-105645295D01*
X60833333Y-105645295D02*
X60833333Y-105788152D01*
X60833333Y-105788152D02*
X60785714Y-105883390D01*
X60785714Y-105883390D02*
X60738095Y-105931009D01*
X60738095Y-105931009D02*
X60642857Y-105978628D01*
X60642857Y-105978628D02*
X60261905Y-105978628D01*
X61214286Y-105550057D02*
X61261905Y-105502438D01*
X61261905Y-105502438D02*
X61357143Y-105454819D01*
X61357143Y-105454819D02*
X61595238Y-105454819D01*
X61595238Y-105454819D02*
X61690476Y-105502438D01*
X61690476Y-105502438D02*
X61738095Y-105550057D01*
X61738095Y-105550057D02*
X61785714Y-105645295D01*
X61785714Y-105645295D02*
X61785714Y-105740533D01*
X61785714Y-105740533D02*
X61738095Y-105883390D01*
X61738095Y-105883390D02*
X61166667Y-106454819D01*
X61166667Y-106454819D02*
X61785714Y-106454819D01*
X37761904Y-121454819D02*
X37285714Y-121454819D01*
X37285714Y-121454819D02*
X37285714Y-120454819D01*
X38095238Y-120931009D02*
X38428571Y-120931009D01*
X38571428Y-121454819D02*
X38095238Y-121454819D01*
X38095238Y-121454819D02*
X38095238Y-120454819D01*
X38095238Y-120454819D02*
X38571428Y-120454819D01*
X39000000Y-121454819D02*
X39000000Y-120454819D01*
X39000000Y-120454819D02*
X39238095Y-120454819D01*
X39238095Y-120454819D02*
X39380952Y-120502438D01*
X39380952Y-120502438D02*
X39476190Y-120597676D01*
X39476190Y-120597676D02*
X39523809Y-120692914D01*
X39523809Y-120692914D02*
X39571428Y-120883390D01*
X39571428Y-120883390D02*
X39571428Y-121026247D01*
X39571428Y-121026247D02*
X39523809Y-121216723D01*
X39523809Y-121216723D02*
X39476190Y-121311961D01*
X39476190Y-121311961D02*
X39380952Y-121407200D01*
X39380952Y-121407200D02*
X39238095Y-121454819D01*
X39238095Y-121454819D02*
X39000000Y-121454819D01*
X40000000Y-121454819D02*
X40000000Y-120454819D01*
X40000000Y-120454819D02*
X40333333Y-121169104D01*
X40333333Y-121169104D02*
X40666666Y-120454819D01*
X40666666Y-120454819D02*
X40666666Y-121454819D01*
X41285714Y-121454819D02*
X41190476Y-121407200D01*
X41190476Y-121407200D02*
X41142857Y-121359580D01*
X41142857Y-121359580D02*
X41095238Y-121264342D01*
X41095238Y-121264342D02*
X41095238Y-120978628D01*
X41095238Y-120978628D02*
X41142857Y-120883390D01*
X41142857Y-120883390D02*
X41190476Y-120835771D01*
X41190476Y-120835771D02*
X41285714Y-120788152D01*
X41285714Y-120788152D02*
X41428571Y-120788152D01*
X41428571Y-120788152D02*
X41523809Y-120835771D01*
X41523809Y-120835771D02*
X41571428Y-120883390D01*
X41571428Y-120883390D02*
X41619047Y-120978628D01*
X41619047Y-120978628D02*
X41619047Y-121264342D01*
X41619047Y-121264342D02*
X41571428Y-121359580D01*
X41571428Y-121359580D02*
X41523809Y-121407200D01*
X41523809Y-121407200D02*
X41428571Y-121454819D01*
X41428571Y-121454819D02*
X41285714Y-121454819D01*
X42476190Y-121454819D02*
X42476190Y-120454819D01*
X42476190Y-121407200D02*
X42380952Y-121454819D01*
X42380952Y-121454819D02*
X42190476Y-121454819D01*
X42190476Y-121454819D02*
X42095238Y-121407200D01*
X42095238Y-121407200D02*
X42047619Y-121359580D01*
X42047619Y-121359580D02*
X42000000Y-121264342D01*
X42000000Y-121264342D02*
X42000000Y-120978628D01*
X42000000Y-120978628D02*
X42047619Y-120883390D01*
X42047619Y-120883390D02*
X42095238Y-120835771D01*
X42095238Y-120835771D02*
X42190476Y-120788152D01*
X42190476Y-120788152D02*
X42380952Y-120788152D01*
X42380952Y-120788152D02*
X42476190Y-120835771D01*
X43380952Y-120788152D02*
X43380952Y-121454819D01*
X42952381Y-120788152D02*
X42952381Y-121311961D01*
X42952381Y-121311961D02*
X43000000Y-121407200D01*
X43000000Y-121407200D02*
X43095238Y-121454819D01*
X43095238Y-121454819D02*
X43238095Y-121454819D01*
X43238095Y-121454819D02*
X43333333Y-121407200D01*
X43333333Y-121407200D02*
X43380952Y-121359580D01*
X44000000Y-121454819D02*
X43904762Y-121407200D01*
X43904762Y-121407200D02*
X43857143Y-121311961D01*
X43857143Y-121311961D02*
X43857143Y-120454819D01*
X44761905Y-121407200D02*
X44666667Y-121454819D01*
X44666667Y-121454819D02*
X44476191Y-121454819D01*
X44476191Y-121454819D02*
X44380953Y-121407200D01*
X44380953Y-121407200D02*
X44333334Y-121311961D01*
X44333334Y-121311961D02*
X44333334Y-120931009D01*
X44333334Y-120931009D02*
X44380953Y-120835771D01*
X44380953Y-120835771D02*
X44476191Y-120788152D01*
X44476191Y-120788152D02*
X44666667Y-120788152D01*
X44666667Y-120788152D02*
X44761905Y-120835771D01*
X44761905Y-120835771D02*
X44809524Y-120931009D01*
X44809524Y-120931009D02*
X44809524Y-121026247D01*
X44809524Y-121026247D02*
X44333334Y-121121485D01*
X45761905Y-121454819D02*
X45190477Y-121454819D01*
X45476191Y-121454819D02*
X45476191Y-120454819D01*
X45476191Y-120454819D02*
X45380953Y-120597676D01*
X45380953Y-120597676D02*
X45285715Y-120692914D01*
X45285715Y-120692914D02*
X45190477Y-120740533D01*
X100407200Y-146285714D02*
X100454819Y-146142857D01*
X100454819Y-146142857D02*
X100454819Y-145904762D01*
X100454819Y-145904762D02*
X100407200Y-145809524D01*
X100407200Y-145809524D02*
X100359580Y-145761905D01*
X100359580Y-145761905D02*
X100264342Y-145714286D01*
X100264342Y-145714286D02*
X100169104Y-145714286D01*
X100169104Y-145714286D02*
X100073866Y-145761905D01*
X100073866Y-145761905D02*
X100026247Y-145809524D01*
X100026247Y-145809524D02*
X99978628Y-145904762D01*
X99978628Y-145904762D02*
X99931009Y-146095238D01*
X99931009Y-146095238D02*
X99883390Y-146190476D01*
X99883390Y-146190476D02*
X99835771Y-146238095D01*
X99835771Y-146238095D02*
X99740533Y-146285714D01*
X99740533Y-146285714D02*
X99645295Y-146285714D01*
X99645295Y-146285714D02*
X99550057Y-146238095D01*
X99550057Y-146238095D02*
X99502438Y-146190476D01*
X99502438Y-146190476D02*
X99454819Y-146095238D01*
X99454819Y-146095238D02*
X99454819Y-145857143D01*
X99454819Y-145857143D02*
X99502438Y-145714286D01*
X99454819Y-145380952D02*
X100454819Y-145142857D01*
X100454819Y-145142857D02*
X99740533Y-144952381D01*
X99740533Y-144952381D02*
X100454819Y-144761905D01*
X100454819Y-144761905D02*
X99454819Y-144523810D01*
X99550057Y-144190476D02*
X99502438Y-144142857D01*
X99502438Y-144142857D02*
X99454819Y-144047619D01*
X99454819Y-144047619D02*
X99454819Y-143809524D01*
X99454819Y-143809524D02*
X99502438Y-143714286D01*
X99502438Y-143714286D02*
X99550057Y-143666667D01*
X99550057Y-143666667D02*
X99645295Y-143619048D01*
X99645295Y-143619048D02*
X99740533Y-143619048D01*
X99740533Y-143619048D02*
X99883390Y-143666667D01*
X99883390Y-143666667D02*
X100454819Y-144238095D01*
X100454819Y-144238095D02*
X100454819Y-143619048D01*
X100835771Y-142142857D02*
X100788152Y-142190476D01*
X100788152Y-142190476D02*
X100645295Y-142285714D01*
X100645295Y-142285714D02*
X100550057Y-142333333D01*
X100550057Y-142333333D02*
X100407200Y-142380952D01*
X100407200Y-142380952D02*
X100169104Y-142428571D01*
X100169104Y-142428571D02*
X99978628Y-142428571D01*
X99978628Y-142428571D02*
X99740533Y-142380952D01*
X99740533Y-142380952D02*
X99597676Y-142333333D01*
X99597676Y-142333333D02*
X99502438Y-142285714D01*
X99502438Y-142285714D02*
X99359580Y-142190476D01*
X99359580Y-142190476D02*
X99311961Y-142142857D01*
X100407200Y-141809523D02*
X100454819Y-141666666D01*
X100454819Y-141666666D02*
X100454819Y-141428571D01*
X100454819Y-141428571D02*
X100407200Y-141333333D01*
X100407200Y-141333333D02*
X100359580Y-141285714D01*
X100359580Y-141285714D02*
X100264342Y-141238095D01*
X100264342Y-141238095D02*
X100169104Y-141238095D01*
X100169104Y-141238095D02*
X100073866Y-141285714D01*
X100073866Y-141285714D02*
X100026247Y-141333333D01*
X100026247Y-141333333D02*
X99978628Y-141428571D01*
X99978628Y-141428571D02*
X99931009Y-141619047D01*
X99931009Y-141619047D02*
X99883390Y-141714285D01*
X99883390Y-141714285D02*
X99835771Y-141761904D01*
X99835771Y-141761904D02*
X99740533Y-141809523D01*
X99740533Y-141809523D02*
X99645295Y-141809523D01*
X99645295Y-141809523D02*
X99550057Y-141761904D01*
X99550057Y-141761904D02*
X99502438Y-141714285D01*
X99502438Y-141714285D02*
X99454819Y-141619047D01*
X99454819Y-141619047D02*
X99454819Y-141380952D01*
X99454819Y-141380952D02*
X99502438Y-141238095D01*
X99788152Y-140904761D02*
X100454819Y-140714285D01*
X100454819Y-140714285D02*
X99978628Y-140523809D01*
X99978628Y-140523809D02*
X100454819Y-140333333D01*
X100454819Y-140333333D02*
X99788152Y-140142857D01*
X100454819Y-139761904D02*
X99788152Y-139761904D01*
X99454819Y-139761904D02*
X99502438Y-139809523D01*
X99502438Y-139809523D02*
X99550057Y-139761904D01*
X99550057Y-139761904D02*
X99502438Y-139714285D01*
X99502438Y-139714285D02*
X99454819Y-139761904D01*
X99454819Y-139761904D02*
X99550057Y-139761904D01*
X99788152Y-139428571D02*
X99788152Y-139047619D01*
X99454819Y-139285714D02*
X100311961Y-139285714D01*
X100311961Y-139285714D02*
X100407200Y-139238095D01*
X100407200Y-139238095D02*
X100454819Y-139142857D01*
X100454819Y-139142857D02*
X100454819Y-139047619D01*
X100407200Y-138285714D02*
X100454819Y-138380952D01*
X100454819Y-138380952D02*
X100454819Y-138571428D01*
X100454819Y-138571428D02*
X100407200Y-138666666D01*
X100407200Y-138666666D02*
X100359580Y-138714285D01*
X100359580Y-138714285D02*
X100264342Y-138761904D01*
X100264342Y-138761904D02*
X99978628Y-138761904D01*
X99978628Y-138761904D02*
X99883390Y-138714285D01*
X99883390Y-138714285D02*
X99835771Y-138666666D01*
X99835771Y-138666666D02*
X99788152Y-138571428D01*
X99788152Y-138571428D02*
X99788152Y-138380952D01*
X99788152Y-138380952D02*
X99835771Y-138285714D01*
X100454819Y-137857142D02*
X99454819Y-137857142D01*
X100454819Y-137428571D02*
X99931009Y-137428571D01*
X99931009Y-137428571D02*
X99835771Y-137476190D01*
X99835771Y-137476190D02*
X99788152Y-137571428D01*
X99788152Y-137571428D02*
X99788152Y-137714285D01*
X99788152Y-137714285D02*
X99835771Y-137809523D01*
X99835771Y-137809523D02*
X99883390Y-137857142D01*
X100835771Y-137047618D02*
X100788152Y-136999999D01*
X100788152Y-136999999D02*
X100645295Y-136904761D01*
X100645295Y-136904761D02*
X100550057Y-136857142D01*
X100550057Y-136857142D02*
X100407200Y-136809523D01*
X100407200Y-136809523D02*
X100169104Y-136761904D01*
X100169104Y-136761904D02*
X99978628Y-136761904D01*
X99978628Y-136761904D02*
X99740533Y-136809523D01*
X99740533Y-136809523D02*
X99597676Y-136857142D01*
X99597676Y-136857142D02*
X99502438Y-136904761D01*
X99502438Y-136904761D02*
X99359580Y-136999999D01*
X99359580Y-136999999D02*
X99311961Y-137047618D01*
X61333333Y-96954819D02*
X61000000Y-96478628D01*
X60761905Y-96954819D02*
X60761905Y-95954819D01*
X60761905Y-95954819D02*
X61142857Y-95954819D01*
X61142857Y-95954819D02*
X61238095Y-96002438D01*
X61238095Y-96002438D02*
X61285714Y-96050057D01*
X61285714Y-96050057D02*
X61333333Y-96145295D01*
X61333333Y-96145295D02*
X61333333Y-96288152D01*
X61333333Y-96288152D02*
X61285714Y-96383390D01*
X61285714Y-96383390D02*
X61238095Y-96431009D01*
X61238095Y-96431009D02*
X61142857Y-96478628D01*
X61142857Y-96478628D02*
X60761905Y-96478628D01*
X62285714Y-96954819D02*
X61714286Y-96954819D01*
X62000000Y-96954819D02*
X62000000Y-95954819D01*
X62000000Y-95954819D02*
X61904762Y-96097676D01*
X61904762Y-96097676D02*
X61809524Y-96192914D01*
X61809524Y-96192914D02*
X61714286Y-96240533D01*
D12*
X95845000Y-94420000D02*
X97115000Y-94420000D01*
X95845000Y-95690000D02*
X95845000Y-94420000D01*
X98192358Y-97800000D02*
X98505000Y-97800000D01*
X98192358Y-98660000D02*
X98505000Y-98660000D01*
X98192358Y-100340000D02*
X98505000Y-100340000D01*
X98192358Y-101200000D02*
X98505000Y-101200000D01*
X98192358Y-102880000D02*
X98505000Y-102880000D01*
X98192358Y-103740000D02*
X98505000Y-103740000D01*
X98275000Y-95260000D02*
X98505000Y-95260000D01*
X98275000Y-96120000D02*
X98505000Y-96120000D01*
X98505000Y-94310000D02*
X98505000Y-104690000D01*
X98505000Y-96960000D02*
X101265000Y-96960000D01*
X98505000Y-99500000D02*
X101265000Y-99500000D01*
X98505000Y-102040000D02*
X101265000Y-102040000D01*
X98505000Y-104690000D02*
X101265000Y-104690000D01*
X101265000Y-94310000D02*
X98505000Y-94310000D01*
X101265000Y-97800000D02*
X107265000Y-97800000D01*
X101265000Y-100340000D02*
X107265000Y-100340000D01*
X101265000Y-102880000D02*
X107265000Y-102880000D01*
X101265000Y-104690000D02*
X101265000Y-94310000D01*
X107265000Y-97800000D02*
X107265000Y-98660000D01*
X107265000Y-98660000D02*
X101265000Y-98660000D01*
X107265000Y-100340000D02*
X107265000Y-101200000D01*
X107265000Y-101200000D02*
X101265000Y-101200000D01*
X107265000Y-102880000D02*
X107265000Y-103740000D01*
X107265000Y-103740000D02*
X101265000Y-103740000D01*
X101265000Y-95260000D02*
X107265000Y-95260000D01*
X107265000Y-96120000D01*
X101265000Y-96120000D01*
X101265000Y-95260000D01*
G36*
X101265000Y-95260000D02*
G01*
X107265000Y-95260000D01*
X107265000Y-96120000D01*
X101265000Y-96120000D01*
X101265000Y-95260000D01*
G37*
X78345000Y-88340000D02*
X79725000Y-88340000D01*
X78345000Y-89720000D02*
X78345000Y-88340000D01*
X78345000Y-90990000D02*
X78345000Y-126660000D01*
X78345000Y-90990000D02*
X80995000Y-90990000D01*
X78345000Y-126660000D02*
X83645000Y-126660000D01*
X80995000Y-88340000D02*
X83645000Y-88340000D01*
X80995000Y-90990000D02*
X80995000Y-88340000D01*
X83645000Y-88340000D02*
X83645000Y-126660000D01*
X57730000Y-109630000D02*
X64270000Y-109630000D01*
X57730000Y-109960000D02*
X57730000Y-109630000D01*
X57730000Y-112040000D02*
X57730000Y-112370000D01*
X57730000Y-112370000D02*
X64270000Y-112370000D01*
X64270000Y-109630000D02*
X64270000Y-109960000D01*
X64270000Y-112370000D02*
X64270000Y-112040000D01*
X40120000Y-112540000D02*
X40120000Y-104810000D01*
X42880000Y-104810000D02*
X40120000Y-104810000D01*
X42880000Y-112540000D02*
X40120000Y-112540000D01*
X42880000Y-112540000D02*
X42880000Y-104810000D01*
X42880000Y-113810000D02*
X42880000Y-115190000D01*
X42880000Y-115190000D02*
X41500000Y-115190000D01*
X107890000Y-133140000D02*
X110400000Y-133140000D01*
X107890000Y-145360000D02*
X107890000Y-133140000D01*
X107890000Y-145360000D02*
X110400000Y-145360000D01*
X112700000Y-133140000D02*
X115300000Y-133140000D01*
X112700000Y-145360000D02*
X115300000Y-145360000D01*
X117600000Y-133140000D02*
X120110000Y-133140000D01*
X117600000Y-145360000D02*
X120110000Y-145360000D01*
X120110000Y-133140000D02*
X120110000Y-145360000D01*
X58230000Y-90630000D02*
X64770000Y-90630000D01*
X58230000Y-90960000D02*
X58230000Y-90630000D01*
X58230000Y-93040000D02*
X58230000Y-93370000D01*
X58230000Y-93370000D02*
X64770000Y-93370000D01*
X64770000Y-90630000D02*
X64770000Y-90960000D01*
X64770000Y-93370000D02*
X64770000Y-93040000D01*
M02*
